<svg xmlns="http://www.w3.org/2000/svg" xmlns:xlink="http://www.w3.org/1999/xlink" style="position: absolute; left: 0px; width: 95px; height: 165px; border-radius: 5px;"><g class="grid" transform="translate(0,82.5)" opacity="0.2" fill="none" font-size="10" font-family="sans-serif" text-anchor="middle"><path class="domain" stroke="#000" d="M0.5,0V0.5H620.5V0"></path></g><g class="grid" transform="translate(47.5,0)" opacity="0.2" fill="none" font-size="10" font-family="sans-serif" text-anchor="end"><path class="domain" stroke="#000" d="M0,35.5H0.5V130.5H0"></path></g><path opacity="1" d="M34.199999999999996,38.8L34.3064,39.742399999999996L34.428547200000004,40.67607519999999L34.5646225856,41.60003072959999L34.7129611874688,42.5133906447808L34.87204000677578,43.41538778715395L35.040466864138516,44.305354439715494L35.2169701020367,45.18271371814144L35.40038907594099,46.046971641288515L35.58966537430297,46.8977098288383L35.78383471208014,47.734578777975436L35.98201944665544,48.557291674642904L36.1834216688799,49.36561869829434L36.38731682554415,50.15938178218404L36.59304783289088,50.9384497941204L36.80001964383717,51.7027341052749L37.00769423440114,52.45218451710338L37.215585977439936,53.18678551871482L37.42325737421995,53.90655284912768L37.630315116573534,54.611530340800996L37.836406454458604,55.30178702262538L38.041215845646256,55.97741446222208L38.244461866023855,56.638524328934665L38.445894360631634,57.28524616031811L38.64529181705738,57.91772531624258L38.84245894420643,58.53612110594213L39.03722444075217,59.14060507445983L39.22943893876183,59.73135943597684L39.418973109092995,60.3085756424702L39.60571591617286,60.87245307702928L39.789573010712395,61.423197861978394L39.970465249776545,61.96102177270865L40.14832733443474,62.486141248820445L40.32310655595823,62.99877649482343L40.49476164221747,63.49915066323647L40.663261696566344,63.987489113481736L40.8285852220872,64.46401874047551L40.990719224611794,64.92896736728895L41.1496583884347,65.38256319668648L41.30540431909845,65.82503431675086L41.45796484805763,66.25660825617533L41.60735339442478,66.67751158514497L41.75358837936636,67.08796955804738L41.89669268905505,67.48820579454346L42.03669318239676,67.87844199580083L42.173620240039504,68.25889769294085L42.307507351437906,68.629790024981L42.438390736993576,68.99133354376718L42.5663090025197,69.3437400435872L42.69130282348818,69.68721841333804L42.813414656712816,70.02197450928713L42.93268847730158,70.34821104662274L43.04916953887686,70.66612750813152L43.16290415521686,70.97592006847319L43.27393950161242,71.27778153264373L43.382323434365205,71.57190128733193L43.48810432697398,71.85846526397664L43.591330921667925,72.13765591242893L43.69205219504914,72.40965218421113L43.790317236702144,72.67462952444669L43.886175139716435,72.93275987160982L43.97967490214987,73.18421166431338L44.070865338535654,73.42914985441799L44.1597950006058,73.66773592580329L44.246512106467705,73.90012791819845L44.33106447753049,74.12648045551771L44.41349948253193,74.346944778194L44.49386398806818,74.56166877904627L44.57220431507465,74.77079704225523L44.64856620075034,74.97447088505876L44.722994765456946,75.17282840181184L44.79553448416198,75.36600451008599L44.86622916202819,75.55413099851255L44.935121913783725,75.73733657609941L45.002255146536136,75.91574692277541L45.06767054572023,76.08948474093825L45.13140906389448,76.25866980780293L45.193510912123514,76.42341902836554L45.25401555370539,76.58384648881515L45.31296170002169,76.74006351024218L45.37038730830629,76.89217870250602L45.42632958114583,77.04029801813846L45.48082496753913,77.18452480617137L45.53390916535802,77.32495986578866L45.585617125064296,77.46170149971263L45.63598305454982,77.59484556724479L45.685040424977686,77.72448553688923L45.73282197751281,77.85071253849547L45.77935973083941,77.97361541486408L45.82468498937166,78.09328077276611L45.868828352071944,78.2097930333324L45.911819721798054,78.32323448177539L45.95368831510797,78.43368531641053L45.994462672456656,78.54122369694934L46.03417066872558,78.64592579204037L46.07283952403015,78.74786582603822L46.11049581475621,78.84711612498421L46.147165484780146,78.94374716178562L46.182873856832124,79.03782760058334L46.21764564396525,79.12942434030009L46.251504961097126,79.21860255736459L46.28447533659362,79.3054257476079L46.31657972386728,79.38995576733167L46.34784051296584,79.4722528735484L46.37827954212861,79.55237576339636L46.40791810929084,79.63038161273272L46.43677698351828,79.70632611390998L46.464876416355935,79.7802635127417L46.4922361530771,79.85224664466477L46.51887544382001,79.92232697010618L46.54481305460098,79.99055460906328L46.57006727819466,80.0569783749065L46.59465594487258,80.1216458074156L46.61859643299295,80.18460320505898L46.64190567943531,80.24589565652788L46.66460018987456,80.30556707153684L46.686696048890134,80.36366021090183L46.70820892990637,80.42021671590851L46.729154104961175,80.47527713698273L46.74954645430057,80.52888096167553L46.769400475797426,80.58106664197572L46.78873029419301,80.63187162096193L46.80754967016063,80.6813323588076L46.825872009191194,80.72948435815108L46.8437103703003,80.77636218884392L46.861077474557895,80.82199951208979L46.87798571344062,80.86642910398689L46.89444715700819,80.90968287848631L46.91047356190499,80.95179190977879L46.9260763791883,80.9927864541225L46.941266761984906,81.03269597112357L46.95605557297787,81.07154914448229L46.970453391725584,81.10937390221619L46.984470521815076,81.14619743637225L46.998116997851994,81.18204622223996L47.011402592289514,81.21694603707643L47.024336822098704,81.25092197835508L47.03692895528277,81.28399848154918L47.049188017237874,81.31619933746076L47.061122796962984,81.34754770910627L47.07274185312166,81.378066148169L47.084053519958225,81.40777661102912L47.095065913071224,81.43670047438118L47.10578693504678,81.46485855044926L47.11622428095467,81.49227110180965L47.12638544370988,81.51895785583037L47.136277719302136,81.54493801873735L47.145908211896575,81.57023028931619L47.15528383880777,81.59485287225849L47.16441133535023,81.61882349116203L47.17329725956775,81.64215940119291L47.181947996844364,81.66487740141831L47.19036976439965,81.68699384681832L47.198568615670595,81.70852465998472L47.20655044458311,81.7294853425145L47.214320989715205,81.74989098610627L47.22188583835466,81.76975628336666L47.229250430453455,81.78909553833427L47.23642006248148,81.80792267672845L47.24339989118172,81.82625125592975L47.25019493722958,81.84409447469906L47.2568100887982,81.86146518264205L47.263250105032355,81.87837588942546L47.26951961943303,81.89483877375167L47.27562314315478,81.91086569209776L47.281565068218036,81.92646818722503L47.28734967063853,81.94165749646514L47.2929811134757,81.95644455978831L47.298463449802206,81.97084002765958L47.30380062559646,81.9848542686884L47.30899648256009,81.99849737707697L47.314054760862234,82.01177917987252L47.31897910181244,82.02470924402877L47.323773050464,82.03729688328136L47.32844005814948,82.0495511648421L47.332983484950105,82.06148091591709L47.33740660210078,82.07309473005276L47.34171259433217,82.08440097331473L47.34590456215177,82.0954077903039L47.349985524065104,82.10612311001353L47.353958418738976,82.11655465153217L47.35782610710797,82.1267099295959L47.36159137442586,82.13659625999404L47.36525693226311,82.14622076483239L47.36882542045211,82.15559037765725L47.372299408981306,82.1647118484443L47.37568139983961,82.17359174845575L47.37897382881241,82.18223647496916L47.382179067230304,82.19065225588128L47.38529942367195,82.19884515419042L47.38833714562209,82.20682107236027L47.39129442108596,82.21458575656843L47.394173380161284,82.22214480084261L47.39697609656875,82.2295036510877L47.39970458914233,82.2366676090061L47.40236082328027,82.24364183591466L47.404946712357855,82.25043135646052L47.40746411910296,82.25704106223888L47.40991485693535,82.26347571531494L47.41230069127064,82.26973995165274L47.414623340789845,82.27583828445347L47.41688447867556,82.28177510740521L47.41908573381535,82.28755469784697L47.42122869197353,82.29318121984886L47.42331489693195,82.29865872721086L47.42534585160066,82.30399116638225L47.42732301909929,82.30918237930373L47.42924782380987,82.31423610617445L47.431121652401764,82.31915598814575L47.432945854829676,82.32394556994363L47.434721745305126,82.32860830242184L47.43645060324242,82.33314754504738L47.43813367417951,82.33756656832028L47.43977217067453,82.34186855612924L47.4413672731787,82.34605660804505L47.44292013088608,82.35013374155318L47.44443186256096,82.3541028942274L47.44590355734323,82.35796692584574L47.44733627553259,82.36172862045055L47.44873104935194,82.36539068835398L47.45008888369067,82.36895576809036L47.45141075682813,82.37242642831693L47.45269762113819,82.3758051696642L47.45395040377497,82.37909442653742L47.45517000734052,82.38229656887023L47.456357310534834,82.38541390383203L47.457513168788644,82.38844867748999L47.45863841487951,82.39140307642717L47.45973385953151,82.39427922931777L47.460800291999256,82.39707920846068L47.46183848063623,82.39980503127238L47.462849173448234,82.40245866174035L47.46383309863215,82.40504201183808L47.4647909651004,82.40755694290232L47.46572346299162,82.41000526697435L47.466631264167745,82.41238874810523L47.46751502269791,82.4147091036268L47.468375375329664,82.41696800538898L47.469212941947596,82.41916708096414L47.470028326019836,82.42130791481986L47.4708221150328,82.42339204946038L47.47159488091442,82.42542098653793L47.472347180446036,82.42739618793465L47.473079555663595,82.4293190768158L47.47379253424808,82.43119103865523L47.47448662990563,82.4330134222334L47.47516234273759,82.43478754060928L47.4758201596009,82.43651467206637L47.47646055445867,82.43819606103361L47.47708398872173,82.43983291898205L47.477690911581064,82.44142642529769" style="fill: none; stroke: rgb(252, 141, 89); stroke-width: 0.5; stroke-linecap: round;"></path><g><circle cx="34.199999999999996" cy="38.8" r="1" opacity="1" fill="rgb(254, 240, 217)" style="box-shadow: rgba(0, 0, 0, 0.4) 0px 3px 10px;"></circle><circle cx="34.3064" cy="39.742399999999996" r="1" opacity="1" fill="rgb(254, 236, 209)" style="box-shadow: rgba(0, 0, 0, 0.4) 0px 3px 10px;"></circle><circle cx="34.428547200000004" cy="40.67607519999999" r="1" opacity="1" fill="rgb(254, 233, 201)" style="box-shadow: rgba(0, 0, 0, 0.4) 0px 3px 10px;"></circle><circle cx="34.5646225856" cy="41.60003072959999" r="1" opacity="1" fill="rgb(254, 229, 193)" style="box-shadow: rgba(0, 0, 0, 0.4) 0px 3px 10px;"></circle><circle cx="34.7129611874688" cy="42.5133906447808" r="1" opacity="1" fill="rgb(254, 226, 185)" style="box-shadow: rgba(0, 0, 0, 0.4) 0px 3px 10px;"></circle><circle cx="34.87204000677578" cy="43.41538778715395" r="1" opacity="1" fill="rgb(254, 222, 178)" style="box-shadow: rgba(0, 0, 0, 0.4) 0px 3px 10px;"></circle><circle cx="35.040466864138516" cy="44.305354439715494" r="1" opacity="1" fill="rgb(253, 218, 170)" style="box-shadow: rgba(0, 0, 0, 0.4) 0px 3px 10px;"></circle><circle cx="35.2169701020367" cy="45.18271371814144" r="1" opacity="1" fill="rgb(253, 215, 162)" style="box-shadow: rgba(0, 0, 0, 0.4) 0px 3px 10px;"></circle><circle cx="35.40038907594099" cy="46.046971641288515" r="1" opacity="1" fill="rgb(253, 211, 154)" style="box-shadow: rgba(0, 0, 0, 0.4) 0px 3px 10px;"></circle><circle cx="35.58966537430297" cy="46.8977098288383" r="1" opacity="1" fill="rgb(253, 208, 146)" style="box-shadow: rgba(0, 0, 0, 0.4) 0px 3px 10px;"></circle><circle cx="35.78383471208014" cy="47.734578777975436" r="1" opacity="1" fill="rgb(253, 204, 138)" style="box-shadow: rgba(0, 0, 0, 0.4) 0px 3px 10px;"></circle><circle cx="35.98201944665544" cy="48.557291674642904" r="1" opacity="1" fill="rgb(253, 202, 137)" style="box-shadow: rgba(0, 0, 0, 0.4) 0px 3px 10px;"></circle><circle cx="36.1834216688799" cy="49.36561869829434" r="1" opacity="1" fill="rgb(253, 201, 136)" style="box-shadow: rgba(0, 0, 0, 0.4) 0px 3px 10px;"></circle><circle cx="36.38731682554415" cy="50.15938178218404" r="1" opacity="1" fill="rgb(253, 199, 134)" style="box-shadow: rgba(0, 0, 0, 0.4) 0px 3px 10px;"></circle><circle cx="36.59304783289088" cy="50.9384497941204" r="1" opacity="1" fill="rgb(253, 198, 133)" style="box-shadow: rgba(0, 0, 0, 0.4) 0px 3px 10px;"></circle><circle cx="36.80001964383717" cy="51.7027341052749" r="1" opacity="1" fill="rgb(253, 196, 132)" style="box-shadow: rgba(0, 0, 0, 0.4) 0px 3px 10px;"></circle><circle cx="37.00769423440114" cy="52.45218451710338" r="1" opacity="1" fill="rgb(253, 195, 131)" style="box-shadow: rgba(0, 0, 0, 0.4) 0px 3px 10px;"></circle><circle cx="37.215585977439936" cy="53.18678551871482" r="1" opacity="1" fill="rgb(253, 193, 129)" style="box-shadow: rgba(0, 0, 0, 0.4) 0px 3px 10px;"></circle><circle cx="37.42325737421995" cy="53.90655284912768" r="1" opacity="1" fill="rgb(253, 191, 128)" style="box-shadow: rgba(0, 0, 0, 0.4) 0px 3px 10px;"></circle><circle cx="37.630315116573534" cy="54.611530340800996" r="1" opacity="1" fill="rgb(253, 190, 127)" style="box-shadow: rgba(0, 0, 0, 0.4) 0px 3px 10px;"></circle><circle cx="37.836406454458604" cy="55.30178702262538" r="1" opacity="1" fill="rgb(253, 188, 126)" style="box-shadow: rgba(0, 0, 0, 0.4) 0px 3px 10px;"></circle><circle cx="38.041215845646256" cy="55.97741446222208" r="1" opacity="1" fill="rgb(253, 187, 125)" style="box-shadow: rgba(0, 0, 0, 0.4) 0px 3px 10px;"></circle><circle cx="38.244461866023855" cy="56.638524328934665" r="1" opacity="1" fill="rgb(253, 185, 123)" style="box-shadow: rgba(0, 0, 0, 0.4) 0px 3px 10px;"></circle><circle cx="38.445894360631634" cy="57.28524616031811" r="1" opacity="1" fill="rgb(253, 184, 122)" style="box-shadow: rgba(0, 0, 0, 0.4) 0px 3px 10px;"></circle><circle cx="38.64529181705738" cy="57.91772531624258" r="1" opacity="1" fill="rgb(253, 182, 121)" style="box-shadow: rgba(0, 0, 0, 0.4) 0px 3px 10px;"></circle><circle cx="38.84245894420643" cy="58.53612110594213" r="1" opacity="1" fill="rgb(253, 180, 120)" style="box-shadow: rgba(0, 0, 0, 0.4) 0px 3px 10px;"></circle><circle cx="39.03722444075217" cy="59.14060507445983" r="1" opacity="1" fill="rgb(253, 179, 118)" style="box-shadow: rgba(0, 0, 0, 0.4) 0px 3px 10px;"></circle><circle cx="39.22943893876183" cy="59.73135943597684" r="1" opacity="1" fill="rgb(253, 177, 117)" style="box-shadow: rgba(0, 0, 0, 0.4) 0px 3px 10px;"></circle><circle cx="39.418973109092995" cy="60.3085756424702" r="1" opacity="1" fill="rgb(253, 176, 116)" style="box-shadow: rgba(0, 0, 0, 0.4) 0px 3px 10px;"></circle><circle cx="39.60571591617286" cy="60.87245307702928" r="1" opacity="1" fill="rgb(253, 174, 115)" style="box-shadow: rgba(0, 0, 0, 0.4) 0px 3px 10px;"></circle><circle cx="39.789573010712395" cy="61.423197861978394" r="1" opacity="1" fill="rgb(253, 173, 114)" style="box-shadow: rgba(0, 0, 0, 0.4) 0px 3px 10px;"></circle><circle cx="39.970465249776545" cy="61.96102177270865" r="1" opacity="1" fill="rgb(252, 171, 112)" style="box-shadow: rgba(0, 0, 0, 0.4) 0px 3px 10px;"></circle><circle cx="40.14832733443474" cy="62.486141248820445" r="1" opacity="1" fill="rgb(252, 169, 111)" style="box-shadow: rgba(0, 0, 0, 0.4) 0px 3px 10px;"></circle><circle cx="40.32310655595823" cy="62.99877649482343" r="1" opacity="1" fill="rgb(252, 168, 110)" style="box-shadow: rgba(0, 0, 0, 0.4) 0px 3px 10px;"></circle><circle cx="40.49476164221747" cy="63.49915066323647" r="1" opacity="1" fill="rgb(252, 166, 109)" style="box-shadow: rgba(0, 0, 0, 0.4) 0px 3px 10px;"></circle><circle cx="40.663261696566344" cy="63.987489113481736" r="1" opacity="1" fill="rgb(252, 165, 107)" style="box-shadow: rgba(0, 0, 0, 0.4) 0px 3px 10px;"></circle><circle cx="40.8285852220872" cy="64.46401874047551" r="1" opacity="1" fill="rgb(252, 163, 106)" style="box-shadow: rgba(0, 0, 0, 0.4) 0px 3px 10px;"></circle><circle cx="40.990719224611794" cy="64.92896736728895" r="1" opacity="1" fill="rgb(252, 161, 105)" style="box-shadow: rgba(0, 0, 0, 0.4) 0px 3px 10px;"></circle><circle cx="41.1496583884347" cy="65.38256319668648" r="1" opacity="1" fill="rgb(252, 160, 104)" style="box-shadow: rgba(0, 0, 0, 0.4) 0px 3px 10px;"></circle><circle cx="41.30540431909845" cy="65.82503431675086" r="1" opacity="1" fill="rgb(252, 158, 102)" style="box-shadow: rgba(0, 0, 0, 0.4) 0px 3px 10px;"></circle><circle cx="41.45796484805763" cy="66.25660825617533" r="1" opacity="1" fill="rgb(252, 157, 101)" style="box-shadow: rgba(0, 0, 0, 0.4) 0px 3px 10px;"></circle><circle cx="41.60735339442478" cy="66.67751158514497" r="1" opacity="1" fill="rgb(252, 155, 100)" style="box-shadow: rgba(0, 0, 0, 0.4) 0px 3px 10px;"></circle><circle cx="41.75358837936636" cy="67.08796955804738" r="1" opacity="1" fill="rgb(252, 154, 99)" style="box-shadow: rgba(0, 0, 0, 0.4) 0px 3px 10px;"></circle><circle cx="41.89669268905505" cy="67.48820579454346" r="1" opacity="1" fill="rgb(252, 152, 98)" style="box-shadow: rgba(0, 0, 0, 0.4) 0px 3px 10px;"></circle><circle cx="42.03669318239676" cy="67.87844199580083" r="1" opacity="1" fill="rgb(252, 150, 96)" style="box-shadow: rgba(0, 0, 0, 0.4) 0px 3px 10px;"></circle><circle cx="42.173620240039504" cy="68.25889769294085" r="1" opacity="1" fill="rgb(252, 149, 95)" style="box-shadow: rgba(0, 0, 0, 0.4) 0px 3px 10px;"></circle><circle cx="42.307507351437906" cy="68.629790024981" r="1" opacity="1" fill="rgb(252, 147, 94)" style="box-shadow: rgba(0, 0, 0, 0.4) 0px 3px 10px;"></circle><circle cx="42.438390736993576" cy="68.99133354376718" r="1" opacity="1" fill="rgb(252, 146, 93)" style="box-shadow: rgba(0, 0, 0, 0.4) 0px 3px 10px;"></circle><circle cx="42.5663090025197" cy="69.3437400435872" r="1" opacity="1" fill="rgb(252, 144, 91)" style="box-shadow: rgba(0, 0, 0, 0.4) 0px 3px 10px;"></circle><circle cx="42.69130282348818" cy="69.68721841333804" r="1" opacity="1" fill="rgb(252, 143, 90)" style="box-shadow: rgba(0, 0, 0, 0.4) 0px 3px 10px;"></circle><circle cx="42.813414656712816" cy="70.02197450928713" r="1" opacity="1" fill="rgb(252, 141, 89)" style="box-shadow: rgba(0, 0, 0, 0.4) 0px 3px 10px;"></circle><circle cx="42.93268847730158" cy="70.34821104662274" r="1" opacity="1" fill="rgb(252, 141, 89)" style="box-shadow: rgba(0, 0, 0, 0.4) 0px 3px 10px;"></circle><circle cx="43.04916953887686" cy="70.66612750813152" r="1" opacity="1" fill="rgb(252, 140, 88)" style="box-shadow: rgba(0, 0, 0, 0.4) 0px 3px 10px;"></circle><circle cx="43.16290415521686" cy="70.97592006847319" r="1" opacity="1" fill="rgb(251, 140, 88)" style="box-shadow: rgba(0, 0, 0, 0.4) 0px 3px 10px;"></circle><circle cx="43.27393950161242" cy="71.27778153264373" r="1" opacity="1" fill="rgb(251, 139, 88)" style="box-shadow: rgba(0, 0, 0, 0.4) 0px 3px 10px;"></circle><circle cx="43.382323434365205" cy="71.57190128733193" r="1" opacity="1" fill="rgb(251, 139, 88)" style="box-shadow: rgba(0, 0, 0, 0.4) 0px 3px 10px;"></circle><circle cx="43.48810432697398" cy="71.85846526397664" r="1" opacity="1" fill="rgb(251, 138, 87)" style="box-shadow: rgba(0, 0, 0, 0.4) 0px 3px 10px;"></circle><circle cx="43.591330921667925" cy="72.13765591242893" r="1" opacity="1" fill="rgb(251, 138, 87)" style="box-shadow: rgba(0, 0, 0, 0.4) 0px 3px 10px;"></circle><circle cx="43.69205219504914" cy="72.40965218421113" r="1" opacity="1" fill="rgb(251, 137, 87)" style="box-shadow: rgba(0, 0, 0, 0.4) 0px 3px 10px;"></circle><circle cx="43.790317236702144" cy="72.67462952444669" r="1" opacity="1" fill="rgb(250, 137, 86)" style="box-shadow: rgba(0, 0, 0, 0.4) 0px 3px 10px;"></circle><circle cx="43.886175139716435" cy="72.93275987160982" r="1" opacity="1" fill="rgb(250, 136, 86)" style="box-shadow: rgba(0, 0, 0, 0.4) 0px 3px 10px;"></circle><circle cx="43.97967490214987" cy="73.18421166431338" r="1" opacity="1" fill="rgb(250, 136, 86)" style="box-shadow: rgba(0, 0, 0, 0.4) 0px 3px 10px;"></circle><circle cx="44.070865338535654" cy="73.42914985441799" r="1" opacity="1" fill="rgb(250, 135, 86)" style="box-shadow: rgba(0, 0, 0, 0.4) 0px 3px 10px;"></circle><circle cx="44.1597950006058" cy="73.66773592580329" r="1" opacity="1" fill="rgb(250, 135, 85)" style="box-shadow: rgba(0, 0, 0, 0.4) 0px 3px 10px;"></circle><circle cx="44.246512106467705" cy="73.90012791819845" r="1" opacity="1" fill="rgb(249, 134, 85)" style="box-shadow: rgba(0, 0, 0, 0.4) 0px 3px 10px;"></circle><circle cx="44.33106447753049" cy="74.12648045551771" r="1" opacity="1" fill="rgb(249, 134, 85)" style="box-shadow: rgba(0, 0, 0, 0.4) 0px 3px 10px;"></circle><circle cx="44.41349948253193" cy="74.346944778194" r="1" opacity="1" fill="rgb(249, 134, 84)" style="box-shadow: rgba(0, 0, 0, 0.4) 0px 3px 10px;"></circle><circle cx="44.49386398806818" cy="74.56166877904627" r="1" opacity="1" fill="rgb(249, 133, 84)" style="box-shadow: rgba(0, 0, 0, 0.4) 0px 3px 10px;"></circle><circle cx="44.57220431507465" cy="74.77079704225523" r="1" opacity="1" fill="rgb(249, 133, 84)" style="box-shadow: rgba(0, 0, 0, 0.4) 0px 3px 10px;"></circle><circle cx="44.64856620075034" cy="74.97447088505876" r="1" opacity="1" fill="rgb(248, 132, 83)" style="box-shadow: rgba(0, 0, 0, 0.4) 0px 3px 10px;"></circle><circle cx="44.722994765456946" cy="75.17282840181184" r="1" opacity="1" fill="rgb(248, 132, 83)" style="box-shadow: rgba(0, 0, 0, 0.4) 0px 3px 10px;"></circle><circle cx="44.79553448416198" cy="75.36600451008599" r="1" opacity="1" fill="rgb(248, 131, 83)" style="box-shadow: rgba(0, 0, 0, 0.4) 0px 3px 10px;"></circle><circle cx="44.86622916202819" cy="75.55413099851255" r="1" opacity="1" fill="rgb(248, 131, 83)" style="box-shadow: rgba(0, 0, 0, 0.4) 0px 3px 10px;"></circle><circle cx="44.935121913783725" cy="75.73733657609941" r="1" opacity="1" fill="rgb(248, 130, 82)" style="box-shadow: rgba(0, 0, 0, 0.4) 0px 3px 10px;"></circle><circle cx="45.002255146536136" cy="75.91574692277541" r="1" opacity="1" fill="rgb(248, 130, 82)" style="box-shadow: rgba(0, 0, 0, 0.4) 0px 3px 10px;"></circle><circle cx="45.06767054572023" cy="76.08948474093825" r="1" opacity="1" fill="rgb(247, 129, 82)" style="box-shadow: rgba(0, 0, 0, 0.4) 0px 3px 10px;"></circle><circle cx="45.13140906389448" cy="76.25866980780293" r="1" opacity="1" fill="rgb(247, 129, 81)" style="box-shadow: rgba(0, 0, 0, 0.4) 0px 3px 10px;"></circle><circle cx="45.193510912123514" cy="76.42341902836554" r="1" opacity="1" fill="rgb(247, 128, 81)" style="box-shadow: rgba(0, 0, 0, 0.4) 0px 3px 10px;"></circle><circle cx="45.25401555370539" cy="76.58384648881515" r="1" opacity="1" fill="rgb(247, 128, 81)" style="box-shadow: rgba(0, 0, 0, 0.4) 0px 3px 10px;"></circle><circle cx="45.31296170002169" cy="76.74006351024218" r="1" opacity="1" fill="rgb(247, 128, 81)" style="box-shadow: rgba(0, 0, 0, 0.4) 0px 3px 10px;"></circle><circle cx="45.37038730830629" cy="76.89217870250602" r="1" opacity="1" fill="rgb(246, 127, 80)" style="box-shadow: rgba(0, 0, 0, 0.4) 0px 3px 10px;"></circle><circle cx="45.42632958114583" cy="77.04029801813846" r="1" opacity="1" fill="rgb(246, 127, 80)" style="box-shadow: rgba(0, 0, 0, 0.4) 0px 3px 10px;"></circle><circle cx="45.48082496753913" cy="77.18452480617137" r="1" opacity="1" fill="rgb(246, 126, 80)" style="box-shadow: rgba(0, 0, 0, 0.4) 0px 3px 10px;"></circle><circle cx="45.53390916535802" cy="77.32495986578866" r="1" opacity="1" fill="rgb(246, 126, 79)" style="box-shadow: rgba(0, 0, 0, 0.4) 0px 3px 10px;"></circle><circle cx="45.585617125064296" cy="77.46170149971263" r="1" opacity="1" fill="rgb(246, 125, 79)" style="box-shadow: rgba(0, 0, 0, 0.4) 0px 3px 10px;"></circle><circle cx="45.63598305454982" cy="77.59484556724479" r="1" opacity="1" fill="rgb(246, 125, 79)" style="box-shadow: rgba(0, 0, 0, 0.4) 0px 3px 10px;"></circle><circle cx="45.685040424977686" cy="77.72448553688923" r="1" opacity="1" fill="rgb(245, 124, 79)" style="box-shadow: rgba(0, 0, 0, 0.4) 0px 3px 10px;"></circle><circle cx="45.73282197751281" cy="77.85071253849547" r="1" opacity="1" fill="rgb(245, 124, 78)" style="box-shadow: rgba(0, 0, 0, 0.4) 0px 3px 10px;"></circle><circle cx="45.77935973083941" cy="77.97361541486408" r="1" opacity="1" fill="rgb(245, 123, 78)" style="box-shadow: rgba(0, 0, 0, 0.4) 0px 3px 10px;"></circle><circle cx="45.82468498937166" cy="78.09328077276611" r="1" opacity="1" fill="rgb(245, 123, 78)" style="box-shadow: rgba(0, 0, 0, 0.4) 0px 3px 10px;"></circle><circle cx="45.868828352071944" cy="78.2097930333324" r="1" opacity="1" fill="rgb(245, 122, 77)" style="box-shadow: rgba(0, 0, 0, 0.4) 0px 3px 10px;"></circle><circle cx="45.911819721798054" cy="78.32323448177539" r="1" opacity="1" fill="rgb(244, 122, 77)" style="box-shadow: rgba(0, 0, 0, 0.4) 0px 3px 10px;"></circle><circle cx="45.95368831510797" cy="78.43368531641053" r="1" opacity="1" fill="rgb(244, 121, 77)" style="box-shadow: rgba(0, 0, 0, 0.4) 0px 3px 10px;"></circle><circle cx="45.994462672456656" cy="78.54122369694934" r="1" opacity="1" fill="rgb(244, 121, 77)" style="box-shadow: rgba(0, 0, 0, 0.4) 0px 3px 10px;"></circle><circle cx="46.03417066872558" cy="78.64592579204037" r="1" opacity="1" fill="rgb(244, 121, 76)" style="box-shadow: rgba(0, 0, 0, 0.4) 0px 3px 10px;"></circle><circle cx="46.07283952403015" cy="78.74786582603822" r="1" opacity="1" fill="rgb(244, 120, 76)" style="box-shadow: rgba(0, 0, 0, 0.4) 0px 3px 10px;"></circle><circle cx="46.11049581475621" cy="78.84711612498421" r="1" opacity="1" fill="rgb(243, 120, 76)" style="box-shadow: rgba(0, 0, 0, 0.4) 0px 3px 10px;"></circle><circle cx="46.147165484780146" cy="78.94374716178562" r="1" opacity="1" fill="rgb(243, 119, 75)" style="box-shadow: rgba(0, 0, 0, 0.4) 0px 3px 10px;"></circle><circle cx="46.182873856832124" cy="79.03782760058334" r="1" opacity="1" fill="rgb(243, 119, 75)" style="box-shadow: rgba(0, 0, 0, 0.4) 0px 3px 10px;"></circle><circle cx="46.21764564396525" cy="79.12942434030009" r="1" opacity="1" fill="rgb(243, 118, 75)" style="box-shadow: rgba(0, 0, 0, 0.4) 0px 3px 10px;"></circle><circle cx="46.251504961097126" cy="79.21860255736459" r="1" opacity="1" fill="rgb(243, 118, 75)" style="box-shadow: rgba(0, 0, 0, 0.4) 0px 3px 10px;"></circle><circle cx="46.28447533659362" cy="79.3054257476079" r="1" opacity="1" fill="rgb(243, 117, 74)" style="box-shadow: rgba(0, 0, 0, 0.4) 0px 3px 10px;"></circle><circle cx="46.31657972386728" cy="79.38995576733167" r="1" opacity="1" fill="rgb(242, 117, 74)" style="box-shadow: rgba(0, 0, 0, 0.4) 0px 3px 10px;"></circle><circle cx="46.34784051296584" cy="79.4722528735484" r="1" opacity="1" fill="rgb(242, 116, 74)" style="box-shadow: rgba(0, 0, 0, 0.4) 0px 3px 10px;"></circle><circle cx="46.37827954212861" cy="79.55237576339636" r="1" opacity="1" fill="rgb(242, 116, 73)" style="box-shadow: rgba(0, 0, 0, 0.4) 0px 3px 10px;"></circle><circle cx="46.40791810929084" cy="79.63038161273272" r="1" opacity="1" fill="rgb(242, 115, 73)" style="box-shadow: rgba(0, 0, 0, 0.4) 0px 3px 10px;"></circle><circle cx="46.43677698351828" cy="79.70632611390998" r="1" opacity="1" fill="rgb(242, 115, 73)" style="box-shadow: rgba(0, 0, 0, 0.4) 0px 3px 10px;"></circle><circle cx="46.464876416355935" cy="79.7802635127417" r="1" opacity="1" fill="rgb(241, 114, 72)" style="box-shadow: rgba(0, 0, 0, 0.4) 0px 3px 10px;"></circle><circle cx="46.4922361530771" cy="79.85224664466477" r="1" opacity="1" fill="rgb(241, 114, 72)" style="box-shadow: rgba(0, 0, 0, 0.4) 0px 3px 10px;"></circle><circle cx="46.51887544382001" cy="79.92232697010618" r="1" opacity="1" fill="rgb(241, 114, 72)" style="box-shadow: rgba(0, 0, 0, 0.4) 0px 3px 10px;"></circle><circle cx="46.54481305460098" cy="79.99055460906328" r="1" opacity="1" fill="rgb(241, 113, 72)" style="box-shadow: rgba(0, 0, 0, 0.4) 0px 3px 10px;"></circle><circle cx="46.57006727819466" cy="80.0569783749065" r="1" opacity="1" fill="rgb(241, 113, 71)" style="box-shadow: rgba(0, 0, 0, 0.4) 0px 3px 10px;"></circle><circle cx="46.59465594487258" cy="80.1216458074156" r="1" opacity="1" fill="rgb(241, 112, 71)" style="box-shadow: rgba(0, 0, 0, 0.4) 0px 3px 10px;"></circle><circle cx="46.61859643299295" cy="80.18460320505898" r="1" opacity="1" fill="rgb(240, 112, 71)" style="box-shadow: rgba(0, 0, 0, 0.4) 0px 3px 10px;"></circle><circle cx="46.64190567943531" cy="80.24589565652788" r="1" opacity="1" fill="rgb(240, 111, 70)" style="box-shadow: rgba(0, 0, 0, 0.4) 0px 3px 10px;"></circle><circle cx="46.66460018987456" cy="80.30556707153684" r="1" opacity="1" fill="rgb(240, 111, 70)" style="box-shadow: rgba(0, 0, 0, 0.4) 0px 3px 10px;"></circle><circle cx="46.686696048890134" cy="80.36366021090183" r="1" opacity="1" fill="rgb(240, 110, 70)" style="box-shadow: rgba(0, 0, 0, 0.4) 0px 3px 10px;"></circle><circle cx="46.70820892990637" cy="80.42021671590851" r="1" opacity="1" fill="rgb(240, 110, 70)" style="box-shadow: rgba(0, 0, 0, 0.4) 0px 3px 10px;"></circle><circle cx="46.729154104961175" cy="80.47527713698273" r="1" opacity="1" fill="rgb(239, 109, 69)" style="box-shadow: rgba(0, 0, 0, 0.4) 0px 3px 10px;"></circle><circle cx="46.74954645430057" cy="80.52888096167553" r="1" opacity="1" fill="rgb(239, 109, 69)" style="box-shadow: rgba(0, 0, 0, 0.4) 0px 3px 10px;"></circle><circle cx="46.769400475797426" cy="80.58106664197572" r="1" opacity="1" fill="rgb(239, 108, 69)" style="box-shadow: rgba(0, 0, 0, 0.4) 0px 3px 10px;"></circle><circle cx="46.78873029419301" cy="80.63187162096193" r="1" opacity="1" fill="rgb(239, 108, 68)" style="box-shadow: rgba(0, 0, 0, 0.4) 0px 3px 10px;"></circle><circle cx="46.80754967016063" cy="80.6813323588076" r="1" opacity="1" fill="rgb(239, 108, 68)" style="box-shadow: rgba(0, 0, 0, 0.4) 0px 3px 10px;"></circle><circle cx="46.825872009191194" cy="80.72948435815108" r="1" opacity="1" fill="rgb(238, 107, 68)" style="box-shadow: rgba(0, 0, 0, 0.4) 0px 3px 10px;"></circle><circle cx="46.8437103703003" cy="80.77636218884392" r="1" opacity="1" fill="rgb(238, 107, 68)" style="box-shadow: rgba(0, 0, 0, 0.4) 0px 3px 10px;"></circle><circle cx="46.861077474557895" cy="80.82199951208979" r="1" opacity="1" fill="rgb(238, 106, 67)" style="box-shadow: rgba(0, 0, 0, 0.4) 0px 3px 10px;"></circle><circle cx="46.87798571344062" cy="80.86642910398689" r="1" opacity="1" fill="rgb(238, 106, 67)" style="box-shadow: rgba(0, 0, 0, 0.4) 0px 3px 10px;"></circle><circle cx="46.89444715700819" cy="80.90968287848631" r="1" opacity="1" fill="rgb(238, 105, 67)" style="box-shadow: rgba(0, 0, 0, 0.4) 0px 3px 10px;"></circle><circle cx="46.91047356190499" cy="80.95179190977879" r="1" opacity="1" fill="rgb(238, 105, 66)" style="box-shadow: rgba(0, 0, 0, 0.4) 0px 3px 10px;"></circle><circle cx="46.9260763791883" cy="80.9927864541225" r="1" opacity="1" fill="rgb(237, 104, 66)" style="box-shadow: rgba(0, 0, 0, 0.4) 0px 3px 10px;"></circle><circle cx="46.941266761984906" cy="81.03269597112357" r="1" opacity="1" fill="rgb(237, 104, 66)" style="box-shadow: rgba(0, 0, 0, 0.4) 0px 3px 10px;"></circle><circle cx="46.95605557297787" cy="81.07154914448229" r="1" opacity="1" fill="rgb(237, 103, 66)" style="box-shadow: rgba(0, 0, 0, 0.4) 0px 3px 10px;"></circle><circle cx="46.970453391725584" cy="81.10937390221619" r="1" opacity="1" fill="rgb(237, 103, 65)" style="box-shadow: rgba(0, 0, 0, 0.4) 0px 3px 10px;"></circle><circle cx="46.984470521815076" cy="81.14619743637225" r="1" opacity="1" fill="rgb(237, 102, 65)" style="box-shadow: rgba(0, 0, 0, 0.4) 0px 3px 10px;"></circle><circle cx="46.998116997851994" cy="81.18204622223996" r="1" opacity="1" fill="rgb(236, 102, 65)" style="box-shadow: rgba(0, 0, 0, 0.4) 0px 3px 10px;"></circle><circle cx="47.011402592289514" cy="81.21694603707643" r="1" opacity="1" fill="rgb(236, 101, 64)" style="box-shadow: rgba(0, 0, 0, 0.4) 0px 3px 10px;"></circle><circle cx="47.024336822098704" cy="81.25092197835508" r="1" opacity="1" fill="rgb(236, 101, 64)" style="box-shadow: rgba(0, 0, 0, 0.4) 0px 3px 10px;"></circle><circle cx="47.03692895528277" cy="81.28399848154918" r="1" opacity="1" fill="rgb(236, 101, 64)" style="box-shadow: rgba(0, 0, 0, 0.4) 0px 3px 10px;"></circle><circle cx="47.049188017237874" cy="81.31619933746076" r="1" opacity="1" fill="rgb(236, 100, 63)" style="box-shadow: rgba(0, 0, 0, 0.4) 0px 3px 10px;"></circle><circle cx="47.061122796962984" cy="81.34754770910627" r="1" opacity="1" fill="rgb(236, 100, 63)" style="box-shadow: rgba(0, 0, 0, 0.4) 0px 3px 10px;"></circle><circle cx="47.07274185312166" cy="81.378066148169" r="1" opacity="1" fill="rgb(235, 99, 63)" style="box-shadow: rgba(0, 0, 0, 0.4) 0px 3px 10px;"></circle><circle cx="47.084053519958225" cy="81.40777661102912" r="1" opacity="1" fill="rgb(235, 99, 63)" style="box-shadow: rgba(0, 0, 0, 0.4) 0px 3px 10px;"></circle><circle cx="47.095065913071224" cy="81.43670047438118" r="1" opacity="1" fill="rgb(235, 98, 62)" style="box-shadow: rgba(0, 0, 0, 0.4) 0px 3px 10px;"></circle><circle cx="47.10578693504678" cy="81.46485855044926" r="1" opacity="1" fill="rgb(235, 98, 62)" style="box-shadow: rgba(0, 0, 0, 0.4) 0px 3px 10px;"></circle><circle cx="47.11622428095467" cy="81.49227110180965" r="1" opacity="1" fill="rgb(235, 97, 62)" style="box-shadow: rgba(0, 0, 0, 0.4) 0px 3px 10px;"></circle><circle cx="47.12638544370988" cy="81.51895785583037" r="1" opacity="1" fill="rgb(234, 97, 61)" style="box-shadow: rgba(0, 0, 0, 0.4) 0px 3px 10px;"></circle><circle cx="47.136277719302136" cy="81.54493801873735" r="1" opacity="1" fill="rgb(234, 96, 61)" style="box-shadow: rgba(0, 0, 0, 0.4) 0px 3px 10px;"></circle><circle cx="47.145908211896575" cy="81.57023028931619" r="1" opacity="1" fill="rgb(234, 96, 61)" style="box-shadow: rgba(0, 0, 0, 0.4) 0px 3px 10px;"></circle><circle cx="47.15528383880777" cy="81.59485287225849" r="1" opacity="1" fill="rgb(234, 95, 61)" style="box-shadow: rgba(0, 0, 0, 0.4) 0px 3px 10px;"></circle><circle cx="47.16441133535023" cy="81.61882349116203" r="1" opacity="1" fill="rgb(234, 95, 60)" style="box-shadow: rgba(0, 0, 0, 0.4) 0px 3px 10px;"></circle><circle cx="47.17329725956775" cy="81.64215940119291" r="1" opacity="1" fill="rgb(234, 95, 60)" style="box-shadow: rgba(0, 0, 0, 0.4) 0px 3px 10px;"></circle><circle cx="47.181947996844364" cy="81.66487740141831" r="1" opacity="1" fill="rgb(233, 94, 60)" style="box-shadow: rgba(0, 0, 0, 0.4) 0px 3px 10px;"></circle><circle cx="47.19036976439965" cy="81.68699384681832" r="1" opacity="1" fill="rgb(233, 94, 59)" style="box-shadow: rgba(0, 0, 0, 0.4) 0px 3px 10px;"></circle><circle cx="47.198568615670595" cy="81.70852465998472" r="1" opacity="1" fill="rgb(233, 93, 59)" style="box-shadow: rgba(0, 0, 0, 0.4) 0px 3px 10px;"></circle><circle cx="47.20655044458311" cy="81.7294853425145" r="1" opacity="1" fill="rgb(233, 93, 59)" style="box-shadow: rgba(0, 0, 0, 0.4) 0px 3px 10px;"></circle><circle cx="47.214320989715205" cy="81.74989098610627" r="1" opacity="1" fill="rgb(233, 92, 59)" style="box-shadow: rgba(0, 0, 0, 0.4) 0px 3px 10px;"></circle><circle cx="47.22188583835466" cy="81.76975628336666" r="1" opacity="1" fill="rgb(232, 92, 58)" style="box-shadow: rgba(0, 0, 0, 0.4) 0px 3px 10px;"></circle><circle cx="47.229250430453455" cy="81.78909553833427" r="1" opacity="1" fill="rgb(232, 91, 58)" style="box-shadow: rgba(0, 0, 0, 0.4) 0px 3px 10px;"></circle><circle cx="47.23642006248148" cy="81.80792267672845" r="1" opacity="1" fill="rgb(232, 91, 58)" style="box-shadow: rgba(0, 0, 0, 0.4) 0px 3px 10px;"></circle><circle cx="47.24339989118172" cy="81.82625125592975" r="1" opacity="1" fill="rgb(232, 90, 57)" style="box-shadow: rgba(0, 0, 0, 0.4) 0px 3px 10px;"></circle><circle cx="47.25019493722958" cy="81.84409447469906" r="1" opacity="1" fill="rgb(232, 90, 57)" style="box-shadow: rgba(0, 0, 0, 0.4) 0px 3px 10px;"></circle><circle cx="47.2568100887982" cy="81.86146518264205" r="1" opacity="1" fill="rgb(231, 89, 57)" style="box-shadow: rgba(0, 0, 0, 0.4) 0px 3px 10px;"></circle><circle cx="47.263250105032355" cy="81.87837588942546" r="1" opacity="1" fill="rgb(231, 89, 57)" style="box-shadow: rgba(0, 0, 0, 0.4) 0px 3px 10px;"></circle><circle cx="47.26951961943303" cy="81.89483877375167" r="1" opacity="1" fill="rgb(231, 88, 56)" style="box-shadow: rgba(0, 0, 0, 0.4) 0px 3px 10px;"></circle><circle cx="47.27562314315478" cy="81.91086569209776" r="1" opacity="1" fill="rgb(231, 88, 56)" style="box-shadow: rgba(0, 0, 0, 0.4) 0px 3px 10px;"></circle><circle cx="47.281565068218036" cy="81.92646818722503" r="1" opacity="1" fill="rgb(231, 88, 56)" style="box-shadow: rgba(0, 0, 0, 0.4) 0px 3px 10px;"></circle><circle cx="47.28734967063853" cy="81.94165749646514" r="1" opacity="1" fill="rgb(231, 87, 55)" style="box-shadow: rgba(0, 0, 0, 0.4) 0px 3px 10px;"></circle><circle cx="47.2929811134757" cy="81.95644455978831" r="1" opacity="1" fill="rgb(230, 87, 55)" style="box-shadow: rgba(0, 0, 0, 0.4) 0px 3px 10px;"></circle><circle cx="47.298463449802206" cy="81.97084002765958" r="1" opacity="1" fill="rgb(230, 86, 55)" style="box-shadow: rgba(0, 0, 0, 0.4) 0px 3px 10px;"></circle><circle cx="47.30380062559646" cy="81.9848542686884" r="1" opacity="1" fill="rgb(230, 86, 54)" style="box-shadow: rgba(0, 0, 0, 0.4) 0px 3px 10px;"></circle><circle cx="47.30899648256009" cy="81.99849737707697" r="1" opacity="1" fill="rgb(230, 85, 54)" style="box-shadow: rgba(0, 0, 0, 0.4) 0px 3px 10px;"></circle><circle cx="47.314054760862234" cy="82.01177917987252" r="1" opacity="1" fill="rgb(230, 85, 54)" style="box-shadow: rgba(0, 0, 0, 0.4) 0px 3px 10px;"></circle><circle cx="47.31897910181244" cy="82.02470924402877" r="1" opacity="1" fill="rgb(229, 84, 54)" style="box-shadow: rgba(0, 0, 0, 0.4) 0px 3px 10px;"></circle><circle cx="47.323773050464" cy="82.03729688328136" r="1" opacity="1" fill="rgb(229, 84, 53)" style="box-shadow: rgba(0, 0, 0, 0.4) 0px 3px 10px;"></circle><circle cx="47.32844005814948" cy="82.0495511648421" r="1" opacity="1" fill="rgb(229, 83, 53)" style="box-shadow: rgba(0, 0, 0, 0.4) 0px 3px 10px;"></circle><circle cx="47.332983484950105" cy="82.06148091591709" r="1" opacity="1" fill="rgb(229, 83, 53)" style="box-shadow: rgba(0, 0, 0, 0.4) 0px 3px 10px;"></circle><circle cx="47.33740660210078" cy="82.07309473005276" r="1" opacity="1" fill="rgb(229, 82, 52)" style="box-shadow: rgba(0, 0, 0, 0.4) 0px 3px 10px;"></circle><circle cx="47.34171259433217" cy="82.08440097331473" r="1" opacity="1" fill="rgb(229, 82, 52)" style="box-shadow: rgba(0, 0, 0, 0.4) 0px 3px 10px;"></circle><circle cx="47.34590456215177" cy="82.0954077903039" r="1" opacity="1" fill="rgb(228, 81, 52)" style="box-shadow: rgba(0, 0, 0, 0.4) 0px 3px 10px;"></circle><circle cx="47.349985524065104" cy="82.10612311001353" r="1" opacity="1" fill="rgb(228, 81, 52)" style="box-shadow: rgba(0, 0, 0, 0.4) 0px 3px 10px;"></circle><circle cx="47.353958418738976" cy="82.11655465153217" r="1" opacity="1" fill="rgb(228, 81, 51)" style="box-shadow: rgba(0, 0, 0, 0.4) 0px 3px 10px;"></circle><circle cx="47.35782610710797" cy="82.1267099295959" r="1" opacity="1" fill="rgb(228, 80, 51)" style="box-shadow: rgba(0, 0, 0, 0.4) 0px 3px 10px;"></circle><circle cx="47.36159137442586" cy="82.13659625999404" r="1" opacity="1" fill="rgb(228, 80, 51)" style="box-shadow: rgba(0, 0, 0, 0.4) 0px 3px 10px;"></circle><circle cx="47.36525693226311" cy="82.14622076483239" r="1" opacity="1" fill="rgb(227, 79, 50)" style="box-shadow: rgba(0, 0, 0, 0.4) 0px 3px 10px;"></circle><circle cx="47.36882542045211" cy="82.15559037765725" r="1" opacity="1" fill="rgb(227, 79, 50)" style="box-shadow: rgba(0, 0, 0, 0.4) 0px 3px 10px;"></circle><circle cx="47.372299408981306" cy="82.1647118484443" r="1" opacity="1" fill="rgb(227, 78, 50)" style="box-shadow: rgba(0, 0, 0, 0.4) 0px 3px 10px;"></circle><circle cx="47.37568139983961" cy="82.17359174845575" r="1" opacity="1" fill="rgb(227, 78, 50)" style="box-shadow: rgba(0, 0, 0, 0.4) 0px 3px 10px;"></circle><circle cx="47.37897382881241" cy="82.18223647496916" r="1" opacity="1" fill="rgb(227, 77, 49)" style="box-shadow: rgba(0, 0, 0, 0.4) 0px 3px 10px;"></circle><circle cx="47.382179067230304" cy="82.19065225588128" r="1" opacity="1" fill="rgb(226, 77, 49)" style="box-shadow: rgba(0, 0, 0, 0.4) 0px 3px 10px;"></circle><circle cx="47.38529942367195" cy="82.19884515419042" r="1" opacity="1" fill="rgb(226, 76, 49)" style="box-shadow: rgba(0, 0, 0, 0.4) 0px 3px 10px;"></circle><circle cx="47.38833714562209" cy="82.20682107236027" r="1" opacity="1" fill="rgb(226, 76, 48)" style="box-shadow: rgba(0, 0, 0, 0.4) 0px 3px 10px;"></circle><circle cx="47.39129442108596" cy="82.21458575656843" r="1" opacity="1" fill="rgb(226, 75, 48)" style="box-shadow: rgba(0, 0, 0, 0.4) 0px 3px 10px;"></circle><circle cx="47.394173380161284" cy="82.22214480084261" r="1" opacity="1" fill="rgb(226, 75, 48)" style="box-shadow: rgba(0, 0, 0, 0.4) 0px 3px 10px;"></circle><circle cx="47.39697609656875" cy="82.2295036510877" r="1" opacity="1" fill="rgb(226, 75, 48)" style="box-shadow: rgba(0, 0, 0, 0.4) 0px 3px 10px;"></circle><circle cx="47.39970458914233" cy="82.2366676090061" r="1" opacity="1" fill="rgb(225, 74, 47)" style="box-shadow: rgba(0, 0, 0, 0.4) 0px 3px 10px;"></circle><circle cx="47.40236082328027" cy="82.24364183591466" r="1" opacity="1" fill="rgb(225, 74, 47)" style="box-shadow: rgba(0, 0, 0, 0.4) 0px 3px 10px;"></circle><circle cx="47.404946712357855" cy="82.25043135646052" r="1" opacity="1" fill="rgb(225, 73, 47)" style="box-shadow: rgba(0, 0, 0, 0.4) 0px 3px 10px;"></circle><circle cx="47.40746411910296" cy="82.25704106223888" r="1" opacity="1" fill="rgb(225, 73, 46)" style="box-shadow: rgba(0, 0, 0, 0.4) 0px 3px 10px;"></circle><circle cx="47.40991485693535" cy="82.26347571531494" r="1" opacity="1" fill="rgb(225, 72, 46)" style="box-shadow: rgba(0, 0, 0, 0.4) 0px 3px 10px;"></circle><circle cx="47.41230069127064" cy="82.26973995165274" r="1" opacity="1" fill="rgb(224, 72, 46)" style="box-shadow: rgba(0, 0, 0, 0.4) 0px 3px 10px;"></circle><circle cx="47.414623340789845" cy="82.27583828445347" r="1" opacity="1" fill="rgb(224, 71, 46)" style="box-shadow: rgba(0, 0, 0, 0.4) 0px 3px 10px;"></circle><circle cx="47.41688447867556" cy="82.28177510740521" r="1" opacity="1" fill="rgb(224, 71, 45)" style="box-shadow: rgba(0, 0, 0, 0.4) 0px 3px 10px;"></circle><circle cx="47.41908573381535" cy="82.28755469784697" r="1" opacity="1" fill="rgb(224, 70, 45)" style="box-shadow: rgba(0, 0, 0, 0.4) 0px 3px 10px;"></circle><circle cx="47.42122869197353" cy="82.29318121984886" r="1" opacity="1" fill="rgb(224, 70, 45)" style="box-shadow: rgba(0, 0, 0, 0.4) 0px 3px 10px;"></circle><circle cx="47.42331489693195" cy="82.29865872721086" r="1" opacity="1" fill="rgb(224, 69, 44)" style="box-shadow: rgba(0, 0, 0, 0.4) 0px 3px 10px;"></circle><circle cx="47.42534585160066" cy="82.30399116638225" r="1" opacity="1" fill="rgb(223, 69, 44)" style="box-shadow: rgba(0, 0, 0, 0.4) 0px 3px 10px;"></circle><circle cx="47.42732301909929" cy="82.30918237930373" r="1" opacity="1" fill="rgb(223, 68, 44)" style="box-shadow: rgba(0, 0, 0, 0.4) 0px 3px 10px;"></circle><circle cx="47.42924782380987" cy="82.31423610617445" r="1" opacity="1" fill="rgb(223, 68, 43)" style="box-shadow: rgba(0, 0, 0, 0.4) 0px 3px 10px;"></circle><circle cx="47.431121652401764" cy="82.31915598814575" r="1" opacity="1" fill="rgb(223, 68, 43)" style="box-shadow: rgba(0, 0, 0, 0.4) 0px 3px 10px;"></circle><circle cx="47.432945854829676" cy="82.32394556994363" r="1" opacity="1" fill="rgb(223, 67, 43)" style="box-shadow: rgba(0, 0, 0, 0.4) 0px 3px 10px;"></circle><circle cx="47.434721745305126" cy="82.32860830242184" r="1" opacity="1" fill="rgb(222, 67, 43)" style="box-shadow: rgba(0, 0, 0, 0.4) 0px 3px 10px;"></circle><circle cx="47.43645060324242" cy="82.33314754504738" r="1" opacity="1" fill="rgb(222, 66, 42)" style="box-shadow: rgba(0, 0, 0, 0.4) 0px 3px 10px;"></circle><circle cx="47.43813367417951" cy="82.33756656832028" r="1" opacity="1" fill="rgb(222, 66, 42)" style="box-shadow: rgba(0, 0, 0, 0.4) 0px 3px 10px;"></circle><circle cx="47.43977217067453" cy="82.34186855612924" r="1" opacity="1" fill="rgb(222, 65, 42)" style="box-shadow: rgba(0, 0, 0, 0.4) 0px 3px 10px;"></circle><circle cx="47.4413672731787" cy="82.34605660804505" r="1" opacity="1" fill="rgb(222, 65, 41)" style="box-shadow: rgba(0, 0, 0, 0.4) 0px 3px 10px;"></circle><circle cx="47.44292013088608" cy="82.35013374155318" r="1" opacity="1" fill="rgb(221, 64, 41)" style="box-shadow: rgba(0, 0, 0, 0.4) 0px 3px 10px;"></circle><circle cx="47.44443186256096" cy="82.3541028942274" r="1" opacity="1" fill="rgb(221, 64, 41)" style="box-shadow: rgba(0, 0, 0, 0.4) 0px 3px 10px;"></circle><circle cx="47.44590355734323" cy="82.35796692584574" r="1" opacity="1" fill="rgb(221, 63, 41)" style="box-shadow: rgba(0, 0, 0, 0.4) 0px 3px 10px;"></circle><circle cx="47.44733627553259" cy="82.36172862045055" r="1" opacity="1" fill="rgb(221, 63, 40)" style="box-shadow: rgba(0, 0, 0, 0.4) 0px 3px 10px;"></circle><circle cx="47.44873104935194" cy="82.36539068835398" r="1" opacity="1" fill="rgb(221, 62, 40)" style="box-shadow: rgba(0, 0, 0, 0.4) 0px 3px 10px;"></circle><circle cx="47.45008888369067" cy="82.36895576809036" r="1" opacity="1" fill="rgb(221, 62, 40)" style="box-shadow: rgba(0, 0, 0, 0.4) 0px 3px 10px;"></circle><circle cx="47.45141075682813" cy="82.37242642831693" r="1" opacity="1" fill="rgb(220, 61, 39)" style="box-shadow: rgba(0, 0, 0, 0.4) 0px 3px 10px;"></circle><circle cx="47.45269762113819" cy="82.3758051696642" r="1" opacity="1" fill="rgb(220, 61, 39)" style="box-shadow: rgba(0, 0, 0, 0.4) 0px 3px 10px;"></circle><circle cx="47.45395040377497" cy="82.37909442653742" r="1" opacity="1" fill="rgb(220, 61, 39)" style="box-shadow: rgba(0, 0, 0, 0.4) 0px 3px 10px;"></circle><circle cx="47.45517000734052" cy="82.38229656887023" r="1" opacity="1" fill="rgb(220, 60, 39)" style="box-shadow: rgba(0, 0, 0, 0.4) 0px 3px 10px;"></circle><circle cx="47.456357310534834" cy="82.38541390383203" r="1" opacity="1" fill="rgb(220, 60, 38)" style="box-shadow: rgba(0, 0, 0, 0.4) 0px 3px 10px;"></circle><circle cx="47.457513168788644" cy="82.38844867748999" r="1" opacity="1" fill="rgb(219, 59, 38)" style="box-shadow: rgba(0, 0, 0, 0.4) 0px 3px 10px;"></circle><circle cx="47.45863841487951" cy="82.39140307642717" r="1" opacity="1" fill="rgb(219, 59, 38)" style="box-shadow: rgba(0, 0, 0, 0.4) 0px 3px 10px;"></circle><circle cx="47.45973385953151" cy="82.39427922931777" r="1" opacity="1" fill="rgb(219, 58, 37)" style="box-shadow: rgba(0, 0, 0, 0.4) 0px 3px 10px;"></circle><circle cx="47.460800291999256" cy="82.39707920846068" r="1" opacity="1" fill="rgb(219, 58, 37)" style="box-shadow: rgba(0, 0, 0, 0.4) 0px 3px 10px;"></circle><circle cx="47.46183848063623" cy="82.39980503127238" r="1" opacity="1" fill="rgb(219, 57, 37)" style="box-shadow: rgba(0, 0, 0, 0.4) 0px 3px 10px;"></circle><circle cx="47.462849173448234" cy="82.40245866174035" r="1" opacity="1" fill="rgb(219, 57, 37)" style="box-shadow: rgba(0, 0, 0, 0.4) 0px 3px 10px;"></circle><circle cx="47.46383309863215" cy="82.40504201183808" r="1" opacity="1" fill="rgb(218, 56, 36)" style="box-shadow: rgba(0, 0, 0, 0.4) 0px 3px 10px;"></circle><circle cx="47.4647909651004" cy="82.40755694290232" r="1" opacity="1" fill="rgb(218, 56, 36)" style="box-shadow: rgba(0, 0, 0, 0.4) 0px 3px 10px;"></circle><circle cx="47.46572346299162" cy="82.41000526697435" r="1" opacity="1" fill="rgb(218, 55, 36)" style="box-shadow: rgba(0, 0, 0, 0.4) 0px 3px 10px;"></circle><circle cx="47.466631264167745" cy="82.41238874810523" r="1" opacity="1" fill="rgb(218, 55, 35)" style="box-shadow: rgba(0, 0, 0, 0.4) 0px 3px 10px;"></circle><circle cx="47.46751502269791" cy="82.4147091036268" r="1" opacity="1" fill="rgb(218, 55, 35)" style="box-shadow: rgba(0, 0, 0, 0.4) 0px 3px 10px;"></circle><circle cx="47.468375375329664" cy="82.41696800538898" r="1" opacity="1" fill="rgb(217, 54, 35)" style="box-shadow: rgba(0, 0, 0, 0.4) 0px 3px 10px;"></circle><circle cx="47.469212941947596" cy="82.41916708096414" r="1" opacity="1" fill="rgb(217, 54, 34)" style="box-shadow: rgba(0, 0, 0, 0.4) 0px 3px 10px;"></circle><circle cx="47.470028326019836" cy="82.42130791481986" r="1" opacity="1" fill="rgb(217, 53, 34)" style="box-shadow: rgba(0, 0, 0, 0.4) 0px 3px 10px;"></circle><circle cx="47.4708221150328" cy="82.42339204946038" r="1" opacity="1" fill="rgb(217, 53, 34)" style="box-shadow: rgba(0, 0, 0, 0.4) 0px 3px 10px;"></circle><circle cx="47.47159488091442" cy="82.42542098653793" r="1" opacity="1" fill="rgb(217, 52, 34)" style="box-shadow: rgba(0, 0, 0, 0.4) 0px 3px 10px;"></circle><circle cx="47.472347180446036" cy="82.42739618793465" r="1" opacity="1" fill="rgb(216, 52, 33)" style="box-shadow: rgba(0, 0, 0, 0.4) 0px 3px 10px;"></circle><circle cx="47.473079555663595" cy="82.4293190768158" r="1" opacity="1" fill="rgb(216, 51, 33)" style="box-shadow: rgba(0, 0, 0, 0.4) 0px 3px 10px;"></circle><circle cx="47.47379253424808" cy="82.43119103865523" r="1" opacity="1" fill="rgb(216, 51, 33)" style="box-shadow: rgba(0, 0, 0, 0.4) 0px 3px 10px;"></circle><circle cx="47.47448662990563" cy="82.4330134222334" r="1" opacity="1" fill="rgb(216, 50, 32)" style="box-shadow: rgba(0, 0, 0, 0.4) 0px 3px 10px;"></circle><circle cx="47.47516234273759" cy="82.43478754060928" r="1" opacity="1" fill="rgb(216, 50, 32)" style="box-shadow: rgba(0, 0, 0, 0.4) 0px 3px 10px;"></circle><circle cx="47.4758201596009" cy="82.43651467206637" r="1" opacity="1" fill="rgb(216, 49, 32)" style="box-shadow: rgba(0, 0, 0, 0.4) 0px 3px 10px;"></circle><circle cx="47.47646055445867" cy="82.43819606103361" r="1" opacity="1" fill="rgb(215, 49, 32)" style="box-shadow: rgba(0, 0, 0, 0.4) 0px 3px 10px;"></circle><circle cx="47.47708398872173" cy="82.43983291898205" r="1" opacity="1" fill="rgb(215, 48, 31)" style="box-shadow: rgba(0, 0, 0, 0.4) 0px 3px 10px;"></circle><circle cx="47.477690911581064" cy="82.44142642529769" r="1" opacity="1" fill="rgb(215, 48, 31)" style="box-shadow: rgba(0, 0, 0, 0.4) 0px 3px 10px;"></circle></g></svg>