<svg xmlns="http://www.w3.org/2000/svg" xmlns:xlink="http://www.w3.org/1999/xlink" style="position: absolute; left: 0px; width: 95px; height: 165px; border-radius: 5px;"><g class="grid" transform="translate(0,82.5)" opacity="0.2" fill="none" font-size="10" font-family="sans-serif" text-anchor="middle"><path class="domain" stroke="#000" d="M0.5,0V0.5H620.5V0"></path></g><g class="grid" transform="translate(47.5,0)" opacity="0.2" fill="none" font-size="10" font-family="sans-serif" text-anchor="end"><path class="domain" stroke="#000" d="M0,35.5H0.5V130.5H0"></path></g><path opacity="1" d="M34.199999999999996,38.8L35.28528,39.67248L36.266917888,40.474843008L37.154885220044804,41.213779777996805L37.9581938647971,41.895337359082724L38.68498836752825,42.52498104711643L39.34262942463928,43.1076503739279L39.937769324269354,43.647809707908664L40.4764201262067,44.149493984608185L40.96401527989983,44.61635003604391L41.4054653121117,45.05167394232165L41.805208154977535,45.45844478839469L42.167254630294785,45.83935517194506L42.495229556228196,46.19683877507161L42.79240889774579,46.533095282375484L43.06175334155251,46.85011290083602L43.30593863964194,47.149688712290164L43.52738303246657,47.433447067113974L43.72827203279575,47.70285620762857L43.910580824278895,47.95924329160865L44.07609450428401,48.20380796987408L44.22642637848691,48.43763465712501L44.36303449471812,48.661703621788L44.487236585528315,48.87690100853598L44.600223572623285,49.08402789620575L44.70307177157971,49.283808483950054L44.79675392193186,49.47689748952635L44.882149155680025,49.66388683554921L44.960052006391095,49.845311692235555L45.0311805512285,50.02165593857638L45.09618376936168,50.19335709790769L45.15564819217379,50.3608107984667L45.21010391342783,50.52437480465043L45.26003002099109,50.684372660293924L45.30585950578963,50.84109698130895L45.347983698305995,50.99481243142995L45.3867562780914,51.14575841156628L45.42249689738703,51.294151490324346L45.45549445599414,51.440187600610486L45.48601006095815,51.58404402482776L45.51427970140137,51.72588118901338L45.540516665919704,51.86584428430483L45.56491372731985,52.004064732353406L45.58764511708904,52.14066150970419L45.608868309834484,52.27574234471601L45.628725635981446,52.409404799288765L45.647345739259315,52.54173724648453L45.66484489391369,52.67281975406212L45.68132819514508,52.80272488298033L45.69689063497526,52.931518409053524L45.71161807456843,53.05925997515578L45.725588122972454,53.18600368065775L45.7388709312869,53.31179861413726L45.75152991039738,53.43668933482316L45.76362237963265,53.56071630770654L45.77520015299254,53.683916296778506L45.786310068955245,53.80632272042455L45.7969944692941,53.927965972617834L45.807291631811346,54.04887371320274L45.81723616142414,54.169071130243864L45.826859343611105,54.28858117712879L45.836189463841905,54.40742478685437L45.845252096264105,54.52562106569265L45.85407036460557,54.64318746822083L45.86266517796705,54.76013995550889L45.87105544392119,54.87649313808595L45.87925826110236,54.99226040515006L45.88728909326096,55.10745404134572L45.8951619265664,55.222085332305255L45.90288941177068,55.33616466003592L45.91048299268981,55.4497015891295L45.91795302231995,55.56270494467808L45.925308867778156,55.67518288269393L45.93255900514342,55.78714295375511L45.93971110517011,55.89859216052868L45.94677211075206,56.00953700976067L45.953748306931516,56.11998355926556L45.96064538417024,56.22993746039626L45.96746849553145,56.33940399642973L45.9742223083583,56.448388117261274L45.98091105097914,56.55689447076277L45.98753855491749,56.664927431125804L45.99410829304005,56.772491124480084L46.000623414033136,56.879589452049146L46.0070867735613,56.986226111080484L46.013500962427216,57.09240461376425L46.01986833202158,57.19812830433415L46.02619101732369,57.30340037452531L46.03247095768866,57.40822387754755L46.038709915634065,57.51260174071655L46.04490949381867,57.61653677687235L46.05107115038729,57.72003169470183L46.05719621283888,57.82308910807048L46.0632858905602,57.925711544459034L46.06934128615314,58.02790145259095L46.075363405672334,58.129661209328646L46.08135316787735,58.23099312590884L46.08731141259471,58.33189945358065L46.09323890827528,58.43238238870384L46.0991363588245,58.53244407735923L46.10500440977526,58.63208661951814L46.110843653867036,58.73131207281335L46.116654636088086,58.83012245594992L46.1224378582326,58.928519751790446L46.12819378301937,59.02650591014621L46.13392283781425,59.12408285030234L46.139625417994516,59.221252463302726L46.14530188998956,59.31801661401776L46.1509525940291,59.41437714301567L46.15657784662707,59.5103358682566L46.16217794282661,59.605894586626135L46.167753158229054,59.70105507532406L46.17330375082796,59.79581909312206L46.17882996266665,59.89018838150301L46.1843320213364,59.98416466569327L46.18981014133064,60.077749655598225L46.19526452526893,60.170945046650445L46.20069536500328,60.26375252057878L46.20610284261819,60.35617374610605L46.21148713133457,60.44821037958215L46.216848396326775,60.53986406555881L46.22218679546122,60.63113643731158L46.22750247996405,60.72202911731415L46.2327955950246,60.81254371766954L46.23806628034109,60.90268184050232L46.24331467061379,60.99244507831561L46.24854089599098,61.08183501431626L46.25374508247205,61.170853222711116L46.25892735227203,61.2595012689774L46.264087824151105,61.34778071010946L46.269226613712604,61.435693094844275L46.274343833672475,61.52323996386767L46.27943959410288,61.610422850003175L46.284514002652614,61.69724327838514L46.28956716474631,61.783702766617544L46.29459918376473,61.86980282492006L46.299610161207816,61.95554495626236L46.3046001968421,62.04093065648792L46.30956938883422,62.12596141442834L46.31451783387159,62.21063871200894L46.31944562727169,62.294964024346676L46.32435286308086,62.3789388198409L46.32923963416389,62.46256456025776L46.33410603228494,62.54584270080884L46.33895214818097,62.62877469022448L46.34377807162814,62.711361970822466L46.34858389150193,62.793605978572344L46.35336969583174,62.875508143155784L46.35813557185024,62.957069888023625L46.36288160603815,63.038292630449476L46.36760788416485,63.119177781580554L46.37231449132521,63.199726746485894L46.37700151197302,63.27994092420211L46.38166902995124,63.35982170777702L46.38631712851968,63.439370484311326L46.39094589037985,63.51858863499849L46.39555539769786,63.59747753516292L46.40014573212498,63.67603855429685L46.404716974816544,63.75427305609567L46.40926920644903,63.83218239849217L46.41380250723569,63.90976793368962L46.41831695694077,63.98703100819385L46.42281263489259,64.06397296284437L46.42728961999525,64.14059513284472L46.43174799073966,64.2168988477919L46.43618782521333,64.29288543170522L46.440609201109545,64.36855620305454L46.44501219573569,64.44391247478771L46.44939688602094,64.51895555435763L46.453763348523246,64.59368674374883L46.458111659435914,64.66810733950341L46.46244189459354,64.74221863274673L46.46675412947757,64.81602190921262L46.471048439221406,64.88951844926824L46.47532489861516,64.96270952793859L46.4795835821101,65.03559641493071L46.4838245638227,65.10818037465766L46.48804791753852,65.18046266626206L46.49225371671573,65.25244454363951L46.49644203448854,65.32412725546175L46.50061294367027,65.39551204519958L46.50476651675637,65.46660015114556L46.508902825927144,65.53739280643647L46.513021943050475,65.60789123907573L46.517123939684254,65.67809667195543L46.52120888707877,65.74801032287837L46.52527685617901,65.81763340457987L46.52932791762676,65.88696712474939L46.53336214176268,65.95601268605205L46.53737959862831,66.02477128615003L46.54138035796791,66.09324411772376L46.54536448923038,66.16143236849301L46.5493320615709,66.22933722123796L46.55328314385274,66.2969598538199L46.557217804648865,66.36430143920212L46.5611361122435,66.43136314547044L46.56503813463379,66.49814613585374L46.56892393953119,66.56465156874437L46.57279359436304,66.63088059771844L46.57664716627396,66.69683437155602L46.580484722127274,66.76251403426122L46.58430632850641,66.82792072508218L46.58811205171623,66.89305557853103L46.59190195778438,66.95791972440357L46.595676112462606,67.0225142877991L46.599434581228024,67.08684038913995L46.60317742928439,67.15089914419107L46.60690472156343,67.2146916640794L46.610616522725934,67.27821905531326L46.614312897163096,67.34148241980161L46.617993908997676,67.4044828548732L46.6216596220852,67.46722145329568L46.62531010001513,67.5296993032946L46.62894540611207,67.5919174885723L46.63256560343686,67.65387708832682L46.636170754787805,67.71557917727056L46.63976092270174,67.777024825649L46.643336169455196,67.83821509925934L46.64689655706554,67.89915105946895L46.650442147292004,67.9598337632338L46.65397300163691,68.02026426311687L46.65748918134668,68.08044360730639L46.660990747412924,68.14037283963405L46.66447776057358,68.20005299959308L46.66795028131395,68.25948512235638L46.67140836986775,68.31867023879438L46.674852086218216,68.37760937549308L46.67828149009916,68.43630355477171L46.68169664099596,68.49475379470059L46.68509759814669,68.55296110911867L46.68848442054309,68.6109265076513L46.691857166931634,68.66865099572762L46.69521589581454,68.726135574598L46.69856066545083,68.78338124135152L46.701891533857314,68.84038898893314L46.70520855880961,68.89715980616103L46.70851179784315,68.95369467774366L46.711801308254195,69.00999458429692L46.71507714710085,69.06606050236115L46.71833937120398,69.12189340441802L46.72158803714832,69.17749425890742L46.72482320128337,69.23286403024431L46.728044919724404,69.28800367883542L46.73125324835344,69.3429141610959L46.734448242820235,69.39759642946589L46.737629958543216,69.45205143242708L46.74079845071049,69.5062801145192L46.74395377428075,69.56028341635628L46.74709598398427,69.61406227464312L46.75022513432384,69.66761762219141L46.75334127957573,69.720950387936" style="fill: none; stroke: rgb(252, 141, 89); stroke-width: 0.5; stroke-linecap: round;"></path><g><circle cx="34.199999999999996" cy="38.8" r="1" opacity="1" fill="rgb(254, 240, 217)" style="box-shadow: rgba(0, 0, 0, 0.4) 0px 3px 10px;"></circle><circle cx="35.28528" cy="39.67248" r="1" opacity="1" fill="rgb(254, 236, 209)" style="box-shadow: rgba(0, 0, 0, 0.4) 0px 3px 10px;"></circle><circle cx="36.266917888" cy="40.474843008" r="1" opacity="1" fill="rgb(254, 233, 201)" style="box-shadow: rgba(0, 0, 0, 0.4) 0px 3px 10px;"></circle><circle cx="37.154885220044804" cy="41.213779777996805" r="1" opacity="1" fill="rgb(254, 229, 193)" style="box-shadow: rgba(0, 0, 0, 0.4) 0px 3px 10px;"></circle><circle cx="37.9581938647971" cy="41.895337359082724" r="1" opacity="1" fill="rgb(254, 226, 185)" style="box-shadow: rgba(0, 0, 0, 0.4) 0px 3px 10px;"></circle><circle cx="38.68498836752825" cy="42.52498104711643" r="1" opacity="1" fill="rgb(254, 222, 178)" style="box-shadow: rgba(0, 0, 0, 0.4) 0px 3px 10px;"></circle><circle cx="39.34262942463928" cy="43.1076503739279" r="1" opacity="1" fill="rgb(253, 218, 170)" style="box-shadow: rgba(0, 0, 0, 0.4) 0px 3px 10px;"></circle><circle cx="39.937769324269354" cy="43.647809707908664" r="1" opacity="1" fill="rgb(253, 215, 162)" style="box-shadow: rgba(0, 0, 0, 0.4) 0px 3px 10px;"></circle><circle cx="40.4764201262067" cy="44.149493984608185" r="1" opacity="1" fill="rgb(253, 211, 154)" style="box-shadow: rgba(0, 0, 0, 0.4) 0px 3px 10px;"></circle><circle cx="40.96401527989983" cy="44.61635003604391" r="1" opacity="1" fill="rgb(253, 208, 146)" style="box-shadow: rgba(0, 0, 0, 0.4) 0px 3px 10px;"></circle><circle cx="41.4054653121117" cy="45.05167394232165" r="1" opacity="1" fill="rgb(253, 204, 138)" style="box-shadow: rgba(0, 0, 0, 0.4) 0px 3px 10px;"></circle><circle cx="41.805208154977535" cy="45.45844478839469" r="1" opacity="1" fill="rgb(253, 202, 137)" style="box-shadow: rgba(0, 0, 0, 0.4) 0px 3px 10px;"></circle><circle cx="42.167254630294785" cy="45.83935517194506" r="1" opacity="1" fill="rgb(253, 201, 136)" style="box-shadow: rgba(0, 0, 0, 0.4) 0px 3px 10px;"></circle><circle cx="42.495229556228196" cy="46.19683877507161" r="1" opacity="1" fill="rgb(253, 199, 134)" style="box-shadow: rgba(0, 0, 0, 0.4) 0px 3px 10px;"></circle><circle cx="42.79240889774579" cy="46.533095282375484" r="1" opacity="1" fill="rgb(253, 198, 133)" style="box-shadow: rgba(0, 0, 0, 0.4) 0px 3px 10px;"></circle><circle cx="43.06175334155251" cy="46.85011290083602" r="1" opacity="1" fill="rgb(253, 196, 132)" style="box-shadow: rgba(0, 0, 0, 0.4) 0px 3px 10px;"></circle><circle cx="43.30593863964194" cy="47.149688712290164" r="1" opacity="1" fill="rgb(253, 195, 131)" style="box-shadow: rgba(0, 0, 0, 0.4) 0px 3px 10px;"></circle><circle cx="43.52738303246657" cy="47.433447067113974" r="1" opacity="1" fill="rgb(253, 193, 129)" style="box-shadow: rgba(0, 0, 0, 0.4) 0px 3px 10px;"></circle><circle cx="43.72827203279575" cy="47.70285620762857" r="1" opacity="1" fill="rgb(253, 191, 128)" style="box-shadow: rgba(0, 0, 0, 0.4) 0px 3px 10px;"></circle><circle cx="43.910580824278895" cy="47.95924329160865" r="1" opacity="1" fill="rgb(253, 190, 127)" style="box-shadow: rgba(0, 0, 0, 0.4) 0px 3px 10px;"></circle><circle cx="44.07609450428401" cy="48.20380796987408" r="1" opacity="1" fill="rgb(253, 188, 126)" style="box-shadow: rgba(0, 0, 0, 0.4) 0px 3px 10px;"></circle><circle cx="44.22642637848691" cy="48.43763465712501" r="1" opacity="1" fill="rgb(253, 187, 125)" style="box-shadow: rgba(0, 0, 0, 0.4) 0px 3px 10px;"></circle><circle cx="44.36303449471812" cy="48.661703621788" r="1" opacity="1" fill="rgb(253, 185, 123)" style="box-shadow: rgba(0, 0, 0, 0.4) 0px 3px 10px;"></circle><circle cx="44.487236585528315" cy="48.87690100853598" r="1" opacity="1" fill="rgb(253, 184, 122)" style="box-shadow: rgba(0, 0, 0, 0.4) 0px 3px 10px;"></circle><circle cx="44.600223572623285" cy="49.08402789620575" r="1" opacity="1" fill="rgb(253, 182, 121)" style="box-shadow: rgba(0, 0, 0, 0.4) 0px 3px 10px;"></circle><circle cx="44.70307177157971" cy="49.283808483950054" r="1" opacity="1" fill="rgb(253, 180, 120)" style="box-shadow: rgba(0, 0, 0, 0.4) 0px 3px 10px;"></circle><circle cx="44.79675392193186" cy="49.47689748952635" r="1" opacity="1" fill="rgb(253, 179, 118)" style="box-shadow: rgba(0, 0, 0, 0.4) 0px 3px 10px;"></circle><circle cx="44.882149155680025" cy="49.66388683554921" r="1" opacity="1" fill="rgb(253, 177, 117)" style="box-shadow: rgba(0, 0, 0, 0.4) 0px 3px 10px;"></circle><circle cx="44.960052006391095" cy="49.845311692235555" r="1" opacity="1" fill="rgb(253, 176, 116)" style="box-shadow: rgba(0, 0, 0, 0.4) 0px 3px 10px;"></circle><circle cx="45.0311805512285" cy="50.02165593857638" r="1" opacity="1" fill="rgb(253, 174, 115)" style="box-shadow: rgba(0, 0, 0, 0.4) 0px 3px 10px;"></circle><circle cx="45.09618376936168" cy="50.19335709790769" r="1" opacity="1" fill="rgb(253, 173, 114)" style="box-shadow: rgba(0, 0, 0, 0.4) 0px 3px 10px;"></circle><circle cx="45.15564819217379" cy="50.3608107984667" r="1" opacity="1" fill="rgb(252, 171, 112)" style="box-shadow: rgba(0, 0, 0, 0.4) 0px 3px 10px;"></circle><circle cx="45.21010391342783" cy="50.52437480465043" r="1" opacity="1" fill="rgb(252, 169, 111)" style="box-shadow: rgba(0, 0, 0, 0.4) 0px 3px 10px;"></circle><circle cx="45.26003002099109" cy="50.684372660293924" r="1" opacity="1" fill="rgb(252, 168, 110)" style="box-shadow: rgba(0, 0, 0, 0.4) 0px 3px 10px;"></circle><circle cx="45.30585950578963" cy="50.84109698130895" r="1" opacity="1" fill="rgb(252, 166, 109)" style="box-shadow: rgba(0, 0, 0, 0.4) 0px 3px 10px;"></circle><circle cx="45.347983698305995" cy="50.99481243142995" r="1" opacity="1" fill="rgb(252, 165, 107)" style="box-shadow: rgba(0, 0, 0, 0.4) 0px 3px 10px;"></circle><circle cx="45.3867562780914" cy="51.14575841156628" r="1" opacity="1" fill="rgb(252, 163, 106)" style="box-shadow: rgba(0, 0, 0, 0.4) 0px 3px 10px;"></circle><circle cx="45.42249689738703" cy="51.294151490324346" r="1" opacity="1" fill="rgb(252, 161, 105)" style="box-shadow: rgba(0, 0, 0, 0.4) 0px 3px 10px;"></circle><circle cx="45.45549445599414" cy="51.440187600610486" r="1" opacity="1" fill="rgb(252, 160, 104)" style="box-shadow: rgba(0, 0, 0, 0.4) 0px 3px 10px;"></circle><circle cx="45.48601006095815" cy="51.58404402482776" r="1" opacity="1" fill="rgb(252, 158, 102)" style="box-shadow: rgba(0, 0, 0, 0.4) 0px 3px 10px;"></circle><circle cx="45.51427970140137" cy="51.72588118901338" r="1" opacity="1" fill="rgb(252, 157, 101)" style="box-shadow: rgba(0, 0, 0, 0.4) 0px 3px 10px;"></circle><circle cx="45.540516665919704" cy="51.86584428430483" r="1" opacity="1" fill="rgb(252, 155, 100)" style="box-shadow: rgba(0, 0, 0, 0.4) 0px 3px 10px;"></circle><circle cx="45.56491372731985" cy="52.004064732353406" r="1" opacity="1" fill="rgb(252, 154, 99)" style="box-shadow: rgba(0, 0, 0, 0.4) 0px 3px 10px;"></circle><circle cx="45.58764511708904" cy="52.14066150970419" r="1" opacity="1" fill="rgb(252, 152, 98)" style="box-shadow: rgba(0, 0, 0, 0.4) 0px 3px 10px;"></circle><circle cx="45.608868309834484" cy="52.27574234471601" r="1" opacity="1" fill="rgb(252, 150, 96)" style="box-shadow: rgba(0, 0, 0, 0.4) 0px 3px 10px;"></circle><circle cx="45.628725635981446" cy="52.409404799288765" r="1" opacity="1" fill="rgb(252, 149, 95)" style="box-shadow: rgba(0, 0, 0, 0.4) 0px 3px 10px;"></circle><circle cx="45.647345739259315" cy="52.54173724648453" r="1" opacity="1" fill="rgb(252, 147, 94)" style="box-shadow: rgba(0, 0, 0, 0.4) 0px 3px 10px;"></circle><circle cx="45.66484489391369" cy="52.67281975406212" r="1" opacity="1" fill="rgb(252, 146, 93)" style="box-shadow: rgba(0, 0, 0, 0.4) 0px 3px 10px;"></circle><circle cx="45.68132819514508" cy="52.80272488298033" r="1" opacity="1" fill="rgb(252, 144, 91)" style="box-shadow: rgba(0, 0, 0, 0.4) 0px 3px 10px;"></circle><circle cx="45.69689063497526" cy="52.931518409053524" r="1" opacity="1" fill="rgb(252, 143, 90)" style="box-shadow: rgba(0, 0, 0, 0.4) 0px 3px 10px;"></circle><circle cx="45.71161807456843" cy="53.05925997515578" r="1" opacity="1" fill="rgb(252, 141, 89)" style="box-shadow: rgba(0, 0, 0, 0.4) 0px 3px 10px;"></circle><circle cx="45.725588122972454" cy="53.18600368065775" r="1" opacity="1" fill="rgb(252, 141, 89)" style="box-shadow: rgba(0, 0, 0, 0.4) 0px 3px 10px;"></circle><circle cx="45.7388709312869" cy="53.31179861413726" r="1" opacity="1" fill="rgb(252, 140, 88)" style="box-shadow: rgba(0, 0, 0, 0.4) 0px 3px 10px;"></circle><circle cx="45.75152991039738" cy="53.43668933482316" r="1" opacity="1" fill="rgb(251, 140, 88)" style="box-shadow: rgba(0, 0, 0, 0.4) 0px 3px 10px;"></circle><circle cx="45.76362237963265" cy="53.56071630770654" r="1" opacity="1" fill="rgb(251, 139, 88)" style="box-shadow: rgba(0, 0, 0, 0.4) 0px 3px 10px;"></circle><circle cx="45.77520015299254" cy="53.683916296778506" r="1" opacity="1" fill="rgb(251, 139, 88)" style="box-shadow: rgba(0, 0, 0, 0.4) 0px 3px 10px;"></circle><circle cx="45.786310068955245" cy="53.80632272042455" r="1" opacity="1" fill="rgb(251, 138, 87)" style="box-shadow: rgba(0, 0, 0, 0.4) 0px 3px 10px;"></circle><circle cx="45.7969944692941" cy="53.927965972617834" r="1" opacity="1" fill="rgb(251, 138, 87)" style="box-shadow: rgba(0, 0, 0, 0.4) 0px 3px 10px;"></circle><circle cx="45.807291631811346" cy="54.04887371320274" r="1" opacity="1" fill="rgb(251, 137, 87)" style="box-shadow: rgba(0, 0, 0, 0.4) 0px 3px 10px;"></circle><circle cx="45.81723616142414" cy="54.169071130243864" r="1" opacity="1" fill="rgb(250, 137, 86)" style="box-shadow: rgba(0, 0, 0, 0.4) 0px 3px 10px;"></circle><circle cx="45.826859343611105" cy="54.28858117712879" r="1" opacity="1" fill="rgb(250, 136, 86)" style="box-shadow: rgba(0, 0, 0, 0.4) 0px 3px 10px;"></circle><circle cx="45.836189463841905" cy="54.40742478685437" r="1" opacity="1" fill="rgb(250, 136, 86)" style="box-shadow: rgba(0, 0, 0, 0.4) 0px 3px 10px;"></circle><circle cx="45.845252096264105" cy="54.52562106569265" r="1" opacity="1" fill="rgb(250, 135, 86)" style="box-shadow: rgba(0, 0, 0, 0.4) 0px 3px 10px;"></circle><circle cx="45.85407036460557" cy="54.64318746822083" r="1" opacity="1" fill="rgb(250, 135, 85)" style="box-shadow: rgba(0, 0, 0, 0.4) 0px 3px 10px;"></circle><circle cx="45.86266517796705" cy="54.76013995550889" r="1" opacity="1" fill="rgb(249, 134, 85)" style="box-shadow: rgba(0, 0, 0, 0.4) 0px 3px 10px;"></circle><circle cx="45.87105544392119" cy="54.87649313808595" r="1" opacity="1" fill="rgb(249, 134, 85)" style="box-shadow: rgba(0, 0, 0, 0.4) 0px 3px 10px;"></circle><circle cx="45.87925826110236" cy="54.99226040515006" r="1" opacity="1" fill="rgb(249, 134, 84)" style="box-shadow: rgba(0, 0, 0, 0.4) 0px 3px 10px;"></circle><circle cx="45.88728909326096" cy="55.10745404134572" r="1" opacity="1" fill="rgb(249, 133, 84)" style="box-shadow: rgba(0, 0, 0, 0.4) 0px 3px 10px;"></circle><circle cx="45.8951619265664" cy="55.222085332305255" r="1" opacity="1" fill="rgb(249, 133, 84)" style="box-shadow: rgba(0, 0, 0, 0.4) 0px 3px 10px;"></circle><circle cx="45.90288941177068" cy="55.33616466003592" r="1" opacity="1" fill="rgb(248, 132, 83)" style="box-shadow: rgba(0, 0, 0, 0.4) 0px 3px 10px;"></circle><circle cx="45.91048299268981" cy="55.4497015891295" r="1" opacity="1" fill="rgb(248, 132, 83)" style="box-shadow: rgba(0, 0, 0, 0.4) 0px 3px 10px;"></circle><circle cx="45.91795302231995" cy="55.56270494467808" r="1" opacity="1" fill="rgb(248, 131, 83)" style="box-shadow: rgba(0, 0, 0, 0.4) 0px 3px 10px;"></circle><circle cx="45.925308867778156" cy="55.67518288269393" r="1" opacity="1" fill="rgb(248, 131, 83)" style="box-shadow: rgba(0, 0, 0, 0.4) 0px 3px 10px;"></circle><circle cx="45.93255900514342" cy="55.78714295375511" r="1" opacity="1" fill="rgb(248, 130, 82)" style="box-shadow: rgba(0, 0, 0, 0.4) 0px 3px 10px;"></circle><circle cx="45.93971110517011" cy="55.89859216052868" r="1" opacity="1" fill="rgb(248, 130, 82)" style="box-shadow: rgba(0, 0, 0, 0.4) 0px 3px 10px;"></circle><circle cx="45.94677211075206" cy="56.00953700976067" r="1" opacity="1" fill="rgb(247, 129, 82)" style="box-shadow: rgba(0, 0, 0, 0.4) 0px 3px 10px;"></circle><circle cx="45.953748306931516" cy="56.11998355926556" r="1" opacity="1" fill="rgb(247, 129, 81)" style="box-shadow: rgba(0, 0, 0, 0.4) 0px 3px 10px;"></circle><circle cx="45.96064538417024" cy="56.22993746039626" r="1" opacity="1" fill="rgb(247, 128, 81)" style="box-shadow: rgba(0, 0, 0, 0.4) 0px 3px 10px;"></circle><circle cx="45.96746849553145" cy="56.33940399642973" r="1" opacity="1" fill="rgb(247, 128, 81)" style="box-shadow: rgba(0, 0, 0, 0.4) 0px 3px 10px;"></circle><circle cx="45.9742223083583" cy="56.448388117261274" r="1" opacity="1" fill="rgb(247, 128, 81)" style="box-shadow: rgba(0, 0, 0, 0.4) 0px 3px 10px;"></circle><circle cx="45.98091105097914" cy="56.55689447076277" r="1" opacity="1" fill="rgb(246, 127, 80)" style="box-shadow: rgba(0, 0, 0, 0.4) 0px 3px 10px;"></circle><circle cx="45.98753855491749" cy="56.664927431125804" r="1" opacity="1" fill="rgb(246, 127, 80)" style="box-shadow: rgba(0, 0, 0, 0.4) 0px 3px 10px;"></circle><circle cx="45.99410829304005" cy="56.772491124480084" r="1" opacity="1" fill="rgb(246, 126, 80)" style="box-shadow: rgba(0, 0, 0, 0.4) 0px 3px 10px;"></circle><circle cx="46.000623414033136" cy="56.879589452049146" r="1" opacity="1" fill="rgb(246, 126, 79)" style="box-shadow: rgba(0, 0, 0, 0.4) 0px 3px 10px;"></circle><circle cx="46.0070867735613" cy="56.986226111080484" r="1" opacity="1" fill="rgb(246, 125, 79)" style="box-shadow: rgba(0, 0, 0, 0.4) 0px 3px 10px;"></circle><circle cx="46.013500962427216" cy="57.09240461376425" r="1" opacity="1" fill="rgb(246, 125, 79)" style="box-shadow: rgba(0, 0, 0, 0.4) 0px 3px 10px;"></circle><circle cx="46.01986833202158" cy="57.19812830433415" r="1" opacity="1" fill="rgb(245, 124, 79)" style="box-shadow: rgba(0, 0, 0, 0.4) 0px 3px 10px;"></circle><circle cx="46.02619101732369" cy="57.30340037452531" r="1" opacity="1" fill="rgb(245, 124, 78)" style="box-shadow: rgba(0, 0, 0, 0.4) 0px 3px 10px;"></circle><circle cx="46.03247095768866" cy="57.40822387754755" r="1" opacity="1" fill="rgb(245, 123, 78)" style="box-shadow: rgba(0, 0, 0, 0.4) 0px 3px 10px;"></circle><circle cx="46.038709915634065" cy="57.51260174071655" r="1" opacity="1" fill="rgb(245, 123, 78)" style="box-shadow: rgba(0, 0, 0, 0.4) 0px 3px 10px;"></circle><circle cx="46.04490949381867" cy="57.61653677687235" r="1" opacity="1" fill="rgb(245, 122, 77)" style="box-shadow: rgba(0, 0, 0, 0.4) 0px 3px 10px;"></circle><circle cx="46.05107115038729" cy="57.72003169470183" r="1" opacity="1" fill="rgb(244, 122, 77)" style="box-shadow: rgba(0, 0, 0, 0.4) 0px 3px 10px;"></circle><circle cx="46.05719621283888" cy="57.82308910807048" r="1" opacity="1" fill="rgb(244, 121, 77)" style="box-shadow: rgba(0, 0, 0, 0.4) 0px 3px 10px;"></circle><circle cx="46.0632858905602" cy="57.925711544459034" r="1" opacity="1" fill="rgb(244, 121, 77)" style="box-shadow: rgba(0, 0, 0, 0.4) 0px 3px 10px;"></circle><circle cx="46.06934128615314" cy="58.02790145259095" r="1" opacity="1" fill="rgb(244, 121, 76)" style="box-shadow: rgba(0, 0, 0, 0.4) 0px 3px 10px;"></circle><circle cx="46.075363405672334" cy="58.129661209328646" r="1" opacity="1" fill="rgb(244, 120, 76)" style="box-shadow: rgba(0, 0, 0, 0.4) 0px 3px 10px;"></circle><circle cx="46.08135316787735" cy="58.23099312590884" r="1" opacity="1" fill="rgb(243, 120, 76)" style="box-shadow: rgba(0, 0, 0, 0.4) 0px 3px 10px;"></circle><circle cx="46.08731141259471" cy="58.33189945358065" r="1" opacity="1" fill="rgb(243, 119, 75)" style="box-shadow: rgba(0, 0, 0, 0.4) 0px 3px 10px;"></circle><circle cx="46.09323890827528" cy="58.43238238870384" r="1" opacity="1" fill="rgb(243, 119, 75)" style="box-shadow: rgba(0, 0, 0, 0.4) 0px 3px 10px;"></circle><circle cx="46.0991363588245" cy="58.53244407735923" r="1" opacity="1" fill="rgb(243, 118, 75)" style="box-shadow: rgba(0, 0, 0, 0.4) 0px 3px 10px;"></circle><circle cx="46.10500440977526" cy="58.63208661951814" r="1" opacity="1" fill="rgb(243, 118, 75)" style="box-shadow: rgba(0, 0, 0, 0.4) 0px 3px 10px;"></circle><circle cx="46.110843653867036" cy="58.73131207281335" r="1" opacity="1" fill="rgb(243, 117, 74)" style="box-shadow: rgba(0, 0, 0, 0.4) 0px 3px 10px;"></circle><circle cx="46.116654636088086" cy="58.83012245594992" r="1" opacity="1" fill="rgb(242, 117, 74)" style="box-shadow: rgba(0, 0, 0, 0.4) 0px 3px 10px;"></circle><circle cx="46.1224378582326" cy="58.928519751790446" r="1" opacity="1" fill="rgb(242, 116, 74)" style="box-shadow: rgba(0, 0, 0, 0.4) 0px 3px 10px;"></circle><circle cx="46.12819378301937" cy="59.02650591014621" r="1" opacity="1" fill="rgb(242, 116, 73)" style="box-shadow: rgba(0, 0, 0, 0.4) 0px 3px 10px;"></circle><circle cx="46.13392283781425" cy="59.12408285030234" r="1" opacity="1" fill="rgb(242, 115, 73)" style="box-shadow: rgba(0, 0, 0, 0.4) 0px 3px 10px;"></circle><circle cx="46.139625417994516" cy="59.221252463302726" r="1" opacity="1" fill="rgb(242, 115, 73)" style="box-shadow: rgba(0, 0, 0, 0.4) 0px 3px 10px;"></circle><circle cx="46.14530188998956" cy="59.31801661401776" r="1" opacity="1" fill="rgb(241, 114, 72)" style="box-shadow: rgba(0, 0, 0, 0.4) 0px 3px 10px;"></circle><circle cx="46.1509525940291" cy="59.41437714301567" r="1" opacity="1" fill="rgb(241, 114, 72)" style="box-shadow: rgba(0, 0, 0, 0.4) 0px 3px 10px;"></circle><circle cx="46.15657784662707" cy="59.5103358682566" r="1" opacity="1" fill="rgb(241, 114, 72)" style="box-shadow: rgba(0, 0, 0, 0.4) 0px 3px 10px;"></circle><circle cx="46.16217794282661" cy="59.605894586626135" r="1" opacity="1" fill="rgb(241, 113, 72)" style="box-shadow: rgba(0, 0, 0, 0.4) 0px 3px 10px;"></circle><circle cx="46.167753158229054" cy="59.70105507532406" r="1" opacity="1" fill="rgb(241, 113, 71)" style="box-shadow: rgba(0, 0, 0, 0.4) 0px 3px 10px;"></circle><circle cx="46.17330375082796" cy="59.79581909312206" r="1" opacity="1" fill="rgb(241, 112, 71)" style="box-shadow: rgba(0, 0, 0, 0.4) 0px 3px 10px;"></circle><circle cx="46.17882996266665" cy="59.89018838150301" r="1" opacity="1" fill="rgb(240, 112, 71)" style="box-shadow: rgba(0, 0, 0, 0.4) 0px 3px 10px;"></circle><circle cx="46.1843320213364" cy="59.98416466569327" r="1" opacity="1" fill="rgb(240, 111, 70)" style="box-shadow: rgba(0, 0, 0, 0.4) 0px 3px 10px;"></circle><circle cx="46.18981014133064" cy="60.077749655598225" r="1" opacity="1" fill="rgb(240, 111, 70)" style="box-shadow: rgba(0, 0, 0, 0.4) 0px 3px 10px;"></circle><circle cx="46.19526452526893" cy="60.170945046650445" r="1" opacity="1" fill="rgb(240, 110, 70)" style="box-shadow: rgba(0, 0, 0, 0.4) 0px 3px 10px;"></circle><circle cx="46.20069536500328" cy="60.26375252057878" r="1" opacity="1" fill="rgb(240, 110, 70)" style="box-shadow: rgba(0, 0, 0, 0.4) 0px 3px 10px;"></circle><circle cx="46.20610284261819" cy="60.35617374610605" r="1" opacity="1" fill="rgb(239, 109, 69)" style="box-shadow: rgba(0, 0, 0, 0.4) 0px 3px 10px;"></circle><circle cx="46.21148713133457" cy="60.44821037958215" r="1" opacity="1" fill="rgb(239, 109, 69)" style="box-shadow: rgba(0, 0, 0, 0.4) 0px 3px 10px;"></circle><circle cx="46.216848396326775" cy="60.53986406555881" r="1" opacity="1" fill="rgb(239, 108, 69)" style="box-shadow: rgba(0, 0, 0, 0.4) 0px 3px 10px;"></circle><circle cx="46.22218679546122" cy="60.63113643731158" r="1" opacity="1" fill="rgb(239, 108, 68)" style="box-shadow: rgba(0, 0, 0, 0.4) 0px 3px 10px;"></circle><circle cx="46.22750247996405" cy="60.72202911731415" r="1" opacity="1" fill="rgb(239, 108, 68)" style="box-shadow: rgba(0, 0, 0, 0.4) 0px 3px 10px;"></circle><circle cx="46.2327955950246" cy="60.81254371766954" r="1" opacity="1" fill="rgb(238, 107, 68)" style="box-shadow: rgba(0, 0, 0, 0.4) 0px 3px 10px;"></circle><circle cx="46.23806628034109" cy="60.90268184050232" r="1" opacity="1" fill="rgb(238, 107, 68)" style="box-shadow: rgba(0, 0, 0, 0.4) 0px 3px 10px;"></circle><circle cx="46.24331467061379" cy="60.99244507831561" r="1" opacity="1" fill="rgb(238, 106, 67)" style="box-shadow: rgba(0, 0, 0, 0.4) 0px 3px 10px;"></circle><circle cx="46.24854089599098" cy="61.08183501431626" r="1" opacity="1" fill="rgb(238, 106, 67)" style="box-shadow: rgba(0, 0, 0, 0.4) 0px 3px 10px;"></circle><circle cx="46.25374508247205" cy="61.170853222711116" r="1" opacity="1" fill="rgb(238, 105, 67)" style="box-shadow: rgba(0, 0, 0, 0.4) 0px 3px 10px;"></circle><circle cx="46.25892735227203" cy="61.2595012689774" r="1" opacity="1" fill="rgb(238, 105, 66)" style="box-shadow: rgba(0, 0, 0, 0.4) 0px 3px 10px;"></circle><circle cx="46.264087824151105" cy="61.34778071010946" r="1" opacity="1" fill="rgb(237, 104, 66)" style="box-shadow: rgba(0, 0, 0, 0.4) 0px 3px 10px;"></circle><circle cx="46.269226613712604" cy="61.435693094844275" r="1" opacity="1" fill="rgb(237, 104, 66)" style="box-shadow: rgba(0, 0, 0, 0.4) 0px 3px 10px;"></circle><circle cx="46.274343833672475" cy="61.52323996386767" r="1" opacity="1" fill="rgb(237, 103, 66)" style="box-shadow: rgba(0, 0, 0, 0.4) 0px 3px 10px;"></circle><circle cx="46.27943959410288" cy="61.610422850003175" r="1" opacity="1" fill="rgb(237, 103, 65)" style="box-shadow: rgba(0, 0, 0, 0.4) 0px 3px 10px;"></circle><circle cx="46.284514002652614" cy="61.69724327838514" r="1" opacity="1" fill="rgb(237, 102, 65)" style="box-shadow: rgba(0, 0, 0, 0.4) 0px 3px 10px;"></circle><circle cx="46.28956716474631" cy="61.783702766617544" r="1" opacity="1" fill="rgb(236, 102, 65)" style="box-shadow: rgba(0, 0, 0, 0.4) 0px 3px 10px;"></circle><circle cx="46.29459918376473" cy="61.86980282492006" r="1" opacity="1" fill="rgb(236, 101, 64)" style="box-shadow: rgba(0, 0, 0, 0.4) 0px 3px 10px;"></circle><circle cx="46.299610161207816" cy="61.95554495626236" r="1" opacity="1" fill="rgb(236, 101, 64)" style="box-shadow: rgba(0, 0, 0, 0.4) 0px 3px 10px;"></circle><circle cx="46.3046001968421" cy="62.04093065648792" r="1" opacity="1" fill="rgb(236, 101, 64)" style="box-shadow: rgba(0, 0, 0, 0.4) 0px 3px 10px;"></circle><circle cx="46.30956938883422" cy="62.12596141442834" r="1" opacity="1" fill="rgb(236, 100, 63)" style="box-shadow: rgba(0, 0, 0, 0.4) 0px 3px 10px;"></circle><circle cx="46.31451783387159" cy="62.21063871200894" r="1" opacity="1" fill="rgb(236, 100, 63)" style="box-shadow: rgba(0, 0, 0, 0.4) 0px 3px 10px;"></circle><circle cx="46.31944562727169" cy="62.294964024346676" r="1" opacity="1" fill="rgb(235, 99, 63)" style="box-shadow: rgba(0, 0, 0, 0.4) 0px 3px 10px;"></circle><circle cx="46.32435286308086" cy="62.3789388198409" r="1" opacity="1" fill="rgb(235, 99, 63)" style="box-shadow: rgba(0, 0, 0, 0.4) 0px 3px 10px;"></circle><circle cx="46.32923963416389" cy="62.46256456025776" r="1" opacity="1" fill="rgb(235, 98, 62)" style="box-shadow: rgba(0, 0, 0, 0.4) 0px 3px 10px;"></circle><circle cx="46.33410603228494" cy="62.54584270080884" r="1" opacity="1" fill="rgb(235, 98, 62)" style="box-shadow: rgba(0, 0, 0, 0.4) 0px 3px 10px;"></circle><circle cx="46.33895214818097" cy="62.62877469022448" r="1" opacity="1" fill="rgb(235, 97, 62)" style="box-shadow: rgba(0, 0, 0, 0.4) 0px 3px 10px;"></circle><circle cx="46.34377807162814" cy="62.711361970822466" r="1" opacity="1" fill="rgb(234, 97, 61)" style="box-shadow: rgba(0, 0, 0, 0.4) 0px 3px 10px;"></circle><circle cx="46.34858389150193" cy="62.793605978572344" r="1" opacity="1" fill="rgb(234, 96, 61)" style="box-shadow: rgba(0, 0, 0, 0.4) 0px 3px 10px;"></circle><circle cx="46.35336969583174" cy="62.875508143155784" r="1" opacity="1" fill="rgb(234, 96, 61)" style="box-shadow: rgba(0, 0, 0, 0.4) 0px 3px 10px;"></circle><circle cx="46.35813557185024" cy="62.957069888023625" r="1" opacity="1" fill="rgb(234, 95, 61)" style="box-shadow: rgba(0, 0, 0, 0.4) 0px 3px 10px;"></circle><circle cx="46.36288160603815" cy="63.038292630449476" r="1" opacity="1" fill="rgb(234, 95, 60)" style="box-shadow: rgba(0, 0, 0, 0.4) 0px 3px 10px;"></circle><circle cx="46.36760788416485" cy="63.119177781580554" r="1" opacity="1" fill="rgb(234, 95, 60)" style="box-shadow: rgba(0, 0, 0, 0.4) 0px 3px 10px;"></circle><circle cx="46.37231449132521" cy="63.199726746485894" r="1" opacity="1" fill="rgb(233, 94, 60)" style="box-shadow: rgba(0, 0, 0, 0.4) 0px 3px 10px;"></circle><circle cx="46.37700151197302" cy="63.27994092420211" r="1" opacity="1" fill="rgb(233, 94, 59)" style="box-shadow: rgba(0, 0, 0, 0.4) 0px 3px 10px;"></circle><circle cx="46.38166902995124" cy="63.35982170777702" r="1" opacity="1" fill="rgb(233, 93, 59)" style="box-shadow: rgba(0, 0, 0, 0.4) 0px 3px 10px;"></circle><circle cx="46.38631712851968" cy="63.439370484311326" r="1" opacity="1" fill="rgb(233, 93, 59)" style="box-shadow: rgba(0, 0, 0, 0.4) 0px 3px 10px;"></circle><circle cx="46.39094589037985" cy="63.51858863499849" r="1" opacity="1" fill="rgb(233, 92, 59)" style="box-shadow: rgba(0, 0, 0, 0.4) 0px 3px 10px;"></circle><circle cx="46.39555539769786" cy="63.59747753516292" r="1" opacity="1" fill="rgb(232, 92, 58)" style="box-shadow: rgba(0, 0, 0, 0.4) 0px 3px 10px;"></circle><circle cx="46.40014573212498" cy="63.67603855429685" r="1" opacity="1" fill="rgb(232, 91, 58)" style="box-shadow: rgba(0, 0, 0, 0.4) 0px 3px 10px;"></circle><circle cx="46.404716974816544" cy="63.75427305609567" r="1" opacity="1" fill="rgb(232, 91, 58)" style="box-shadow: rgba(0, 0, 0, 0.4) 0px 3px 10px;"></circle><circle cx="46.40926920644903" cy="63.83218239849217" r="1" opacity="1" fill="rgb(232, 90, 57)" style="box-shadow: rgba(0, 0, 0, 0.4) 0px 3px 10px;"></circle><circle cx="46.41380250723569" cy="63.90976793368962" r="1" opacity="1" fill="rgb(232, 90, 57)" style="box-shadow: rgba(0, 0, 0, 0.4) 0px 3px 10px;"></circle><circle cx="46.41831695694077" cy="63.98703100819385" r="1" opacity="1" fill="rgb(231, 89, 57)" style="box-shadow: rgba(0, 0, 0, 0.4) 0px 3px 10px;"></circle><circle cx="46.42281263489259" cy="64.06397296284437" r="1" opacity="1" fill="rgb(231, 89, 57)" style="box-shadow: rgba(0, 0, 0, 0.4) 0px 3px 10px;"></circle><circle cx="46.42728961999525" cy="64.14059513284472" r="1" opacity="1" fill="rgb(231, 88, 56)" style="box-shadow: rgba(0, 0, 0, 0.4) 0px 3px 10px;"></circle><circle cx="46.43174799073966" cy="64.2168988477919" r="1" opacity="1" fill="rgb(231, 88, 56)" style="box-shadow: rgba(0, 0, 0, 0.4) 0px 3px 10px;"></circle><circle cx="46.43618782521333" cy="64.29288543170522" r="1" opacity="1" fill="rgb(231, 88, 56)" style="box-shadow: rgba(0, 0, 0, 0.4) 0px 3px 10px;"></circle><circle cx="46.440609201109545" cy="64.36855620305454" r="1" opacity="1" fill="rgb(231, 87, 55)" style="box-shadow: rgba(0, 0, 0, 0.4) 0px 3px 10px;"></circle><circle cx="46.44501219573569" cy="64.44391247478771" r="1" opacity="1" fill="rgb(230, 87, 55)" style="box-shadow: rgba(0, 0, 0, 0.4) 0px 3px 10px;"></circle><circle cx="46.44939688602094" cy="64.51895555435763" r="1" opacity="1" fill="rgb(230, 86, 55)" style="box-shadow: rgba(0, 0, 0, 0.4) 0px 3px 10px;"></circle><circle cx="46.453763348523246" cy="64.59368674374883" r="1" opacity="1" fill="rgb(230, 86, 54)" style="box-shadow: rgba(0, 0, 0, 0.4) 0px 3px 10px;"></circle><circle cx="46.458111659435914" cy="64.66810733950341" r="1" opacity="1" fill="rgb(230, 85, 54)" style="box-shadow: rgba(0, 0, 0, 0.4) 0px 3px 10px;"></circle><circle cx="46.46244189459354" cy="64.74221863274673" r="1" opacity="1" fill="rgb(230, 85, 54)" style="box-shadow: rgba(0, 0, 0, 0.4) 0px 3px 10px;"></circle><circle cx="46.46675412947757" cy="64.81602190921262" r="1" opacity="1" fill="rgb(229, 84, 54)" style="box-shadow: rgba(0, 0, 0, 0.4) 0px 3px 10px;"></circle><circle cx="46.471048439221406" cy="64.88951844926824" r="1" opacity="1" fill="rgb(229, 84, 53)" style="box-shadow: rgba(0, 0, 0, 0.4) 0px 3px 10px;"></circle><circle cx="46.47532489861516" cy="64.96270952793859" r="1" opacity="1" fill="rgb(229, 83, 53)" style="box-shadow: rgba(0, 0, 0, 0.4) 0px 3px 10px;"></circle><circle cx="46.4795835821101" cy="65.03559641493071" r="1" opacity="1" fill="rgb(229, 83, 53)" style="box-shadow: rgba(0, 0, 0, 0.4) 0px 3px 10px;"></circle><circle cx="46.4838245638227" cy="65.10818037465766" r="1" opacity="1" fill="rgb(229, 82, 52)" style="box-shadow: rgba(0, 0, 0, 0.4) 0px 3px 10px;"></circle><circle cx="46.48804791753852" cy="65.18046266626206" r="1" opacity="1" fill="rgb(229, 82, 52)" style="box-shadow: rgba(0, 0, 0, 0.4) 0px 3px 10px;"></circle><circle cx="46.49225371671573" cy="65.25244454363951" r="1" opacity="1" fill="rgb(228, 81, 52)" style="box-shadow: rgba(0, 0, 0, 0.4) 0px 3px 10px;"></circle><circle cx="46.49644203448854" cy="65.32412725546175" r="1" opacity="1" fill="rgb(228, 81, 52)" style="box-shadow: rgba(0, 0, 0, 0.4) 0px 3px 10px;"></circle><circle cx="46.50061294367027" cy="65.39551204519958" r="1" opacity="1" fill="rgb(228, 81, 51)" style="box-shadow: rgba(0, 0, 0, 0.4) 0px 3px 10px;"></circle><circle cx="46.50476651675637" cy="65.46660015114556" r="1" opacity="1" fill="rgb(228, 80, 51)" style="box-shadow: rgba(0, 0, 0, 0.4) 0px 3px 10px;"></circle><circle cx="46.508902825927144" cy="65.53739280643647" r="1" opacity="1" fill="rgb(228, 80, 51)" style="box-shadow: rgba(0, 0, 0, 0.4) 0px 3px 10px;"></circle><circle cx="46.513021943050475" cy="65.60789123907573" r="1" opacity="1" fill="rgb(227, 79, 50)" style="box-shadow: rgba(0, 0, 0, 0.4) 0px 3px 10px;"></circle><circle cx="46.517123939684254" cy="65.67809667195543" r="1" opacity="1" fill="rgb(227, 79, 50)" style="box-shadow: rgba(0, 0, 0, 0.4) 0px 3px 10px;"></circle><circle cx="46.52120888707877" cy="65.74801032287837" r="1" opacity="1" fill="rgb(227, 78, 50)" style="box-shadow: rgba(0, 0, 0, 0.4) 0px 3px 10px;"></circle><circle cx="46.52527685617901" cy="65.81763340457987" r="1" opacity="1" fill="rgb(227, 78, 50)" style="box-shadow: rgba(0, 0, 0, 0.4) 0px 3px 10px;"></circle><circle cx="46.52932791762676" cy="65.88696712474939" r="1" opacity="1" fill="rgb(227, 77, 49)" style="box-shadow: rgba(0, 0, 0, 0.4) 0px 3px 10px;"></circle><circle cx="46.53336214176268" cy="65.95601268605205" r="1" opacity="1" fill="rgb(226, 77, 49)" style="box-shadow: rgba(0, 0, 0, 0.4) 0px 3px 10px;"></circle><circle cx="46.53737959862831" cy="66.02477128615003" r="1" opacity="1" fill="rgb(226, 76, 49)" style="box-shadow: rgba(0, 0, 0, 0.4) 0px 3px 10px;"></circle><circle cx="46.54138035796791" cy="66.09324411772376" r="1" opacity="1" fill="rgb(226, 76, 48)" style="box-shadow: rgba(0, 0, 0, 0.4) 0px 3px 10px;"></circle><circle cx="46.54536448923038" cy="66.16143236849301" r="1" opacity="1" fill="rgb(226, 75, 48)" style="box-shadow: rgba(0, 0, 0, 0.4) 0px 3px 10px;"></circle><circle cx="46.5493320615709" cy="66.22933722123796" r="1" opacity="1" fill="rgb(226, 75, 48)" style="box-shadow: rgba(0, 0, 0, 0.4) 0px 3px 10px;"></circle><circle cx="46.55328314385274" cy="66.2969598538199" r="1" opacity="1" fill="rgb(226, 75, 48)" style="box-shadow: rgba(0, 0, 0, 0.4) 0px 3px 10px;"></circle><circle cx="46.557217804648865" cy="66.36430143920212" r="1" opacity="1" fill="rgb(225, 74, 47)" style="box-shadow: rgba(0, 0, 0, 0.4) 0px 3px 10px;"></circle><circle cx="46.5611361122435" cy="66.43136314547044" r="1" opacity="1" fill="rgb(225, 74, 47)" style="box-shadow: rgba(0, 0, 0, 0.4) 0px 3px 10px;"></circle><circle cx="46.56503813463379" cy="66.49814613585374" r="1" opacity="1" fill="rgb(225, 73, 47)" style="box-shadow: rgba(0, 0, 0, 0.4) 0px 3px 10px;"></circle><circle cx="46.56892393953119" cy="66.56465156874437" r="1" opacity="1" fill="rgb(225, 73, 46)" style="box-shadow: rgba(0, 0, 0, 0.4) 0px 3px 10px;"></circle><circle cx="46.57279359436304" cy="66.63088059771844" r="1" opacity="1" fill="rgb(225, 72, 46)" style="box-shadow: rgba(0, 0, 0, 0.4) 0px 3px 10px;"></circle><circle cx="46.57664716627396" cy="66.69683437155602" r="1" opacity="1" fill="rgb(224, 72, 46)" style="box-shadow: rgba(0, 0, 0, 0.4) 0px 3px 10px;"></circle><circle cx="46.580484722127274" cy="66.76251403426122" r="1" opacity="1" fill="rgb(224, 71, 46)" style="box-shadow: rgba(0, 0, 0, 0.4) 0px 3px 10px;"></circle><circle cx="46.58430632850641" cy="66.82792072508218" r="1" opacity="1" fill="rgb(224, 71, 45)" style="box-shadow: rgba(0, 0, 0, 0.4) 0px 3px 10px;"></circle><circle cx="46.58811205171623" cy="66.89305557853103" r="1" opacity="1" fill="rgb(224, 70, 45)" style="box-shadow: rgba(0, 0, 0, 0.4) 0px 3px 10px;"></circle><circle cx="46.59190195778438" cy="66.95791972440357" r="1" opacity="1" fill="rgb(224, 70, 45)" style="box-shadow: rgba(0, 0, 0, 0.4) 0px 3px 10px;"></circle><circle cx="46.595676112462606" cy="67.0225142877991" r="1" opacity="1" fill="rgb(224, 69, 44)" style="box-shadow: rgba(0, 0, 0, 0.4) 0px 3px 10px;"></circle><circle cx="46.599434581228024" cy="67.08684038913995" r="1" opacity="1" fill="rgb(223, 69, 44)" style="box-shadow: rgba(0, 0, 0, 0.4) 0px 3px 10px;"></circle><circle cx="46.60317742928439" cy="67.15089914419107" r="1" opacity="1" fill="rgb(223, 68, 44)" style="box-shadow: rgba(0, 0, 0, 0.4) 0px 3px 10px;"></circle><circle cx="46.60690472156343" cy="67.2146916640794" r="1" opacity="1" fill="rgb(223, 68, 43)" style="box-shadow: rgba(0, 0, 0, 0.4) 0px 3px 10px;"></circle><circle cx="46.610616522725934" cy="67.27821905531326" r="1" opacity="1" fill="rgb(223, 68, 43)" style="box-shadow: rgba(0, 0, 0, 0.4) 0px 3px 10px;"></circle><circle cx="46.614312897163096" cy="67.34148241980161" r="1" opacity="1" fill="rgb(223, 67, 43)" style="box-shadow: rgba(0, 0, 0, 0.4) 0px 3px 10px;"></circle><circle cx="46.617993908997676" cy="67.4044828548732" r="1" opacity="1" fill="rgb(222, 67, 43)" style="box-shadow: rgba(0, 0, 0, 0.4) 0px 3px 10px;"></circle><circle cx="46.6216596220852" cy="67.46722145329568" r="1" opacity="1" fill="rgb(222, 66, 42)" style="box-shadow: rgba(0, 0, 0, 0.4) 0px 3px 10px;"></circle><circle cx="46.62531010001513" cy="67.5296993032946" r="1" opacity="1" fill="rgb(222, 66, 42)" style="box-shadow: rgba(0, 0, 0, 0.4) 0px 3px 10px;"></circle><circle cx="46.62894540611207" cy="67.5919174885723" r="1" opacity="1" fill="rgb(222, 65, 42)" style="box-shadow: rgba(0, 0, 0, 0.4) 0px 3px 10px;"></circle><circle cx="46.63256560343686" cy="67.65387708832682" r="1" opacity="1" fill="rgb(222, 65, 41)" style="box-shadow: rgba(0, 0, 0, 0.4) 0px 3px 10px;"></circle><circle cx="46.636170754787805" cy="67.71557917727056" r="1" opacity="1" fill="rgb(221, 64, 41)" style="box-shadow: rgba(0, 0, 0, 0.4) 0px 3px 10px;"></circle><circle cx="46.63976092270174" cy="67.777024825649" r="1" opacity="1" fill="rgb(221, 64, 41)" style="box-shadow: rgba(0, 0, 0, 0.4) 0px 3px 10px;"></circle><circle cx="46.643336169455196" cy="67.83821509925934" r="1" opacity="1" fill="rgb(221, 63, 41)" style="box-shadow: rgba(0, 0, 0, 0.4) 0px 3px 10px;"></circle><circle cx="46.64689655706554" cy="67.89915105946895" r="1" opacity="1" fill="rgb(221, 63, 40)" style="box-shadow: rgba(0, 0, 0, 0.4) 0px 3px 10px;"></circle><circle cx="46.650442147292004" cy="67.9598337632338" r="1" opacity="1" fill="rgb(221, 62, 40)" style="box-shadow: rgba(0, 0, 0, 0.4) 0px 3px 10px;"></circle><circle cx="46.65397300163691" cy="68.02026426311687" r="1" opacity="1" fill="rgb(221, 62, 40)" style="box-shadow: rgba(0, 0, 0, 0.4) 0px 3px 10px;"></circle><circle cx="46.65748918134668" cy="68.08044360730639" r="1" opacity="1" fill="rgb(220, 61, 39)" style="box-shadow: rgba(0, 0, 0, 0.4) 0px 3px 10px;"></circle><circle cx="46.660990747412924" cy="68.14037283963405" r="1" opacity="1" fill="rgb(220, 61, 39)" style="box-shadow: rgba(0, 0, 0, 0.4) 0px 3px 10px;"></circle><circle cx="46.66447776057358" cy="68.20005299959308" r="1" opacity="1" fill="rgb(220, 61, 39)" style="box-shadow: rgba(0, 0, 0, 0.4) 0px 3px 10px;"></circle><circle cx="46.66795028131395" cy="68.25948512235638" r="1" opacity="1" fill="rgb(220, 60, 39)" style="box-shadow: rgba(0, 0, 0, 0.4) 0px 3px 10px;"></circle><circle cx="46.67140836986775" cy="68.31867023879438" r="1" opacity="1" fill="rgb(220, 60, 38)" style="box-shadow: rgba(0, 0, 0, 0.4) 0px 3px 10px;"></circle><circle cx="46.674852086218216" cy="68.37760937549308" r="1" opacity="1" fill="rgb(219, 59, 38)" style="box-shadow: rgba(0, 0, 0, 0.4) 0px 3px 10px;"></circle><circle cx="46.67828149009916" cy="68.43630355477171" r="1" opacity="1" fill="rgb(219, 59, 38)" style="box-shadow: rgba(0, 0, 0, 0.4) 0px 3px 10px;"></circle><circle cx="46.68169664099596" cy="68.49475379470059" r="1" opacity="1" fill="rgb(219, 58, 37)" style="box-shadow: rgba(0, 0, 0, 0.4) 0px 3px 10px;"></circle><circle cx="46.68509759814669" cy="68.55296110911867" r="1" opacity="1" fill="rgb(219, 58, 37)" style="box-shadow: rgba(0, 0, 0, 0.4) 0px 3px 10px;"></circle><circle cx="46.68848442054309" cy="68.6109265076513" r="1" opacity="1" fill="rgb(219, 57, 37)" style="box-shadow: rgba(0, 0, 0, 0.4) 0px 3px 10px;"></circle><circle cx="46.691857166931634" cy="68.66865099572762" r="1" opacity="1" fill="rgb(219, 57, 37)" style="box-shadow: rgba(0, 0, 0, 0.4) 0px 3px 10px;"></circle><circle cx="46.69521589581454" cy="68.726135574598" r="1" opacity="1" fill="rgb(218, 56, 36)" style="box-shadow: rgba(0, 0, 0, 0.4) 0px 3px 10px;"></circle><circle cx="46.69856066545083" cy="68.78338124135152" r="1" opacity="1" fill="rgb(218, 56, 36)" style="box-shadow: rgba(0, 0, 0, 0.4) 0px 3px 10px;"></circle><circle cx="46.701891533857314" cy="68.84038898893314" r="1" opacity="1" fill="rgb(218, 55, 36)" style="box-shadow: rgba(0, 0, 0, 0.4) 0px 3px 10px;"></circle><circle cx="46.70520855880961" cy="68.89715980616103" r="1" opacity="1" fill="rgb(218, 55, 35)" style="box-shadow: rgba(0, 0, 0, 0.4) 0px 3px 10px;"></circle><circle cx="46.70851179784315" cy="68.95369467774366" r="1" opacity="1" fill="rgb(218, 55, 35)" style="box-shadow: rgba(0, 0, 0, 0.4) 0px 3px 10px;"></circle><circle cx="46.711801308254195" cy="69.00999458429692" r="1" opacity="1" fill="rgb(217, 54, 35)" style="box-shadow: rgba(0, 0, 0, 0.4) 0px 3px 10px;"></circle><circle cx="46.71507714710085" cy="69.06606050236115" r="1" opacity="1" fill="rgb(217, 54, 34)" style="box-shadow: rgba(0, 0, 0, 0.4) 0px 3px 10px;"></circle><circle cx="46.71833937120398" cy="69.12189340441802" r="1" opacity="1" fill="rgb(217, 53, 34)" style="box-shadow: rgba(0, 0, 0, 0.4) 0px 3px 10px;"></circle><circle cx="46.72158803714832" cy="69.17749425890742" r="1" opacity="1" fill="rgb(217, 53, 34)" style="box-shadow: rgba(0, 0, 0, 0.4) 0px 3px 10px;"></circle><circle cx="46.72482320128337" cy="69.23286403024431" r="1" opacity="1" fill="rgb(217, 52, 34)" style="box-shadow: rgba(0, 0, 0, 0.4) 0px 3px 10px;"></circle><circle cx="46.728044919724404" cy="69.28800367883542" r="1" opacity="1" fill="rgb(216, 52, 33)" style="box-shadow: rgba(0, 0, 0, 0.4) 0px 3px 10px;"></circle><circle cx="46.73125324835344" cy="69.3429141610959" r="1" opacity="1" fill="rgb(216, 51, 33)" style="box-shadow: rgba(0, 0, 0, 0.4) 0px 3px 10px;"></circle><circle cx="46.734448242820235" cy="69.39759642946589" r="1" opacity="1" fill="rgb(216, 51, 33)" style="box-shadow: rgba(0, 0, 0, 0.4) 0px 3px 10px;"></circle><circle cx="46.737629958543216" cy="69.45205143242708" r="1" opacity="1" fill="rgb(216, 50, 32)" style="box-shadow: rgba(0, 0, 0, 0.4) 0px 3px 10px;"></circle><circle cx="46.74079845071049" cy="69.5062801145192" r="1" opacity="1" fill="rgb(216, 50, 32)" style="box-shadow: rgba(0, 0, 0, 0.4) 0px 3px 10px;"></circle><circle cx="46.74395377428075" cy="69.56028341635628" r="1" opacity="1" fill="rgb(216, 49, 32)" style="box-shadow: rgba(0, 0, 0, 0.4) 0px 3px 10px;"></circle><circle cx="46.74709598398427" cy="69.61406227464312" r="1" opacity="1" fill="rgb(215, 49, 32)" style="box-shadow: rgba(0, 0, 0, 0.4) 0px 3px 10px;"></circle><circle cx="46.75022513432384" cy="69.66761762219141" r="1" opacity="1" fill="rgb(215, 48, 31)" style="box-shadow: rgba(0, 0, 0, 0.4) 0px 3px 10px;"></circle><circle cx="46.75334127957573" cy="69.720950387936" r="1" opacity="1" fill="rgb(215, 48, 31)" style="box-shadow: rgba(0, 0, 0, 0.4) 0px 3px 10px;"></circle></g></svg>