<svg xmlns="http://www.w3.org/2000/svg" xmlns:xlink="http://www.w3.org/1999/xlink" width="110" height="110" style="padding: 6px;"><svg width="110" height="110"><path d="M13.75,-2359.2966977780457L13.79583333333333,-2340.5536021397L13.841666666666665,-2321.922295926691L13.887499999999998,-2303.402308355709L13.933333333333328,-2284.9931698733158L13.97916666666667,-2266.6944121544366L14.025000000000004,-2248.505568100869L14.070833333333335,-2230.4261718397647L14.116666666666665,-2212.455758722142L14.1625,-2194.5938653213752L14.208333333333332,-2176.8400294316934L14.254166666666663,-2159.1937900666876L14.299999999999997,-2141.6546874577953L14.345833333333339,-2124.222263052801L14.39166666666667,-2106.896059514348L14.4375,-2089.675620718419L14.483333333333334,-2072.560491752844L14.529166666666667,-2055.5502189157883L14.574999999999998,-2038.6443497142636L14.620833333333332,-2021.842432862621L14.666666666666664,-2005.1440182810397L14.712500000000004,-1988.5486570940384L14.758333333333335,-1972.0559016289676L14.804166666666669,-1955.6653054145086L14.850000000000001,-1939.3764231791615L14.895833333333332,-1923.1888108497612L14.941666666666666,-1907.1020255499627L14.987499999999997,-1891.1156255987412L15.03333333333333,-1875.2291705088908L15.079166666666664,-1859.4422209855256L15.125000000000004,-1843.7543389245684L15.170833333333336,-1828.1650874112645L15.216666666666667,-1812.6740307186615L15.262500000000001,-1797.2807343061204L15.308333333333334,-1781.9847648178063L15.354166666666664,-1766.7856900811898L15.399999999999999,-1751.6830791055424L15.44583333333333,-1736.6765020804382L15.49166666666667,-1721.7655303742463L15.537500000000001,-1706.94973653264L15.583333333333336,-1692.2286942770745L15.629166666666666,-1677.6019785033075L15.674999999999999,-1663.069165279881L15.720833333333333,-1648.6298318466274L15.766666666666664,-1634.2835566131616L15.812499999999996,-1620.0299191573854L15.858333333333336,-1605.8685002239786L15.90416666666667,-1591.7988817229057L15.950000000000003,-1577.8206467279056L15.995833333333334,-1563.933379474992L16.041666666666668,-1550.1366653609514L16.0875,-1536.4300909418434L16.13333333333333,-1522.8132439314945L16.179166666666664,-1509.2857132000004L16.224999999999994,-1495.8470887722185L16.270833333333336,-1482.4969618262721L16.316666666666666,-1469.2349246920448L16.3625,-1456.060570849676L16.408333333333335,-1442.9734949280664L16.454166666666666,-1429.9732927033645L16.5,-1417.05956109748L16.54583333333333,-1404.231898176561L16.59166666666666,-1391.4899031495165L16.637500000000003,-1378.8331763664885L16.683333333333337,-1366.2613193173781L16.729166666666668,-1353.773934630315L16.775,-1341.3706260701756L16.820833333333333,-1329.0509985370732L16.866666666666667,-1316.814658064852L16.912499999999998,-1304.6612118195985L16.958333333333332,-1292.590268098122L17.00416666666667,-1280.601436326465L17.050000000000004,-1268.6943270583986L17.095833333333335,-1256.8685519739174L17.14166666666667,-1245.12372387774L17.1875,-1233.4594566978044L17.23333333333333,-1221.8753654837674L17.279166666666665,-1210.371066405505L17.324999999999996,-1198.9461767516073L17.37083333333333,-1187.6003149278743L17.416666666666668,-1176.333100455819L17.462500000000002,-1165.1441539711648L17.508333333333333,-1154.0330972223376L17.554166666666667,-1142.9995530689691L17.6,-1132.043145480395L17.645833333333332,-1121.1634995341487L17.691666666666663,-1110.3602414144623L17.737499999999997,-1099.6329984107647L17.78333333333334,-1088.981398916175L17.82916666666667,-1078.4050724260112L17.875,-1067.9036495362764L17.920833333333334,-1057.4767619421611L17.966666666666665,-1047.1240424365421L18.0125,-1036.8451249084799L18.058333333333334,-1026.6396443417152L18.104166666666664,-1016.5072368131716L18.150000000000006,-1006.447539491443L18.195833333333336,-996.4601906353071L18.24166666666667,-986.5448295922076L18.2875,-976.7010967967615L18.333333333333332,-966.9286337692565L18.379166666666666,-957.2270831141445L18.424999999999997,-947.5960885185416L18.470833333333335,-938.0352947507295L18.516666666666666,-928.5443476586481L18.562499999999996,-919.1228941683964L18.608333333333334,-909.77058228273L18.65416666666667,-900.4870610795571L18.700000000000003,-891.27198071044L18.745833333333334,-882.1249923990916L18.791666666666664,-873.0457484398694L18.837500000000002,-864.0339021962799L18.883333333333333,-855.089108099472L18.929166666666667,-846.211021646737L18.974999999999998,-837.3992994000063L19.020833333333336,-828.6535989843461L19.066666666666666,-819.9735790864617L19.112499999999997,-811.3588994531892L19.15833333333333,-802.8092208899968L19.204166666666666,-794.3242052594816L19.250000000000004,-785.9035154798688L19.295833333333334,-777.5468155235081L19.341666666666665,-769.2537704153709L19.387500000000003,-761.0240462315502L19.433333333333334,-752.8573100977602L19.479166666666668,-744.7532301878281L19.525,-736.7114757221971L19.57083333333333,-728.7317169664224L19.616666666666667,-720.8136252296704L19.662499999999998,-712.9568728632161L19.708333333333332,-705.1611332589406L19.754166666666666,-697.4260808478278L19.8,-689.7513910984648L19.845833333333335,-682.1367405155369L19.891666666666666,-674.5818066383315L19.9375,-667.0862680392283L19.983333333333334,-659.6498043222009L20.02916666666667,-652.2720961213145L20.075,-644.9528250992249L20.12083333333333,-637.6916739456765L20.166666666666668,-630.488326375994L20.2125,-623.342467129592L20.258333333333333,-616.2537819684628L20.304166666666667,-609.2219576756763L20.35,-602.2466820538817L20.395833333333336,-595.3276439238041L20.441666666666666,-588.4645331227379L20.4875,-581.6570405030518L20.533333333333335,-574.9048579306801L20.57916666666667,-568.2076782836267L20.625,-561.5651954504576L20.67083333333333,-554.9771043288029L20.716666666666665,-548.4431008238519L20.7625,-541.9628818468512L20.808333333333334,-535.536145313606L20.854166666666664,-529.1625901429749L20.9,-522.8419162553662L20.945833333333333,-516.5738245712403L20.991666666666667,-510.35801700960565L21.0375,-504.19419648651524L21.083333333333332,-498.08206691356554L21.12916666666667,-492.02133319639495L21.175,-486.0117012331814L21.22083333333333,-480.0528779131414L21.266666666666666,-474.1445711150244L21.3125,-468.28648970561267L21.358333333333334,-462.4783435382243L21.404166666666665,-456.71984345120063L21.45,-451.0107012664133L21.495833333333334,-445.35062978775704L21.541666666666668,-439.73934279965124L21.587500000000002,-434.1765550655342L21.633333333333333,-428.66198232636384L21.67916666666667,-423.195341299113L21.725,-417.7763496752714L21.770833333333332,-412.4047261193392L21.816666666666666,-407.08019026732757L21.862499999999997,-401.8024627252549L21.908333333333335,-396.57126506764723L21.954166666666666,-391.3863198360327L21.999999999999996,-386.24735053744297L22.045833333333334,-381.15408164290847L22.09166666666667,-376.10623858595613L22.137500000000003,-371.1035477611123L22.183333333333334,-366.14573652239386L22.229166666666664,-361.23253318180974L22.275000000000002,-356.36366700785715L22.320833333333333,-351.53886822402296L22.366666666666667,-346.7578680072777L22.412499999999998,-342.0203984865747L22.458333333333336,-337.32619274134896L22.504166666666666,-332.6749848000143L22.549999999999997,-328.06650963846175L22.59583333333333,-323.5005031785566L22.641666666666666,-318.97670228663566L22.687500000000004,-314.49484477200923L22.733333333333334,-310.05466938545294L22.779166666666665,-305.6559158177112L22.825000000000003,-301.29832469799055L22.870833333333334,-296.98163759246205L22.916666666666668,-292.7055970027553L22.9625,-288.46994636445845L23.00833333333333,-284.2744300456152L23.054166666666667,-280.11879334522393L23.099999999999998,-276.0027824917346L23.145833333333332,-271.92614464154576L23.191666666666666,-267.8886278775056L23.2375,-263.88998120740507L23.283333333333335,-259.9299545624818L23.329166666666666,-256.00829879591294L23.375,-252.12476568131342L23.420833333333334,-248.2791079112381L23.46666666666667,-244.47107909567626L23.5125,-240.70043376054923L23.55833333333333,-236.96692734620956L23.604166666666668,-233.2703162059389L23.65,-229.61035760444594L23.695833333333333,-225.98680971636355L23.741666666666667,-222.3994316247468L23.7875,-218.84798331957188L23.833333333333336,-215.33222569623354L23.879166666666666,-211.85192055404218L23.925,-208.40683059472235L23.970833333333335,-204.99671942091152L24.01666666666667,-201.62135153465664L24.0625,-198.2804923359131L24.10833333333333,-194.97390812104123L24.154166666666665,-191.70136608130554L24.2,-188.46263430137304L24.245833333333334,-185.257481757809L24.291666666666664,-182.08567831757745L24.3375,-178.94699473653714L24.383333333333333,-175.8412026579398L24.429166666666667,-172.76807461092994L24.475,-169.72738400903967L24.520833333333332,-166.71890514868858L24.56666666666667,-163.7424132076817L24.6125,-160.7976842437066L24.65833333333333,-157.88449519283154L24.704166666666666,-155.00262386800404L24.75,-152.1518489575475L24.795833333333334,-149.33195002366153L24.841666666666665,-146.54270750091547L24.8875,-143.78390269475136L24.933333333333334,-141.05531777997894L24.979166666666668,-138.35673579927376L25.025000000000002,-135.6879406616758L25.070833333333333,-133.04871714108717L25.11666666666667,-130.4388508747693L25.1625,-127.85812836184226L25.208333333333332,-125.3063369617814L25.254166666666666,-122.78326489291635L25.299999999999997,-120.2887012309277L25.345833333333335,-117.82243590734527L25.391666666666666,-115.3842597080477L25.437499999999996,-112.973964271758L25.483333333333334,-110.59134208854158L25.52916666666667,-108.2361864983072L25.575000000000003,-105.90829168930102L25.620833333333334,-103.60745269660634L25.666666666666664,-101.3334654006419L25.712500000000002,-99.0861265256587L25.758333333333333,-96.86523363823923L25.804166666666667,-94.6705851457942L25.849999999999998,-92.50198029506066L25.895833333333336,-90.35921917060006L25.941666666666666,-88.24210269329731L25.987499999999997,-86.15043261885643L26.03333333333333,-84.0840115362995L26.079166666666666,-82.04264286646588L26.125000000000004,-80.02613086050818L26.170833333333334,-78.03428059839109L26.216666666666665,-76.0668979873895L26.262500000000003,-74.12378976058483L26.308333333333334,-72.20476347536615L26.354166666666668,-70.3096275119247L26.4,-68.43819107175332L26.44583333333333,-66.59026417614513L26.491666666666667,-64.76565766468926L26.537499999999998,-62.96418319377216L26.583333333333332,-61.18565323507073L26.629166666666666,-59.42988107405529L26.675,-57.69668080848376L26.720833333333335,-55.98586734690173L26.766666666666666,-54.29725640713917L26.8125,-52.63066451480904L26.858333333333334,-50.985909001804686L26.90416666666667,-49.3628080047977L26.95,-47.76118046373756L26.99583333333333,-46.180846120346416L27.041666666666668,-44.62162551661933L27.0875,-43.083339993322255L27.133333333333333,-41.56581168848834L27.179166666666667,-40.068863535917416L27.225,-38.59231926367221L27.270833333333336,-37.13600339257869L27.316666666666666,-35.69974123472201L27.3625,-34.2833588919446L27.408333333333335,-32.886683254344604L27.45416666666667,-31.50954199877475L27.5,-30.151763587337513L27.545833333333334,-28.8131772658858L27.59166666666666,-27.493613062519756L27.637500000000003,-26.192901786084263L27.68333333333333,-24.910875024667092L27.729166666666664,-23.647365144098046L27.775,-22.402205286444314L27.820833333333333,-21.175229368511054L27.86666666666667,-19.966272080338314L27.912499999999998,-18.775168883697802L27.958333333333332,-17.601756010591956L28.004166666666666,-16.44587046175259L28.05,-15.307350005136882L28.095833333333335,-14.186033174426896L28.141666666666662,-13.081759267526621L28.187500000000004,-11.994368345060224L28.23333333333333,-10.923701228869916L28.279166666666665,-9.86959950051343L28.325,-8.831905499763536L28.370833333333334,-7.810462323103579L28.416666666666668,-6.805113822227156L28.4625,-5.81570460253505L28.508333333333333,-4.84208002163416L28.554166666666667,-3.8840861878343134L28.6,-2.9415699586466957L28.645833333333336,-2.014378939282068L28.691666666666663,-1.1023614811475397L28.737499999999997,-0.20536668034681327L28.78333333333333,0.6767556238249455L28.829166666666666,1.5441548503807496L28.875,2.396979678145584L28.92083333333333,3.235378047257001L28.96666666666667,4.0594971606682435L29.0125,4.869483485649894L29.058333333333334,5.665482755292047L29.104166666666668,6.447639970006534L29.150000000000002,7.216099399029218L29.195833333333336,7.97100458192098L29.241666666666664,8.712498330070858L29.287499999999998,9.440722728198494L29.333333333333332,10.155819135854998L29.379166666666666,10.85792818892574L29.425,11.547189801132163L29.47083333333333,12.22374316553443L29.51666666666667,12.887726756032805L29.5625,13.539278328869898L29.608333333333334,14.178534924133459L29.65416666666667,14.805632867257557L29.700000000000003,15.420707770525468L29.745833333333337,16.023894534569635L29.791666666666664,16.6153273498782L29.8375,17.19513969829167L29.883333333333333,17.76346435450941L29.929166666666667,18.320433387589148L29.975,18.866178162450097L30.020833333333332,19.40082934137513L30.066666666666666,19.92451688551202L30.1125,20.43737005637651L30.158333333333335,20.939517417353954L30.20416666666667,21.431086835200986L30.249999999999996,21.91220548154854L30.295833333333338,22.382999834403606L30.341666666666665,22.84359567965005L30.3875,23.294118112552965L30.433333333333334,23.73469153925923L30.479166666666668,24.16543967829982L30.525000000000002,24.58648556209225L30.57083333333333,24.99795153844221L30.616666666666667,25.399959272046033L30.6625,25.792629745992855L30.708333333333336,26.17608326326578L30.75416666666667,26.55043944824547L30.799999999999997,26.91581724821097L30.84583333333334,27.272334934842505L30.891666666666666,27.620110105723327L30.9375,27.95925968584129L30.983333333333334,28.289899929092158L31.02916666666666,28.612146419780544L31.075000000000003,28.926114074122665L31.12083333333333,29.231917141747985L31.166666666666664,29.529669207201422L31.2125,29.819483191446267L31.258333333333333,30.101471353364488L31.30416666666667,30.375745291260216L31.349999999999998,30.642415944362085L31.395833333333332,30.901593594323884L31.441666666666666,31.153387866727996L31.4875,31.397907732586717L31.533333333333335,31.63526150984451L31.579166666666662,31.86555686488039L31.625000000000004,32.088900814009904L31.67083333333333,32.30539972498646L31.716666666666665,32.5151593185051L31.7625,32.71828466970217L31.808333333333334,32.91488020966037L31.854166666666668,33.105049726907666L31.9,33.288896368922224L31.945833333333333,33.46652264363246L31.991666666666667,33.63803042092027L32.0375,33.803520934122716L32.083333333333336,33.96309478153398L32.12916666666666,34.1168519279078L32.175,34.26489170595937L32.22083333333333,34.40731281786714L32.266666666666666,34.54421333677543L32.3125,34.67569070829656L32.35833333333333,34.80184175201197L32.40416666666667,34.922762662975686L32.449999999999996,35.038549013215246L32.49583333333333,35.14929575323458L32.541666666666664,35.255097213515455L32.5875,35.35604710602014L32.63333333333333,35.45223852569322L32.67916666666667,35.54376395196357L32.725,35.63071525024675L32.770833333333336,35.71318367344654L32.81666666666667,35.791259863457825L32.862500000000004,35.86503385266792L32.90833333333333,35.934595065459376L32.95416666666667,36.00003231971132L33,36.06143382830206L33.045833333333334,36.118887200611184L33.09166666666667,36.17247944402109L33.1375,36.2222969654197L33.18333333333334,36.26842557270254L33.229166666666664,36.31095047627406L33.275,36.34995629055081L33.32083333333333,36.385527035462545L33.36666666666667,36.417746137955035L33.4125,36.446696433491695L33.45833333333333,36.47246016755585L33.50416666666666,36.49511899715303L33.55,36.51475399231252L33.59583333333333,36.53144563758998L33.641666666666666,36.545273833569155L33.68749999999999,36.55631789836437L33.733333333333334,36.564656569121965L33.77916666666667,36.57036800352341L33.825,36.57352978128614L33.87083333333334,36.57421890566653L33.91666666666667,36.572511804961906L33.962500000000006,36.56848433401204L34.00833333333333,36.562211775702195L34.05416666666667,36.553768842464066L34.1,36.54322967777888L34.145833333333336,36.530667857679006L34.19166666666667,36.51615639224998L34.2375,36.499767727132635L34.28333333333334,36.48157374502571L34.329166666666666,36.46164576718685L34.375,36.440054554936054L34.420833333333334,36.41687031115637L34.46666666666666,36.392162681797316L34.5125,36.36600075737553L34.55833333333333,36.338453074478636L34.604166666666664,36.30958761726521L34.65,36.27947181896894L34.69583333333333,36.24817256339941L34.74166666666667,36.21575618644424L34.787499999999994,36.18228847757213L34.83333333333333,36.14783468133341L34.87916666666666,36.11245949886387L34.925,36.076227089385625L34.97083333333333,36.03920107170944L35.016666666666666,36.0014445257371L35.06250000000001,35.9630199939633L35.108333333333334,35.92398948297793L35.15416666666667,35.884414464967634L35.2,35.84435587921851L35.24583333333334,35.803874133617924L35.29166666666667,35.763029106156694L35.3375,35.72188014643099L35.38333333333333,35.680486077144494L35.42916666666667,35.63890519561052L35.475,35.597195275254634L35.520833333333336,35.555413567115366L35.56666666666666,35.51361680134775L35.6125,35.4718611887246L35.65833333333333,35.43020242213885L35.704166666666666,35.38869567810549L35.75,35.347395618264215L35.79583333333333,35.30635639088031L35.84166666666667,35.26563163234812L35.887499999999996,35.22527446869228L35.93333333333333,35.18533751706991L35.979166666666664,35.145872887272944L36.025,35.10693218323017L36.07083333333333,35.06856650450905L36.11666666666667,35.03082644781817L36.1625,34.99376210850899L36.208333333333336,34.95742308207819L36.25416666666667,34.92185846566983L36.300000000000004,34.88711685957695L36.34583333333333,34.853246368744024L36.39166666666667,34.82029460426922L36.4375,34.78830868490607L36.483333333333334,34.75733523856579L36.52916666666667,34.72742040381958L36.575,34.698609831399835L36.62083333333334,34.67094868570358L36.666666666666664,34.64448164629346L36.7125,34.61925290940016L36.75833333333333,34.595306189424576L36.80416666666666,34.57268472044018L36.849999999999994,34.55143125769432L36.895833333333336,34.531588079110946L36.94166666666667,34.51319698679261L36.9875,34.49629930852238L37.03333333333333,34.48093589926614L37.079166666666666,34.467147142674406L37.12499999999999,34.45497295258461L37.170833333333334,34.44445277452317L37.21666666666667,34.435625587207355L37.262499999999996,34.42852990404789L37.30833333333334,34.42320377465052L37.35416666666667,34.41968478631823L37.400000000000006,34.41801006555356L37.44583333333333,34.4182162795605L37.49166666666667,34.420339637746295L37.5375,34.424415893224435L37.58333333333333,34.43048034431551L37.62916666666667,34.4385678360503L37.675000000000004,34.44871276167149L37.72083333333334,34.460949064135704L37.766666666666666,34.475310237615474L37.8125,34.491829329001774L37.858333333333334,34.51053893940578L37.90416666666666,34.531471225660894L37.949999999999996,34.55465790182505L37.99583333333333,34.58013024068268L38.04166666666667,34.60791907524673L38.0875,34.638054800261116L38.13333333333333,34.670567373702056L38.17916666666667,34.70548631828123L38.224999999999994,34.74284072294678L38.27083333333333,34.78265924438617L38.31666666666666,34.82497010852785L38.362500000000004,34.869801112043575L38.40833333333333,34.91717962385036L38.454166666666666,34.967132586612564L38.50000000000001,35.019686518244214L38.545833333333334,35.07486751341061L38.59166666666667,35.132701245031L38.6375,35.193212965780134L38.68333333333333,35.25642750959075L38.729166666666664,35.32236929315542L38.775000000000006,35.391062317428734L38.82083333333334,35.46253016912934L38.86666666666667,35.53679602224216L38.9125,35.6138826395202L38.958333333333336,35.69381237398707L39.00416666666666,35.77660717043857L39.05,35.8622885669451L39.09583333333333,35.95087769635376L39.14166666666666,36.04239528779024L39.1875,36.1368616681611L39.233333333333334,36.23429676365569L39.27916666666667,36.33472010124835L39.324999999999996,36.43815081020044L39.37083333333333,36.54460762356254L39.416666666666664,36.65410887967636L39.4625,36.76667252367693L39.50833333333333,36.8823161089948L39.55416666666667,37.001056798857675L39.6,37.122911367793236L39.645833333333336,37.24789620313062L39.69166666666667,37.37602730650261L39.737500000000004,37.507320295347995L39.78333333333333,37.6417904044134L39.829166666666666,37.779452487255426L39.875,37.92032101774292L39.92083333333334,38.06441009155857L39.96666666666667,38.21173342770177L40.0125,38.36230436998987L40.05833333333334,38.51613588856088L40.104166666666664,38.67324058137535L40.15,38.83363067571831L40.19583333333333,38.997318029701646L40.24166666666666,39.16431413376584L40.287499999999994,39.33463011218241L40.333333333333336,39.50827672455574L40.37916666666667,39.68526436732536L40.425,39.865603075267785L40.47083333333333,40.049302522998886L40.516666666666666,40.23637202647582L40.56249999999999,40.42682054449914L40.608333333333334,40.62065668021479L40.65416666666667,40.817888682616456L40.699999999999996,41.01852444804726L40.74583333333334,41.22257152170238L40.79166666666667,41.430037099130374L40.837500000000006,41.64092802773625L40.88333333333333,41.85525080828258L40.92916666666667,42.07301159639229L40.975,42.294216204050386L41.02083333333333,42.51887010110616L41.06666666666667,42.74697841677528L41.112500000000004,42.97854594114173L41.15833333333334,43.21357712666024L41.204166666666666,43.452076089658064L41.25,43.69404661183698L41.295833333333334,43.93949214177587L41.34166666666666,44.18841579643225L41.387499999999996,44.44082036264476L41.43333333333333,44.69670829863493L41.47916666666667,44.95608173550956L41.525,45.21894247876264L41.57083333333333,45.48529200977741L41.61666666666667,45.755131487328626L41.662499999999994,46.02846174908445L41.70833333333333,46.305283313108625L41.75416666666666,46.585596379362585L41.800000000000004,46.869400831207464L41.84583333333333,47.15669623690628L41.891666666666666,47.44748185112595L41.93750000000001,47.74175661643938L41.983333333333334,48.039519164827624L42.02916666666667,48.3407678191819L42.075,48.64550059480568L42.12083333333333,48.953715200916754L42.166666666666664,49.26540904214945L42.212500000000006,49.58057922005657L42.25833333333334,49.89922253461158L42.30416666666667,50.221335485710526L42.35,50.54691427467446L42.395833333333336,50.87595480575108L42.44166666666666,51.2084526876172L42.4875,51.54440323488068L42.53333333333333,51.883801469582465L42.57916666666666,52.2266421226988L42.625,52.572919635643125L42.670833333333334,52.92262816176844L42.71666666666667,53.2757615678691L42.762499999999996,53.63231343568311L42.80833333333333,53.9922770633941L42.854166666666664,54.355645467133506L42.9,54.722411382482534L42.94583333333333,55.09256726597437L42.99166666666667,55.46610529659615L43.0375,55.84301737729119L43.083333333333336,56.22329513646092L43.12916666666667,56.60692992946716L43.175000000000004,56.993912840133845L43.22083333333333,57.38423468224966L43.266666666666666,57.77788600106962L43.3125,58.174857074817396L43.35833333333334,58.57513791618746L43.40416666666667,58.97871827384697L43.45,59.38558763393802L43.49583333333334,59.795735221579676L43.541666666666664,60.20915000237003L43.5875,60.62582068388838L43.63333333333333,61.045735717197154L43.67916666666666,61.46888329834421L43.724999999999994,61.89525136986476L43.770833333333336,62.32482762228344L43.81666666666667,62.757599495616596L43.8625,63.193554180874195L43.90833333333333,63.63267862156191L43.954166666666666,64.07495951518325L43.99999999999999,64.52038331474174L44.045833333333334,64.96893623024283L44.09166666666667,65.42060423019616L44.137499999999996,65.87537304311746L44.18333333333334,66.33322815903084L44.22916666666667,66.79415483097063L44.275000000000006,67.25813807648382L44.32083333333333,67.72516267913167L44.36666666666667,68.19521318999233L44.4125,68.6682739291625L44.45833333333333,69.14432898725974L44.50416666666667,69.62336222692443L44.550000000000004,70.105357284322L44.59583333333334,70.59029757064494L44.641666666666666,71.07816627361481L44.6875,71.56894635898445L44.733333333333334,72.06262057204005L44.77916666666666,72.55917143910321L44.824999999999996,73.05858126903289L44.87083333333333,73.56083215472785L44.91666666666667,74.06590597462835L44.9625,74.57378439421848L45.00833333333333,75.08444886752812L45.05416666666667,75.59788063863525L45.099999999999994,76.11406074316756L45.14583333333333,76.63297000980512L45.19166666666666,77.1545890617821L45.237500000000004,77.67889831838892L45.28333333333333,78.20587799647434L45.329166666666666,78.73550811194772L45.37500000000001,79.2677684812808L45.420833333333334,79.80263872301005L45.46666666666667,80.34009825923856L45.5125,80.88012631713835L45.55833333333333,81.42270193045218L45.604166666666664,81.96780394099589L45.650000000000006,82.51541100016038L45.69583333333334,83.06550157041366L45.74166666666667,83.61805392680294L45.7875,84.1730461584569L45.833333333333336,84.73045617008745L45.87916666666666,85.29026168349213L45.925,85.85244023905602L45.97083333333333,86.41696919725383L46.01666666666666,86.98382574015213L46.0625,87.55298687291125L46.108333333333334,88.1244294252875L46.15416666666667,88.69813005313516L46.199999999999996,89.27406523990867L46.24583333333333,89.85221129816462L46.291666666666664,90.43254437106397L46.3375,91.01504043387393L46.38333333333333,91.59967529547025L46.42916666666667,92.18642459983917L46.475,92.77526382757962L46.520833333333336,93.36616829740518L46.56666666666667,93.95911316764631L46.612500000000004,94.55407343775228L46.65833333333333,95.15102394979341L46.704166666666666,95.74993938996303L46.75,96.35079429007969L46.79583333333334,96.95356302908907L46.84166666666667,97.55821983456629L46.8875,98.16473878421782L46.93333333333334,98.77309380738367L46.979166666666664,99.38325868653942L47.025,99.99520705879829L47.07083333333333,100.60891241741331L47.11666666666666,101.22434811327939L47.162499999999994,101.84148735643527L47.208333333333336,102.46030321756578L47.25416666666667,103.08076862950391L47.3,103.7028563887327L47.34583333333333,104.32653915688768L47.391666666666666,104.95178946225857L47.43749999999999,105.57857970129166L47.483333333333334,106.20688214009171L47.52916666666667,106.83666891592414L47.574999999999996,107.46791203871713L47.62083333333334,108.10058339256366L47.66666666666667,108.73465473722354L47.712500000000006,109.37009770962561L47.75833333333333,110.00688382536978L47.80416666666667,110.64498448022913L47.85,111.2843709516519L47.89583333333333,111.92501440026378L47.94166666666667,112.56688587136979L47.987500000000004,113.20995629645648L48.03333333333334,113.85419649469404L48.079166666666666,114.4995771744382L48.125,115.14606893473261L48.170833333333334,115.7936422668107L48.21666666666666,116.44226755559784L48.262499999999996,117.09191508121344L48.30833333333333,117.74255502047302L48.35416666666667,118.39415744839027L48.4,119.04669233967925L48.44583333333333,119.70012957025631L48.49166666666667,120.35443891874228L48.537499999999994,121.00959006796458L48.58333333333333,121.66555260645923L48.62916666666666,122.322296029973L48.675000000000004,122.97978974296541L48.72083333333333,123.63800306011092L48.766666666666666,124.29690520780103L48.81250000000001,124.95646532564623L48.858333333333334,125.61665246797817L48.90416666666667,126.2774356053518L48.95,126.93878362604738L48.99583333333333,127.60066533757254L49.041666666666664,128.26304946816447L49.087500000000006,128.925904668292L49.13333333333334,129.5891995121575L49.17916666666667,130.25290249919925L49.225,130.91698205559334L49.270833333333336,131.58140653575578L49.31666666666666,132.24614422384454L49.3625,132.9111633352619L49.40833333333333,133.5764320181562L49.45416666666666,134.24191835492405L49.5,134.90759036371253L49.545833333333334,135.57341599992117L49.59166666666667,136.23936315770396L49.637499999999996,136.90539967147163L49.68333333333333,137.5714933173936L49.729166666666664,138.23761181490016L49.775,138.90372282818433L49.82083333333333,139.56979396770433L49.86666666666667,140.2357927916853L49.9125,140.90168680762162L49.958333333333336,141.5674434737789L50.00416666666667,142.23303020069602L50.050000000000004,142.8984143526875L50.09583333333333,143.56356324934507L50.141666666666666,144.22844416704024L50.1875,144.89302434042617L50.23333333333334,145.55727096393983L50.27916666666667,146.22115119330394L50.325,146.88463214702927L50.37083333333334,147.54768090791652L50.416666666666664,148.21026452455865L50.4625,148.87235001284273L50.50833333333333,149.53390435745212L50.55416666666666,150.1948945133686L50.599999999999994,150.85528740737442L50.645833333333336,151.51504993955433L50.69166666666667,152.17414898479777L50.7375,152.8325513943009L50.78333333333333,153.49022399706865L50.829166666666666,154.147133601417L50.87499999999999,154.80324699647474L50.920833333333334,155.4585309536858L50.96666666666667,156.11295222831131L51.0125,156.76647756093166L51.05833333333334,157.4190736789485L51.10416666666667,158.070707298087L51.150000000000006,158.72134512389775L51.19583333333333,159.37095385325904L51.24166666666667,160.01950017587876L51.2875,160.66695077579658L51.33333333333333,161.3132723328861L51.37916666666667,161.95843152435677L51.425000000000004,162.60239502625626L51.47083333333334,163.24512951497212L51.516666666666666,163.88660166873422L51.5625,164.52677816911682L51.608333333333334,165.1656257025404L51.65416666666666,165.803110961774L51.699999999999996,166.4392006474372L51.74583333333333,167.07386146950222L51.79166666666667,167.70706014879607L51.8375,168.33876341850248L51.88333333333333,168.9689380256641L51.92916666666667,169.59755073268468L51.974999999999994,170.22456831883093L52.02083333333333,170.84995758173486L52.06666666666666,171.4736853388955L52.1125,172.0957184291815L52.15833333333333,172.71602371433275L52.204166666666666,173.33456808046273L52.25000000000001,173.9513184395605L52.295833333333334,174.56624173099283L52.34166666666667,175.1793049230062L52.3875,175.79047501422914L52.43333333333333,176.39971903517386L52.479166666666664,177.00700404973884L52.525000000000006,177.6122971567105L52.57083333333334,178.21556549126564L52.61666666666667,178.81677622647328L52.6625,179.4158965747968L52.708333333333336,180.0128937895961L52.75416666666666,180.6077351666296L52.8,181.20038804555645L52.84583333333333,181.79081981143847L52.89166666666666,182.37899789624225L52.9375,182.9648897803414L52.983333333333334,183.54846299401842L53.02916666666667,184.12968511896702L53.074999999999996,184.70852378979396L53.12083333333333,185.28494669552134L53.166666666666664,185.8589215810885L53.2125,186.43041624885439L53.25833333333333,186.99939856009934L53.30416666666667,187.56583643652726L53.35,188.1296978617678L53.395833333333336,188.69095088287844L53.44166666666667,189.24956361184647L53.487500000000004,189.80550422709115L53.53333333333333,190.35874097496583L53.579166666666666,190.90924217125985L53.625,191.45697620270093L53.67083333333334,192.00191152845696L53.71666666666667,192.5440166816383L53.7625,193.08326027079977L53.80833333333334,193.61961098144272L53.854166666666664,194.15303757751718L53.9,194.68350890292396L53.94583333333333,195.2109938830166L53.99166666666666,195.73546152610356L54.037499999999994,196.25688092495045L54.083333333333336,196.7752212582818L54.12916666666667,197.2904517922833L54.175,197.8025418821041L54.22083333333333,198.31146097335846L54.266666666666666,198.81717860362818L54.31249999999999,199.31966440396465L54.358333333333334,199.81888810039078L54.40416666666667,200.31481951540317L54.45,200.80742856947427L54.49583333333334,201.29668528255428L54.54166666666667,201.78255977557347L54.587500000000006,202.2650222719442L54.63333333333333,202.74404309906276L54.67916666666667,203.21959268981183L54.725,203.69164158406238L54.77083333333333,204.1601604301757L54.81666666666667,204.62511998650552L54.862500000000004,205.08649112290038L54.90833333333334,205.5442448222051L54.954166666666666,205.99835218176366L55,206.44878441492045L55.04583333333333,206.89551285252315L55.09166666666667,207.33850894442415L55.137499999999996,207.77774426098313L55.18333333333332,208.21319049456878L55.229166666666664,208.64481946106122L55.275000000000006,209.07260310135376L55.32083333333333,209.49651348285536L55.36666666666666,209.91652280099217L55.4125,210.33260338071034L55.45833333333333,210.74472767797738L55.50416666666666,211.15286828128484L55.55,211.55699791314998L55.59583333333334,211.95708943161813L55.641666666666666,212.35311583176457L55.6875,212.74505024719676L55.73333333333334,213.1328659515564L55.77916666666667,213.51653636002146L55.824999999999996,213.89603503080826L55.87083333333334,214.27133566667385L55.916666666666664,214.64241211641752L55.962500000000006,215.00923837638334L56.00833333333333,215.37178859196223L56.054166666666674,215.73003705909383L56.1,216.08395822576864L56.14583333333333,216.43352669353033L56.19166666666667,216.7787172189776L56.2375,217.11950471526626L56.283333333333324,217.45586425361145L56.329166666666666,217.78777106478964L56.37500000000001,218.11520054064076L56.420833333333334,218.43812823557022L56.46666666666666,218.75652986805113L56.5125,219.0703813221262L56.55833333333333,219.37965864890998L56.604166666666664,219.6843380680909L56.65,219.98439596943345L56.69583333333333,220.27980891427995L56.74166666666667,220.57055363705297L56.7875,220.85660704675732L56.833333333333336,221.13794622848218L56.87916666666667,221.414548444903L56.925,221.68639113778374L56.97083333333334,221.95345192947894L57.016666666666666,222.21570862443593L57.06249999999999,222.47313921069667L57.108333333333334,222.7257218613999L57.154166666666676,222.9734349362834L57.2,223.21625698318587L57.24583333333333,223.454166739549L57.29166666666667,223.68714313392007L57.3375,223.9151652874532L57.383333333333326,224.13821251541196L57.42916666666667,224.35626432867156L57.474999999999994,224.5693004352205L57.520833333333336,224.77730074166308L57.56666666666666,224.9802453547212L57.612500000000004,225.1781145827366L57.65833333333333,225.37088893717282L57.70416666666666,225.55854913411747L57.75,225.74107609578414L57.795833333333334,225.91845095201464L57.84166666666666,226.09065504178082L57.8875,226.2576699146872L57.93333333333334,226.41947733247224L57.97916666666667,226.57605927051122L58.025,226.72739791931798L58.07083333333334,226.8734756860468L58.11666666666667,227.0142751959949L58.162499999999994,227.1497792941044L58.208333333333336,227.27997104646406L58.25416666666668,227.40483374181193L58.300000000000004,227.524350893037L58.34583333333333,227.6385062386815L58.39166666666667,227.747283744443L58.4375,227.85066760467618L58.48333333333333,227.94864224389556L58.52916666666667,228.04119231827679L58.574999999999996,228.1283027171595L58.62083333333332,228.20995856454863L58.666666666666664,228.2861452206173L58.712500000000006,228.3568482832083L58.75833333333333,228.4220535893364L58.80416666666666,228.48174721669056L58.85,228.53591548513572L58.89583333333333,228.5845449582151L58.94166666666666,228.62762244465222L58.9875,228.66513499985314L59.03333333333334,228.69706992740822L59.079166666666666,228.7234147805945L59.125,228.74415736387766L59.17083333333334,228.75928573441416L59.21666666666667,228.7687882035533L59.262499999999996,228.77265333833913L59.30833333333334,228.77086996301307L59.354166666666664,228.76342716051542L59.400000000000006,228.75031427398758L59.44583333333333,228.73152090827438L59.491666666666674,228.70703693142602L59.5375,228.67685247619994L59.58333333333333,228.64095794156339L59.62916666666667,228.59934399419512L59.675,228.5520015699876L59.720833333333324,228.498921875549L59.766666666666666,228.44009638970553L59.81250000000001,228.37551686500333L59.858333333333334,228.3051753292105L59.90416666666666,228.22906408681942L59.95,228.14717572054857L59.99583333333333,228.0595030928449L60.041666666666664,227.96603934738565L60.0875,227.86677791058057L60.13333333333334,227.76171249307401L60.17916666666666,227.65083709124707L60.225,227.53414598871944L60.270833333333336,227.41163375785175L60.31666666666667,227.28329526124762L60.3625,227.14912565325545L60.40833333333334,227.0091203814711L60.454166666666666,226.86327518823933L60.49999999999999,226.7115861121563L60.545833333333334,226.5540494895714L60.591666666666676,226.3906619560898L60.6375,226.22142044807376L60.68333333333333,226.04632220414555L60.72916666666667,225.8653647666889L60.775,225.67854598335146L60.820833333333326,225.48586400854686L60.86666666666667,225.28731730495645L60.912499999999994,225.0829046450318L60.958333333333336,224.87262511249668L61.00416666666666,224.65647810384888L61.050000000000004,224.43446332986292L61.09583333333333,224.20658081709124L61.14166666666666,223.97283090936702L61.1875,223.73321426930613L61.233333333333334,223.4877318798089L61.27916666666667,223.2363850455625L61.325,222.979175394543L61.37083333333334,222.71610487951733L61.41666666666667,222.4471757795455L61.4625,222.17239070148247L61.50833333333334,221.89175258148063L61.55416666666667,221.60526468649152L61.599999999999994,221.31293061576804L61.645833333333336,221.01475430236655L61.69166666666668,220.71074001464896L61.737500000000004,220.40089235778487L61.78333333333333,220.08521627525352L61.82916666666667,219.76371705034592L61.875,219.4364003076671L61.92083333333333,219.10327201463795L61.96666666666667,218.76433848299752L62.012499999999996,218.41960637030488L62.05833333333332,218.06908268144147L62.104166666666664,217.712774770113L62.150000000000006,217.35069034035155L62.19583333333333,216.98283744801773L62.24166666666666,216.60922450230288L62.2875,216.22986026723078L62.33333333333333,215.84475386315998L62.37916666666666,215.4539147682862L62.425,215.05735282014373L62.47083333333333,214.65507821710804L62.516666666666666,214.24710151989774L62.5625,213.8334336530765L62.60833333333334,213.41408590655539L62.65416666666667,212.98906993709483L62.699999999999996,212.55839776980667L62.74583333333334,212.12208179965634L62.791666666666664,211.68013479296485L62.837500000000006,211.23256988891103L62.88333333333333,210.7794006010334L62.929166666666674,210.32064081873244L62.975,209.85630480877256L63.02083333333333,209.38640721678433L63.06666666666667,208.91096306876636L63.1125,208.4299877725875L63.158333333333324,207.94349711948914L63.204166666666666,207.45150728558679L63.25000000000001,206.95403483337267L63.295833333333334,206.45109671321748L63.34166666666666,205.94271026487263L63.3875,205.42889321897235L63.43333333333333,204.90966369853567L63.479166666666664,204.38504022046845L63.525,203.85504169706581L63.57083333333334,203.3196874375138L63.61666666666666,202.77899714939178L63.6625,202.23299094017426L63.708333333333336,201.68168931873328L63.75416666666667,201.12511319684018L63.8,200.56328389066795L63.84583333333334,199.9962231222933L63.891666666666666,199.42395302119849L63.93749999999999,198.84649612577363L63.983333333333334,198.26387538481873L64.02916666666667,197.67611415904594L64.075,197.0832362225812L64.12083333333334,196.48526576446687L64.16666666666667,195.88222739016334L64.2125,195.27414612305148L64.25833333333333,194.66104740593454L64.30416666666667,194.04295710254024L64.35,193.4199014990229L64.39583333333334,192.79190730546554L64.44166666666666,192.15900165738202L64.48750000000001,191.52121211721885L64.53333333333333,190.8785666758577L64.57916666666667,190.23109375411715L64.625,189.57882220425483L64.67083333333333,188.92178131146983L64.71666666666667,188.26000079540427L64.7625,187.59351081164567L64.80833333333334,186.9223419532292L64.85416666666667,186.2465252521394L64.89999999999999,185.56609218081252L64.94583333333334,184.88107465363856L64.99166666666666,184.1915050284632L65.0375,183.49741610809022L65.08333333333333,182.7988411417832L65.12916666666668,182.09581382676788L65.175,181.38836830973418L65.22083333333333,180.67653918833827L65.26666666666667,179.96036151270454L65.3125,179.23987078692795L65.35833333333333,178.51510297057587L65.40416666666667,177.78609448019023L65.45,177.0528821907899L65.49583333333332,176.31550343737217L65.54166666666667,175.57399601641538L65.5875,174.8283981873808L65.63333333333334,174.07874867421475L65.67916666666666,173.3250866668505L65.72500000000001,172.56745182271086L65.77083333333333,171.80588426820947L65.81666666666666,171.04042460025386L65.8625,170.2711138877466L65.90833333333333,169.49799367308808L65.95416666666667,168.72110597367805L66,167.94049328341848L66.04583333333333,167.15619857421459L66.09166666666667,166.36826529747788L66.13749999999999,165.5767373856277L66.18333333333334,164.78165925359346L66.22916666666666,163.98307580031678L66.275,163.18103241025358L66.32083333333333,162.37557495487593L66.36666666666667,161.56674979417448L66.4125,160.7546037781605L66.45833333333333,159.93918424836755L66.50416666666666,159.12053903935416L66.55,158.29871648020534L66.59583333333333,157.4737653960354L66.64166666666667,156.6457351094891L66.68750000000001,155.81467544224458L66.73333333333333,154.98063671651488L66.77916666666667,154.14366975655054L66.825,153.303825890141L66.87083333333334,152.46115695011747L66.91666666666666,151.6157152758543L66.9625,150.76755371477168L67.00833333333334,149.91672562383718L67.05416666666666,149.0632848710683L67.1,148.20728583703428L67.14583333333334,147.34878341635826L67.19166666666666,146.4878330192194L67.2375,145.62449057285494L67.28333333333333,144.75881252306218L67.32916666666667,143.89085583570088L67.37499999999999,143.02067799819494L67.42083333333333,142.14833702103476L67.46666666666667,141.2738914392793L67.5125,140.39740031405816L67.55833333333334,139.51892323407338L67.60416666666667,138.6385203171021L67.65,137.75625221149807L67.69583333333333,136.87218009769404L67.74166666666667,135.98636568970403L67.7875,135.0988712366248L67.83333333333334,134.20975952413875L67.87916666666666,133.31909387601505L67.92500000000001,132.4269381556128L67.97083333333333,131.53335676738217L68.01666666666667,130.63841465836717L68.0625,129.74217731970722L68.10833333333333,128.8447107881397L68.15416666666667,127.94608164750154L68.2,127.04635703023189L68.24583333333334,126.14560461887363L68.29166666666667,125.24389264757582L68.33749999999999,124.34128990359574L68.38333333333334,123.43786572880096L68.42916666666666,122.53369002117114L68.475,121.62883323630068L68.52083333333333,120.72336638890025L68.56666666666668,119.81736105429937L68.6125,118.91088936994797L68.65833333333333,118.00402403691905L68.70416666666667,117.09683832141022L68.75,116.1894060562462L68.79583333333333,115.28180164238067L68.84166666666667,114.37410005039852L68.8875,113.46637682201772L68.93333333333332,112.55870807159171L68.97916666666667,111.65117048761118L69.025,110.7438413342064L69.07083333333334,109.83679845264906L69.11666666666666,108.93012026285467L69.16250000000001,108.02388576488434L69.20833333333333,107.11817454044703L69.25416666666666,106.21306675440181L69.3,105.30864315625934L69.34583333333333,104.40498508168474L69.39166666666667,103.50217445399909L69.4375,102.60029378568186L69.48333333333333,101.6994261798727L69.52916666666667,100.79965533187402L69.57499999999999,99.90106553065226L69.62083333333334,99.00374166034092L69.66666666666666,98.10776920174183L69.7125,97.21323423382799L69.75833333333333,96.32022343524494L69.80416666666667,95.42882408581328L69.85,94.53912406803076L69.89583333333333,93.65121186857404L69.94166666666666,92.76517657980123L69.9875,91.88110790125353L70.03333333333333,90.99909614115779L70.07916666666667,90.11923221792802L70.12500000000001,89.241607661668L70.17083333333333,88.36631461567313L70.21666666666667,87.49344583793263L70.2625,86.6230947026313L70.30833333333334,85.75535520165218L70.35416666666666,84.89032194607799L70.4,84.02809016769376L70.44583333333334,83.16875572048855L70.49166666666666,82.3124150821579L70.5375,81.45916535560536L70.58333333333334,80.60910427044529L70.62916666666666,79.76233018450421L70.675,78.91894208532366L70.72083333333333,78.0790395916614L70.76666666666667,77.24272295499438L70.81249999999999,76.41009306102015L70.85833333333333,75.5812514311595L70.90416666666667,74.75630022405792L70.95,73.93534223708824L70.99583333333334,73.1184809078526L71.04166666666667,72.30582031568414L71.0875,71.49746518314976L71.13333333333333,70.69352087755155L71.17916666666667,69.89409341242923L71.225,69.09928944906233L71.27083333333334,68.30921629797199L71.31666666666666,67.52398192042318L71.36250000000001,66.74369492992676L71.40833333333333,65.96846459374181L71.45416666666667,65.19840083437711L71.5,64.43361423109394L71.54583333333333,63.67421602140781L71.59166666666667,62.92031810259039L71.6375,62.17203303317204L71.68333333333334,61.429474034443366L71.72916666666667,60.69275499195789L71.77499999999999,59.96199045703358L71.82083333333334,59.23729564825538L71.86666666666666,58.51878645297695L71.9125,57.80657942882301L71.95833333333333,57.10079180519128L72.00416666666668,56.40154148475469L72.05,55.70894704496331L72.09583333333333,55.0231277395465L72.14166666666667,54.34420350001509L72.1875,53.67229493716351L72.23333333333333,53.00752334257146L72.27916666666667,52.35001069010646L72.325,51.699879637425845L72.37083333333332,51.057253527478615L72.41666666666667,50.42225639000792L72.4625,49.795012943052676L72.50833333333334,49.175648594450024L72.55416666666666,48.56428944333723L72.60000000000001,47.96106228165385L72.64583333333333,47.36609459564392L72.69166666666666,46.77951456735764L72.7375,46.201451076154015L72.78333333333333,45.63203370020241L72.82916666666667,45.07139271798515L72.875,44.519659109799235L72.92083333333333,43.97696455925838L72.96666666666667,43.4434414547957L73.01249999999999,42.919222891164765L73.05833333333334,42.404442670942814L73.10416666666666,41.89923530603194L73.15,41.4037360191618L73.19583333333333,40.918080745391435L73.24166666666667,40.4424061336111L73.2875,39.976849548044896L73.33333333333333,39.52154906975262L73.37916666666666,39.07664349813166L73.425,38.64227235241904L73.47083333333333,38.218575873194055L73.51666666666667,37.805695023880205L73.56250000000001,37.40377149224652L73.60833333333332,37.01294769191051L73.65416666666667,36.6333667638397L73.69999999999999,36.26517257785457L73.74583333333334,35.90850973412957L73.79166666666667,35.563523564695615L73.8375,35.230360134942444L73.88333333333334,34.909166245120645L73.92916666666666,34.600089431843074L73.975,34.30327796958818L74.02083333333333,34.018880872200626L74.06666666666666,33.74704789439491L74.11250000000001,33.48792953325598L74.15833333333333,33.241677029742505L74.20416666666668,33.008442370187936L74.24999999999999,32.78837828780385L74.29583333333333,32.58163826418067L74.34166666666667,32.38837653079064L74.3875,32.208748070489776L74.43333333333334,32.04290861901987L74.47916666666667,31.891014666509975L74.52499999999999,31.753223458980045L74.57083333333333,31.629692999841154L74.61666666666667,31.520582051398932L74.6625,31.42605013635513L74.70833333333334,31.346257539309804L74.75416666666666,31.281365308263076L74.80000000000001,31.23153525611808L74.84583333333332,31.196929962181954L74.89166666666667,31.177712773668546L74.9375,31.17404780720078L74.98333333333333,31.186099950312055L75.02916666666667,31.214034862948537L75.075,31.25801897897165L75.12083333333334,31.318219507659805L75.16666666666666,31.394804435210546L75.21249999999999,31.487942526242577L75.25833333333334,31.59780332529793L75.30416666666666,31.72455715834414L75.35000000000001,31.86837513427605L75.39583333333333,32.02942914641832L75.44166666666668,32.20789187402703L75.4875,32.403936783792304L75.53333333333333,32.61773813133985L75.57916666666667,32.84947096273336L75.625,33.09931111597675L75.67083333333333,33.367435222515624L75.71666666666667,33.65402070874026L75.7625,33.959245797486844L75.80833333333332,34.28328950953994L75.85416666666667,34.62633166513494L75.89999999999999,34.98855288545924L75.94583333333334,35.370134594155346L75.99166666666666,35.77125901882215L76.03750000000001,36.19210919251741L76.08333333333334,36.63286895525977L76.12916666666666,37.09372295553115L76.175,37.574856651777864L76.22083333333333,38.07645631391418L76.26666666666667,38.59870902482288L76.3125,39.141802681858664L76.35833333333333,39.70592599834899L76.40416666666668,40.29126850509756L76.44999999999999,40.89802055188491L76.49583333333334,41.52637330897207L76.54166666666666,42.17651876860094L76.5875,42.848649746497856L76.63333333333333,43.54295988337496L76.67916666666667,44.25964364643232L76.72500000000001,44.99889633086033L76.77083333333333,45.760914061340955L76.81666666666666,46.54589379355134L76.8625,47.35403331566439L76.90833333333333,48.18553124985161L76.95416666666667,49.04058705378502L77.00000000000001,49.919401022139276L77.04583333333332,50.82217428809408L77.09166666666667,51.749108824835346L77.13749999999999,52.700407447058L77.18333333333334,53.67627381246854L77.22916666666667,54.676912423285586L77.275,55.70252862774395L77.32083333333334,56.75332862159474L77.36666666666666,57.82951944960891L77.4125,58.93130900707904L77.45833333333333,60.05890604132032L77.50416666666666,61.21252015317434L77.55000000000001,62.3923617985101L77.59583333333333,63.598642289726214L77.64166666666668,64.83157379725361L77.68749999999999,66.09136935105661L77.73333333333333,67.3782428421356L77.77916666666667,68.69240902402959L77.825,70.03408351431742L77.87083333333334,71.40348279612007L77.91666666666667,72.80082421960296L77.96249999999999,74.22632600347825L78.00833333333333,75.68020723650642L78.05416666666667,77.16268787899885L78.1,78.67398876431875L78.14583333333334,80.21433160038549L78.19166666666666,81.78393897117404L78.23750000000001,83.38303433821977L78.28333333333332,85.01184204211742L78.32916666666667,86.67058730402601L78.375,88.35949622716947L78.42083333333333,90.0787957983396L78.46666666666667,91.82871388939628L78.5125,93.60947925877257L78.55833333333334,95.42132155297396L78.60416666666666,97.26447130808171L78.64999999999999,99.13915995125559L78.69583333333334,101.0456198022343L78.74166666666666,102.98408407483892L78.78750000000001,104.95478687847488L78.83333333333333,106.957963219633L78.87916666666668,108.99384900339257L78.925,111.06268103492351L78.97083333333333,113.16469702098784L79.01666666666667,115.30013557144218L79.0625,117.46923620073909L79.10833333333333,119.67223932943074L79.15416666666667,121.909386285669L79.2,124.18091930670977L79.24583333333332,126.4870815404126L79.29166666666667,128.8281170467448L79.33749999999999,131.20427079928243L79.38333333333334,133.61578868671288L79.42916666666666,136.0629175143366L79.47500000000001,138.54590500556898L79.52083333333334,141.06499980344435L79.56666666666666,143.62045147211506L79.6125,146.21251049835524L79.65833333333333,148.8414282930628L79.70416666666667,151.50745719276196L79.75,154.21085046110488L79.79583333333333,156.95186229037196L79.84166666666668,159.73074780297753L79.88749999999999,162.54776305296966L79.93333333333334,165.4031650275317L79.97916666666666,168.2972116484864L80.025,171.23016177379586L80.07083333333333,174.2022751990654L80.11666666666667,177.21381265904517L80.16250000000001,180.26503582913057L80.20833333333333,183.35620732686687L80.25416666666666,186.48759071345012L80.3,189.65945049522895L80.34583333333333,192.87205212520706L80.39166666666667,196.12566200454495L80.43750000000001,199.4205474840628L80.48333333333332,202.75697686574148L80.52916666666667,206.13521940422595L80.57499999999999,209.55554530832558L80.62083333333334,213.01822574251815L80.66666666666667,216.52353282845053L80.7125,220.07173964644164L80.75833333333334,223.66312023698327L80.80416666666666,227.2979496022445L80.85,230.97650370757117L80.89583333333333,234.6990594829903L80.94166666666666,238.46589482470864L80.98750000000001,242.27728859662056L81.03333333333333,246.13352063180392L81.07916666666668,250.03487173402678L81.12499999999999,253.98162367924584L81.17083333333333,257.9740592171122L81.21666666666667,262.0124620724703L81.2625,266.0971169468627L81.30833333333334,270.22830952002846L81.35416666666667,274.40632645141L81.39999999999999,278.6314553816513L81.44583333333333,282.9039849341018L81.49166666666667,287.22420471631875L81.5375,291.5924053215667L81.58333333333334,296.00887833032357L81.62916666666666,300.47391631177976L81.67500000000001,304.9878128253421L81.72083333333332,309.5508624221336L81.76666666666667,314.1633606464977L81.8125,318.82560403749926L81.85833333333333,323.5378901304284L81.90416666666667,328.3005174582987L81.95,333.1137855533541L81.99583333333334,337.97799494856673L82.04166666666666,342.8934471791436L82.08749999999999,347.8604447840228L82.13333333333334,352.8792913073807L82.17916666666666,357.950291300132L82.22500000000001,363.0737503214321L82.27083333333333,368.2499749401774L82.31666666666668,373.4792727365114L82.3625,378.7619523033232L82.40833333333333,384.0983232477507L82.45416666666667,389.4886961926824L82.5,394.9333827782616L82.54583333333333,400.43269566338444L82.59166666666667,405.98694852720655L82.6375,411.59645607064175L82.68333333333332,417.2615340178646L82.72916666666667,422.9824991178145L82.77499999999999,428.7596691456958L82.82083333333334,434.59336290448164L82.86666666666666,440.48390022641166L82.91250000000001,446.4316019745015L82.95833333333334,452.4367900440384L83.00416666666666,458.49978736408667L83.05,464.62091789898744L83.09583333333333,470.80050664986237L83.14166666666667,477.03887965611693L83.1875,483.33636399694L83.23333333333333,489.69328779280573L83.27916666666668,496.10998020697855L83.32499999999999,502.5867714470127L83.37083333333334,509.12399276625626L83.41666666666666,515.7219764653498L83.4625,522.3810558937336L83.50833333333333,529.1015654511441L83.55416666666667,535.883840589122L83.60000000000001,542.7282178125079L83.64583333333333,549.63503468095L83.69166666666666,556.6046298104025L83.7375,563.6373428746306L83.78333333333333,570.7335146067094L83.82916666666667,577.8934868005274L83.87500000000001,585.1176023122907L83.92083333333332,592.4062050620214L83.96666666666667,599.7596400350631L84.01249999999999,607.1782532835798L84.05833333333334,614.6623919280592L84.10416666666667,622.2124041588165L84.15,629.8286392374964L84.19583333333334,637.51144749857L84.24166666666666,645.2611803508431L84.2875,653.0781902789569L84.33333333333333,660.9628308448875L84.37916666666666,668.9154566894501L84.42500000000001,676.9364235338011L84.47083333333333,685.0260881809385L84.51666666666668,693.1848085172074L84.56249999999999,701.4129435137982L84.60833333333333,709.7108532282493L84.65416666666667,718.0788988059537L84.7,726.517442481655L84.74583333333334,735.0268475809524L84.79166666666667,743.6074785218033L84.83749999999999,752.2597008160242L84.88333333333333,760.9838810707928L84.92916666666667,769.7803869901527L84.975,778.6495873765099L85.02083333333334,787.5918521321396L85.06666666666666,796.6075522606889L85.11250000000001,805.697059868675L85.15833333333332,814.8607481669884L85.20416666666667,824.0989914723972L85.25,833.4121652090478L85.29583333333333,842.800645909968L85.34166666666667,852.264811218565L85.3875,861.8050398901332L85.43333333333334,871.4217117933525L85.47916666666666,881.1152079117935L85.52499999999999,890.8859103454131L85.57083333333334,900.7342023120659L85.61666666666666,910.6604681489993L85.66250000000001,920.6650933143592L85.70833333333333,930.7484643886874L85.75416666666668,940.9109690764301L85.8,951.152996207436L85.84583333333333,961.47493573846L85.89166666666667,971.8771787546618L85.9375,982.3601174711132L85.98333333333333,992.9241452342978L86.02916666666667,1003.5696565236118L86.075,1014.2970469528681L86.12083333333332,1025.1067132717963L86.16666666666667,1035.9990533675464L86.21249999999999,1046.9744662661924L86.25833333333334,1058.0333521342318L86.30416666666666,1069.1761122800854L86.35000000000001,1080.4031491556061L86.39583333333334,1091.7148663575756L86.44166666666666,1103.1116686292098L86.4875,1114.5939618616558L86.53333333333333,1126.1621530955L86.57916666666667,1137.816650522268L86.625,1149.5578634859264L86.67083333333333,1161.3862024843818L86.71666666666668,1173.3020791709887L86.76249999999999,1185.3059063560481L86.80833333333334,1197.3980980083124L86.85416666666666,1209.57906925648L86.9,1221.8492363907071L86.94583333333333,1234.209016864105L86.99166666666667,1246.6588292942417L87.03750000000001,1259.1990934646437L87.08333333333333,1271.8302303263015L87.12916666666666,1284.5526619991685L87.175,1297.3668117736652L87.22083333333333,1310.2731041121792L87.26666666666667,1323.2719646505661L87.31250000000001,1336.3638201996566L87.35833333333332,1349.549098746756L87.40416666666667,1362.8282294571454L87.44999999999999,1376.201642675581L87.49583333333334,1389.6697699278047L87.54166666666667,1403.2330439220382L87.5875,1416.8918985504895L87.63333333333334,1430.6467688908504L87.67916666666666,1444.498091207805L87.725,1458.4463029545263L87.77083333333333,1472.491842774184L87.81666666666666,1486.6351505014356L87.86250000000001,1500.876667163944L87.90833333333333,1515.216834983866L87.95416666666668,1529.6560973793635L87.99999999999999,1544.1948989660982L88.04583333333333,1558.8336855587406L88.09166666666667,1573.5729041724665L88.1375,1588.4130030244648L88.18333333333334,1603.354431535432L88.22916666666667,1618.397640331081L88.27499999999999,1633.5430812436416L88.32083333333333,1648.7912073133598L88.36666666666667,1664.1424727900032L88.4125,1679.5973331343598L88.45833333333334,1695.156245019744L88.50416666666666,1710.8196663334957L88.55000000000001,1726.5880561784863L88.59583333333332,1742.4618748746118L88.64166666666667,1758.4415839603041L88.6875,1774.527646194033L88.73333333333333,1790.7205255558026L88.77916666666667,1807.0206872486524L88.825,1823.4285977001684L88.87083333333334,1839.9447245639776L88.91666666666666,1856.569536721255L88.96249999999999,1873.3035042822162L89.00833333333334,1890.1470985876313L89.05416666666666,1907.1007922103236L89.10000000000001,1924.1650589566675L89.14583333333333,1941.3403738680902L89.19166666666668,1958.6272132225802L89.2375,1976.0260545361868L89.28333333333333,1993.5373765645206L89.32916666666667,2011.1616593042525L89.375,2028.899383994625L89.42083333333333,2046.7510331189442L89.46666666666667,2064.717090406091L89.5125,2082.7980408320154L89.55833333333332,2100.9943706212403L89.60416666666667,2119.306567248371L89.64999999999999,2137.735119439586L89.69583333333334,2156.280517174149L89.74166666666666,2174.943251685901L89.78750000000001,2193.723815464773L89.83333333333334,2212.6227022582816L89.87916666666666,2231.640407073033L89.925,2250.77742617622L89.97083333333333,2270.034257097135L90.01666666666667,2289.4113986286616L90.0625,2308.9093508287847L90.10833333333333,2328.5286150220836L90.15416666666668,2348.2696938012427L90.19999999999999,2368.1330910285506L90.24583333333334,2388.1193118374L90.29166666666666,2408.228862633791L90.3375,2428.4622510978343L90.38333333333333,2448.8199861852536L90.42916666666667,2469.302578128889L90.47500000000001,2489.910538440189L90.52083333333333,2510.644379910727L90.56666666666666,2531.5046166136963L90.6125,2552.491763905411L90.65833333333333,2573.606338426812L90.70416666666667,2594.848858104961L90.75000000000001,2616.2198421545554L90.79583333333332,2637.719811079421L90.84166666666667,2659.3492866740166L90.88749999999999,2681.108792024933L90.93333333333334,2702.998851512403L90.97916666666667,2725.0199908117947L91.025,2747.172736895122L91.07083333333334,2769.4576180325353L91.11666666666666,2791.8751637938367L91.1625,2814.4259050499727L91.20833333333333,2837.110373974542L91.25416666666666,2859.9291040452904L91.30000000000001,2882.8826300456226L91.34583333333333,2905.9714880660954L91.39166666666668,2929.1962155059286L91.43749999999999,2952.557351074493L91.48333333333333,2976.05543479283L91.52916666666667,2999.6910079951435L91.575,3023.464613330302L91.62083333333334,3047.376794763341L91.66666666666667,3071.42809757697L91.71249999999999,3095.619068373069L91.75833333333333,3119.950255074194L91.80416666666667,3144.422206925076L91.85,3169.0354744941255L91.89583333333334,3193.7906096749407L91.94166666666668,3218.6881656877863L91.98750000000001,3243.7286970811265L92.03333333333332,3268.9127597331076L92.07916666666667,3294.240910853068L92.125,3319.7137089830326L92.17083333333333,3345.3317139992255L92.21666666666665,3371.0954871135623L92.26250000000002,3397.0055908751597L92.30833333333334,3423.0625891718264L92.35416666666666,3449.2670472315785L92.39999999999999,3475.6195316241397L92.44583333333334,3502.1206102624337L92.49166666666666,3528.770852404095L92.5375,3555.5708286529666L92.58333333333333,3582.521110960605L92.62916666666668,3609.622272627785L92.675,3636.8748883059848L92.72083333333333,3664.279533998913L92.76666666666667,3691.8367870639986L92.8125,3719.547226213887L92.85833333333333,3747.4114315179527L92.90416666666667,3775.4299844037955L92.95,3803.603467658746L92.99583333333332,3831.9324654313637L93.04166666666667,3860.417563232945L93.0875,3889.059347939012L93.13333333333334,3917.8584077908313L93.17916666666666,3946.8153323969113L93.22500000000001,3975.930712734496L93.27083333333334,4005.2051411510793L93.31666666666666,4034.639211365894L93.36249999999998,4064.233518471422L93.40833333333335,4093.9886589349053L93.45416666666667,4123.905230599816L93.5,4153.9838326874005L93.54583333333333,4184.225065798151L93.59166666666668,4214.629531913325L93.63749999999999,4245.197834396434L93.68333333333332,4275.930577994754L93.72916666666666,4306.828368840824L93.775,4337.891814453955L93.82083333333333,4369.121523741717L93.86666666666667,4400.518107001458L93.91250000000001,4432.082175921797L93.95833333333333,4463.8143435841275L94.00416666666666,4495.715224464121L94.05,4527.785434433226L94.09583333333333,4560.025590760174L94.14166666666667,4592.43631211248L94.18750000000001,4625.018218557946L94.23333333333335,4657.771931566148L94.27916666666667,4690.698074009972L94.32499999999999,4723.797270167078L94.37083333333334,4757.070145721434L94.41666666666667,4790.5173277647955L94.4625,4824.139444798215L94.50833333333331,4857.937126733547L94.55416666666669,4891.911004894957L94.6,4926.061712020391L94.64583333333333,4960.389882263124L94.69166666666666,4994.896151193229L94.73750000000001,5029.581155799093L94.78333333333333,5064.445534488912L94.82916666666665,5099.4899270922015L94.87499999999999,5134.714974861288L94.92083333333333,5170.121320472826L94.96666666666667,5205.70960802927L95.0125,5241.480483060419L95.05833333333334,5277.434592524891L95.10416666666667,5313.572584811624L95.14999999999999,5349.895109741395L95.19583333333333,5386.402818568305L95.24166666666667,5423.096363981291L95.2875,5459.976400105626L95.33333333333334,5497.043582504426L95.37916666666668,5534.298568180129L95.42500000000001,5571.7420155760265L95.47083333333332,5609.3745845777585L95.51666666666667,5647.196936514803L95.5625,5685.209734161989L95.60833333333333,5723.413641740995L95.65416666666665,5761.80932492185L95.70000000000002,5800.397450824447L95.74583333333334,5839.178688020011L95.79166666666666,5878.153706532648L95.83749999999999,5917.323177840819L95.88333333333334,5956.687774878846L95.92916666666666,5996.248172038412L95.975,6036.0050451700745L96.02083333333333,6075.959071584753L96.06666666666668,6116.110930055249L96.1125,6156.461300817712L96.15833333333333,6197.010865573193L96.20416666666667,6237.760307489107" style="stroke-width: 2px; stroke: black; fill: none; opacity: 1;"></path><g class="grid" transform="translate(0,55)" fill="none" font-size="10" font-family="sans-serif" text-anchor="middle"><path class="domain" stroke="#000" d="M0.5,2V0.5H110.5V2"></path><g class="tick" opacity="1" transform="translate(55.5,0)"><line stroke="#000" y2="2"></line><text fill="#000" y="5" dy="0.71em">0</text></g></g></svg><g><circle cx="33" cy="36.06143382830206" r="2" style="stroke-width: 1px; stroke: black; fill: white;"></circle><circle cx="34.83333333333333" cy="36.14783468133341" r="2" style="stroke-width: 1px; stroke: black; fill: white;"></circle><circle cx="36.666666666666664" cy="34.64448164629346" r="2" style="stroke-width: 1px; stroke: black; fill: white;"></circle><circle cx="38.50000000000001" cy="35.019686518244214" r="2" style="stroke-width: 1px; stroke: black; fill: white;"></circle><circle cx="40.333333333333336" cy="39.50827672455574" r="2" style="stroke-width: 1px; stroke: black; fill: white;"></circle><circle cx="69.66666666666666" cy="98.10776920174183" r="2" style="stroke-width: 1px; stroke: black; fill: white;"></circle><circle cx="71.5" cy="64.43361423109394" r="2" style="stroke-width: 1px; stroke: black; fill: white;"></circle><circle cx="73.33333333333333" cy="39.52154906975262" r="2" style="stroke-width: 1px; stroke: black; fill: white;"></circle><circle cx="75.16666666666666" cy="31.394804435210546" r="2" style="stroke-width: 1px; stroke: black; fill: white;"></circle><circle cx="77.00000000000001" cy="49.919401022139276" r="2" style="stroke-width: 1px; stroke: black; fill: white;"></circle></g><g><circle cx="33" cy="82.5" r="2" style="stroke-width: 8px; stroke: rgba(255, 255, 255, 0.1); fill: black;"></circle><circle cx="34.83333333333333" cy="91.66666666666667" r="2" style="stroke-width: 8px; stroke: rgba(255, 255, 255, 0.1); fill: black;"></circle><circle cx="36.666666666666664" cy="100.83333333333333" r="2" style="stroke-width: 8px; stroke: rgba(255, 255, 255, 0.1); fill: black;"></circle><circle cx="38.50000000000001" cy="82.5" r="2" style="stroke-width: 8px; stroke: rgba(255, 255, 255, 0.1); fill: black;"></circle><circle cx="40.333333333333336" cy="73.33333333333334" r="2" style="stroke-width: 8px; stroke: rgba(255, 255, 255, 0.1); fill: black;"></circle><circle cx="69.66666666666666" cy="45.83333333333333" r="2" style="stroke-width: 8px; stroke: rgba(255, 255, 255, 0.1); fill: black;"></circle><circle cx="71.5" cy="36.66666666666667" r="2" style="stroke-width: 8px; stroke: rgba(255, 255, 255, 0.1); fill: black;"></circle><circle cx="73.33333333333333" cy="27.5" r="2" style="stroke-width: 8px; stroke: rgba(255, 255, 255, 0.1); fill: black;"></circle><circle cx="75.16666666666666" cy="36.66666666666667" r="2" style="stroke-width: 8px; stroke: rgba(255, 255, 255, 0.1); fill: black;"></circle><circle cx="77.00000000000001" cy="45.83333333333333" r="2" style="stroke-width: 8px; stroke: rgba(255, 255, 255, 0.1); fill: black;"></circle></g><g><path d="M0,93.86666532000005L35.75,86.71666688L35.75,77.18333335999999L0,48.58333569999992Z" style="stroke: rgb(32, 116, 160); fill: white; opacity: 0.001;"></path><path d="M0,103.40000312000022L51.638885644444855,93.07222148444454L35.75,86.71666688L0,93.86666532000005Z" style="stroke: rgb(32, 116, 160); fill: white; opacity: 0.001;"></path><path d="M106.83333436776861,110L88.82017485069252,96.7903497966482L51.638885644444855,93.07222148444454L0,103.40000312000022L0,110Z" style="stroke: rgb(32, 116, 160); fill: white; opacity: 0.001;"></path><path d="M35.75,77.18333335999999L35.75,86.71666688L51.638885644444855,93.07222148444454L88.82017485069252,96.7903497966482L78.24019435467139,85.68137037681674Z" style="stroke: rgb(32, 116, 160); fill: white; opacity: 0.001;"></path><path d="M0,48.58333569999992L35.75,77.18333335999999L78.24019435467139,85.68137037681674L73.3333335,79.13888917777778L30.250002053846153,33.18333459076926L15.58333876153781,20.71667043230725L0,9.496666442399992Z" style="stroke: rgb(32, 116, 160); fill: white; opacity: 0.001;"></path><path d="M30.250002053846153,33.18333459076926L73.3333335,79.13888917777778L73.3333335,41.79999993999999Z" style="stroke: rgb(32, 116, 160); fill: white; opacity: 0.001;"></path><path d="M15.58333876153781,20.71667043230725L30.250002053846153,33.18333459076926L73.3333335,41.79999993999999L73.3333335,32.26666685999999Z" style="stroke: rgb(32, 116, 160); fill: white; opacity: 0.001;"></path><path d="M0,9.496666442399992L15.58333876153781,20.71667043230725L73.3333335,32.26666685999999L110,24.933331160000105L110,0L0,0Z" style="stroke: rgb(32, 116, 160); fill: white; opacity: 0.001;"></path><path d="M73.3333335,32.26666685999999L73.3333335,41.79999993999999L110,34.46666744000001L110,24.933331160000105Z" style="stroke: rgb(32, 116, 160); fill: white; opacity: 0.001;"></path><path d="M73.3333335,41.79999993999999L73.3333335,79.13888917777778L78.24019435467139,85.68137037681674L88.82017485069252,96.7903497966482L106.83333436776861,110L110,110L110,34.46666744000001Z" style="stroke: rgb(32, 116, 160); fill: white; opacity: 0.001;"></path></g><g><line x1="33" y1="82.5" x2="33" y2="36.06143382830206" style="stroke-width: 0px; stroke: red;"></line><line x1="34.83333333333333" y1="91.66666666666667" x2="34.83333333333333" y2="36.14783468133341" style="stroke-width: 0px; stroke: red;"></line><line x1="36.666666666666664" y1="100.83333333333333" x2="36.666666666666664" y2="34.64448164629346" style="stroke-width: 0px; stroke: red;"></line><line x1="38.50000000000001" y1="82.5" x2="38.50000000000001" y2="35.019686518244214" style="stroke-width: 0px; stroke: red;"></line><line x1="40.333333333333336" y1="73.33333333333334" x2="40.333333333333336" y2="39.50827672455574" style="stroke-width: 0px; stroke: red;"></line><line x1="69.66666666666666" y1="45.83333333333333" x2="69.66666666666666" y2="98.10776920174183" style="stroke-width: 0px; stroke: red;"></line><line x1="71.5" y1="36.66666666666667" x2="71.5" y2="64.43361423109394" style="stroke-width: 0px; stroke: red;"></line><line x1="73.33333333333333" y1="27.5" x2="73.33333333333333" y2="39.52154906975262" style="stroke-width: 0px; stroke: red;"></line><line x1="75.16666666666666" y1="36.66666666666667" x2="75.16666666666666" y2="31.394804435210546" style="stroke-width: 0px; stroke: red;"></line><line x1="77.00000000000001" y1="45.83333333333333" x2="77.00000000000001" y2="49.919401022139276" style="stroke-width: 0px; stroke: red;"></line></g></svg>