<svg xmlns="http://www.w3.org/2000/svg" xmlns:xlink="http://www.w3.org/1999/xlink" style="position: absolute; left: 0px; width: 95px; height: 165px; border-radius: 5px;"><g class="grid" transform="translate(0,82.5)" opacity="0.2" fill="none" font-size="10" font-family="sans-serif" text-anchor="middle"><path class="domain" stroke="#000" d="M0.5,0V0.5H620.5V0"></path></g><g class="grid" transform="translate(47.5,0)" opacity="0.2" fill="none" font-size="10" font-family="sans-serif" text-anchor="end"><path class="domain" stroke="#000" d="M0,35.5H0.5V130.5H0"></path></g><path opacity="1" d="M34.199999999999996,38.8L34.9714,39.6949L35.6521472,40.5411752L36.2544780256,41.34442676959999L36.7889502713088,42.1095017502208L37.26467377961867,42.84059648024804L37.68950941412281,43.541345807810686L38.07024068462309,44.21490004462333L38.41272178317908,44.86399134582482L38.72200527338531,45.49099096915444L39.002452229513835,46.09795866704631L39.25782723776406,46.6866852929203L39.49138034030122,47.25872955432736L39.70591771677721,47.8154497174147L39.903862651348234,48.35803095660411L40.08730812043092,48.8875089480019L40.25806215291033,49.40479022279402L40.41768695621202,49.910669725921736L40.56753266510602,50.40584596412845L40.708766452335716,50.890934074675904L40.84239763857629,51.366477100491885L40.96929935160362,51.83295571823449L41.09022720897364,52.290796631879225L41.20583543332021,52.740379815213494L41.31669075314815,53.182044761417195L41.423284393495614,53.616095876167506L41.526042419003964,54.04280713195294L41.62533465584805,54.46242608510666L41.721482387853825,54.875177343117095L41.814764995283035,55.28126555773973L41.90542568160729,55.680878009053494L41.993676413619696,56.07418683665209L42.079702183003,56.46135096643759L42.1636646826128,56.84251777482239L42.24570547791591,57.21782452639982L42.32594874296771,57.587399616187845L42.40450362077582,57.951363643275286L42.48146625967116,58.30983033901306L42.55692157021284,58.662907369712144L42.630944741032856,59.01069703106694L42.70360254674781,59.35329684915638L42.77495447651201,59.690800100834096L42.84505370785856,60.02329626455848L42.913947947087415,60.35087141119509L42.98168015453777,60.67360854301382L43.04828917056149,60.991587887973715L43.113810255840534,61.30488715541368L43.178275557816036,61.61358175842682L43.241714513379584,61.91774500747113L43.30415419658184,62.217448279143866L43.36561961891059,62.51276116350739L43.42613398865221,62.803751592889384L43.48571893495528,63.090485954678286L43.544394701442975,63.3730291902895L43.60218031355464,63.65144488217845L43.65909372322243,63.925795330519705L43.71515193399363,64.19614162094874L43.77037110928114,64.46254368457151L43.82476666605698,64.72506035128173L43.87835335598432,64.98374939728285L43.93114533571059,65.23866758758923L43.9831562278065,65.48987071417449L44.034399173632416,65.7374136303436L44.08488687923717,65.98135028182665L44.13463165524274,66.2217337350236L44.18364545153699,66.45861620277097L44.231939887484025,66.69204906795068L44.27952627826404,66.92208290521752L44.32641565787053,67.14876750108392L44.3726187992203,67.37215187256818L44.418146231769164,67.59228428458468L44.46300825697216,67.80921226622951L44.50721496188076,68.02298262609517L44.55077623112931,68.2336414667288L44.59370175752832,68.44123419833392L44.636001051452425,68.6458055518016L44.677683449185004,68.84739959114553L44.718758120359325,69.04605972540558L44.759234074616785,69.2418287200758L44.79912016758639,69.43474870810536L44.83842510627538,69.62486120051426L44.87715745394847,69.81220709666079L44.9153256345627,69.99682669419202L44.95293793681567,70.17875969870519L44.99000251785707,70.35804523314397L45.02652740670654,70.53472184695065L45.06252050741518,70.70882752499242L45.097989602002684,70.88039969627795L45.13294235319807,71.04947524247808L45.167386307007746,71.21609050626324L45.20132889513195,71.38028129946811L45.23477743724727,71.5420829110933L45.26773914317079,71.70153011515254L45.300221114919445,71.85865717837257L45.33223034867596,72.01349786775285L45.36377373667165,72.16608545799059L45.39485806899464,72.31645273877669L45.425490035331194,72.46463202196733L45.455676226646595,72.61065514863543L45.4854231368114,72.75455349600604L45.51473716417785,72.89635798427905L45.543624613110985,73.03609908334255L45.57209169547793,73.17380681937985L45.60014453209888,73.30951078137278L45.627789154162485,73.44324012750403L45.65503150460823,73.57502359146059L45.68187743947788,73.70488948864073L45.70833272923815,73.83286572226658L45.734403060075884,73.95897978940403L45.76009403516782,74.08325878689203L45.785411175925624,74.20572941718305L45.81035992321791,74.32641799409606L45.83494563856991,74.44535044848394L45.85917360534197,74.56255233381664L45.883049029887545,74.67804883168182L45.906577042691495,74.79186475720385L45.92976269948949,74.90402456438318L45.952610982368796,75.01455235135683L45.97512680085147,75.12347186558173L45.997314992960035,75.23080650894173L46.0191803262664,75.33657934277984L46.04072749892427,75.44081309285667L46.061961140685625,75.54353015423628L46.08288581390139,75.64475259610046L46.10350601450699,75.74450216649282L46.12382617299274,75.84280029699335L46.14385065535964,75.93966810732479L46.163583764060796,76.03512640989189L46.183029738928646,76.12919571425411L46.202192758088465,76.22189623153352L46.22107693885813,76.31324787875793L46.239686338634634,76.40327028314118L46.25802495576739,76.49198278630064L46.2760967304187,76.5794044484136L46.29390554541148,76.66555405231279L46.31145522706451,76.75045010752245L46.328749546015466,76.83411085423563L46.34579221803174,76.91655426723338L46.36258690480952,76.99779805974697L46.37913721476101,77.07785968726404L46.39544670379024,77.15675635127903L46.41151887605752,77.23450500298921L46.42735718473259,77.31112234693688L46.442965032736936,77.38662484459851L46.45834577347516,77.46102871792172L46.47350271155568,77.5343499528106L46.48843910350103,77.60660430256053L46.50315815844757,77.67780729124286L46.51766303883524,77.74797421704034L46.53195686108708,77.81712015553411L46.546042696278974,77.88525996294275L46.55992357079952,77.95240827931423L46.57360246700039,78.01857953167134L46.58708232383713,78.08378793711154L46.600366037500685,78.14804750586148L46.6134564620397,78.21137204428723L46.62635640997379,78.27377515786053L46.63906865289781,78.3352702540821L46.65159592207744,78.3958705453623L46.66394090903597,78.45558905185973L46.67610626613265,78.51443860427882L46.68809460713256,78.5724318466265L46.69990850776822,78.62958123892876L46.71155050629299,78.68589905990784L46.72302310402645,78.74139740962023L46.73432876589186,78.79608821205653L46.745469920945666,78.84998321770327L46.756448962899505,78.90309400606759L46.767268250634466,78.95543198816512L46.77793010870792,79.0070084089717L46.78843682785294,79.05783434983934L46.7987906654705,79.10792073087717L46.80899384611449,79.15727831329757L46.819048561969645,79.20591770172831L46.8289569733226,79.25384934649097L46.83872120902595,79.30108354584627L46.84834336695575,79.34763044820657L46.85782551446218,79.3935000543164L46.8671696888137,79.43870221940115L46.87637789763489,79.48324665528438L46.885452119337614,79.52714293247453L46.894394303546264,79.57040048222123L46.90320637151651,79.61302859854149L46.9118902165482,79.6550364402166L46.92044770439203,79.69643303276004L46.92888067365051,79.73722727035643L46.93719093617292,79.77742791777266L46.945380277444606,79.8170436122409L46.953450456970664,79.85608286531442L46.96140320865387,79.89455406469628L46.969240241167284,79.93246547604147L46.97696323832135,79.96982524473282L46.984573859425666,80.00664139763097L46.992073739645484,80.04292184479917L46.99946449035304,80.07867438120252L47.006747699473756,80.11390668838297L47.01392493182741,80.14862633610957L47.020997729464376,80.18284078400498L47.02796761199685,80.21655738314806L47.03483607692547,80.24978337765339L47.04160459996095,80.28252590622759L47.04827463534117,80.31479200370322L47.05484761614369,80.3465886025501L47.06132495459354,80.37792253436486L47.067708042366725,80.40880053133866L47.0739982508892,80.43922922770372L47.08019693163152,80.46921516115862L47.086305416399235,80.49876477427296L47.092325017619,80.5278844158716L47.09825702862055,80.55658034239869L47.104102723914636,80.58485871926194L47.10986335946677,80.61272562215717L47.11554017296716,80.6401870383738L47.12113438409655,80.66724886808119L47.12664719478834,80.69391692559631L47.13207978948678,80.72019694063297L47.13743333540149,80.74609455953285L47.142708982758194,80.77161534647871L47.147907865045866,80.79676478468971L47.153031099260296,80.82154827759969L47.15807978614404,80.84597115001797L47.16305501042294,80.87003864927348L47.16795784103916,80.89375594634211L47.17278933138086,80.91712813695776L47.17755051950855,80.94016024270715L47.18224242837806,80.96285721210873L47.186866066060404,80.98522392167584L47.191422425958265,81.00726517696452L47.195912487019534,81.02898571360599L47.20033721394758,81.05039019832402L47.2046975574085,81.0714832299377L47.20899445423549,81.09226934034945L47.21322882762995,81.11275299551875L47.21740158735997,81.1329385964216L47.22151362995579,81.15283047999618L47.22556583890231,81.17243292007458L47.22955908482905,81.1917501283011L47.23349422569713,81.21078625503701L47.23737210698359,81.22954539025247L47.24119356186312,81.2480315644051L47.244959411387,81.26624874930602L47.24867046465952,81.28420085897321L47.252327519011835,81.30189175047235L47.25593136017329,81.3193252247457L47.25948276244017,81.33650502742854L47.262982488842155,81.35343484965409L47.266431291306134,81.37011832884652L47.269829910817926,81.38655904950238L47.273179077581304,81.40276054396085L47.27647951117501,81.41872629316265L47.27973192070732,81.43445972739784" style="fill: none; stroke: rgb(252, 141, 89); stroke-width: 0.5; stroke-linecap: round;"></path><g><circle cx="34.199999999999996" cy="38.8" r="1" opacity="1" fill="rgb(254, 240, 217)" style="box-shadow: rgba(0, 0, 0, 0.4) 0px 3px 10px;"></circle><circle cx="34.9714" cy="39.6949" r="1" opacity="1" fill="rgb(254, 236, 209)" style="box-shadow: rgba(0, 0, 0, 0.4) 0px 3px 10px;"></circle><circle cx="35.6521472" cy="40.5411752" r="1" opacity="1" fill="rgb(254, 233, 201)" style="box-shadow: rgba(0, 0, 0, 0.4) 0px 3px 10px;"></circle><circle cx="36.2544780256" cy="41.34442676959999" r="1" opacity="1" fill="rgb(254, 229, 193)" style="box-shadow: rgba(0, 0, 0, 0.4) 0px 3px 10px;"></circle><circle cx="36.7889502713088" cy="42.1095017502208" r="1" opacity="1" fill="rgb(254, 226, 185)" style="box-shadow: rgba(0, 0, 0, 0.4) 0px 3px 10px;"></circle><circle cx="37.26467377961867" cy="42.84059648024804" r="1" opacity="1" fill="rgb(254, 222, 178)" style="box-shadow: rgba(0, 0, 0, 0.4) 0px 3px 10px;"></circle><circle cx="37.68950941412281" cy="43.541345807810686" r="1" opacity="1" fill="rgb(253, 218, 170)" style="box-shadow: rgba(0, 0, 0, 0.4) 0px 3px 10px;"></circle><circle cx="38.07024068462309" cy="44.21490004462333" r="1" opacity="1" fill="rgb(253, 215, 162)" style="box-shadow: rgba(0, 0, 0, 0.4) 0px 3px 10px;"></circle><circle cx="38.41272178317908" cy="44.86399134582482" r="1" opacity="1" fill="rgb(253, 211, 154)" style="box-shadow: rgba(0, 0, 0, 0.4) 0px 3px 10px;"></circle><circle cx="38.72200527338531" cy="45.49099096915444" r="1" opacity="1" fill="rgb(253, 208, 146)" style="box-shadow: rgba(0, 0, 0, 0.4) 0px 3px 10px;"></circle><circle cx="39.002452229513835" cy="46.09795866704631" r="1" opacity="1" fill="rgb(253, 204, 138)" style="box-shadow: rgba(0, 0, 0, 0.4) 0px 3px 10px;"></circle><circle cx="39.25782723776406" cy="46.6866852929203" r="1" opacity="1" fill="rgb(253, 202, 137)" style="box-shadow: rgba(0, 0, 0, 0.4) 0px 3px 10px;"></circle><circle cx="39.49138034030122" cy="47.25872955432736" r="1" opacity="1" fill="rgb(253, 201, 136)" style="box-shadow: rgba(0, 0, 0, 0.4) 0px 3px 10px;"></circle><circle cx="39.70591771677721" cy="47.8154497174147" r="1" opacity="1" fill="rgb(253, 199, 134)" style="box-shadow: rgba(0, 0, 0, 0.4) 0px 3px 10px;"></circle><circle cx="39.903862651348234" cy="48.35803095660411" r="1" opacity="1" fill="rgb(253, 198, 133)" style="box-shadow: rgba(0, 0, 0, 0.4) 0px 3px 10px;"></circle><circle cx="40.08730812043092" cy="48.8875089480019" r="1" opacity="1" fill="rgb(253, 196, 132)" style="box-shadow: rgba(0, 0, 0, 0.4) 0px 3px 10px;"></circle><circle cx="40.25806215291033" cy="49.40479022279402" r="1" opacity="1" fill="rgb(253, 195, 131)" style="box-shadow: rgba(0, 0, 0, 0.4) 0px 3px 10px;"></circle><circle cx="40.41768695621202" cy="49.910669725921736" r="1" opacity="1" fill="rgb(253, 193, 129)" style="box-shadow: rgba(0, 0, 0, 0.4) 0px 3px 10px;"></circle><circle cx="40.56753266510602" cy="50.40584596412845" r="1" opacity="1" fill="rgb(253, 191, 128)" style="box-shadow: rgba(0, 0, 0, 0.4) 0px 3px 10px;"></circle><circle cx="40.708766452335716" cy="50.890934074675904" r="1" opacity="1" fill="rgb(253, 190, 127)" style="box-shadow: rgba(0, 0, 0, 0.4) 0px 3px 10px;"></circle><circle cx="40.84239763857629" cy="51.366477100491885" r="1" opacity="1" fill="rgb(253, 188, 126)" style="box-shadow: rgba(0, 0, 0, 0.4) 0px 3px 10px;"></circle><circle cx="40.96929935160362" cy="51.83295571823449" r="1" opacity="1" fill="rgb(253, 187, 125)" style="box-shadow: rgba(0, 0, 0, 0.4) 0px 3px 10px;"></circle><circle cx="41.09022720897364" cy="52.290796631879225" r="1" opacity="1" fill="rgb(253, 185, 123)" style="box-shadow: rgba(0, 0, 0, 0.4) 0px 3px 10px;"></circle><circle cx="41.20583543332021" cy="52.740379815213494" r="1" opacity="1" fill="rgb(253, 184, 122)" style="box-shadow: rgba(0, 0, 0, 0.4) 0px 3px 10px;"></circle><circle cx="41.31669075314815" cy="53.182044761417195" r="1" opacity="1" fill="rgb(253, 182, 121)" style="box-shadow: rgba(0, 0, 0, 0.4) 0px 3px 10px;"></circle><circle cx="41.423284393495614" cy="53.616095876167506" r="1" opacity="1" fill="rgb(253, 180, 120)" style="box-shadow: rgba(0, 0, 0, 0.4) 0px 3px 10px;"></circle><circle cx="41.526042419003964" cy="54.04280713195294" r="1" opacity="1" fill="rgb(253, 179, 118)" style="box-shadow: rgba(0, 0, 0, 0.4) 0px 3px 10px;"></circle><circle cx="41.62533465584805" cy="54.46242608510666" r="1" opacity="1" fill="rgb(253, 177, 117)" style="box-shadow: rgba(0, 0, 0, 0.4) 0px 3px 10px;"></circle><circle cx="41.721482387853825" cy="54.875177343117095" r="1" opacity="1" fill="rgb(253, 176, 116)" style="box-shadow: rgba(0, 0, 0, 0.4) 0px 3px 10px;"></circle><circle cx="41.814764995283035" cy="55.28126555773973" r="1" opacity="1" fill="rgb(253, 174, 115)" style="box-shadow: rgba(0, 0, 0, 0.4) 0px 3px 10px;"></circle><circle cx="41.90542568160729" cy="55.680878009053494" r="1" opacity="1" fill="rgb(253, 173, 114)" style="box-shadow: rgba(0, 0, 0, 0.4) 0px 3px 10px;"></circle><circle cx="41.993676413619696" cy="56.07418683665209" r="1" opacity="1" fill="rgb(252, 171, 112)" style="box-shadow: rgba(0, 0, 0, 0.4) 0px 3px 10px;"></circle><circle cx="42.079702183003" cy="56.46135096643759" r="1" opacity="1" fill="rgb(252, 169, 111)" style="box-shadow: rgba(0, 0, 0, 0.4) 0px 3px 10px;"></circle><circle cx="42.1636646826128" cy="56.84251777482239" r="1" opacity="1" fill="rgb(252, 168, 110)" style="box-shadow: rgba(0, 0, 0, 0.4) 0px 3px 10px;"></circle><circle cx="42.24570547791591" cy="57.21782452639982" r="1" opacity="1" fill="rgb(252, 166, 109)" style="box-shadow: rgba(0, 0, 0, 0.4) 0px 3px 10px;"></circle><circle cx="42.32594874296771" cy="57.587399616187845" r="1" opacity="1" fill="rgb(252, 165, 107)" style="box-shadow: rgba(0, 0, 0, 0.4) 0px 3px 10px;"></circle><circle cx="42.40450362077582" cy="57.951363643275286" r="1" opacity="1" fill="rgb(252, 163, 106)" style="box-shadow: rgba(0, 0, 0, 0.4) 0px 3px 10px;"></circle><circle cx="42.48146625967116" cy="58.30983033901306" r="1" opacity="1" fill="rgb(252, 161, 105)" style="box-shadow: rgba(0, 0, 0, 0.4) 0px 3px 10px;"></circle><circle cx="42.55692157021284" cy="58.662907369712144" r="1" opacity="1" fill="rgb(252, 160, 104)" style="box-shadow: rgba(0, 0, 0, 0.4) 0px 3px 10px;"></circle><circle cx="42.630944741032856" cy="59.01069703106694" r="1" opacity="1" fill="rgb(252, 158, 102)" style="box-shadow: rgba(0, 0, 0, 0.4) 0px 3px 10px;"></circle><circle cx="42.70360254674781" cy="59.35329684915638" r="1" opacity="1" fill="rgb(252, 157, 101)" style="box-shadow: rgba(0, 0, 0, 0.4) 0px 3px 10px;"></circle><circle cx="42.77495447651201" cy="59.690800100834096" r="1" opacity="1" fill="rgb(252, 155, 100)" style="box-shadow: rgba(0, 0, 0, 0.4) 0px 3px 10px;"></circle><circle cx="42.84505370785856" cy="60.02329626455848" r="1" opacity="1" fill="rgb(252, 154, 99)" style="box-shadow: rgba(0, 0, 0, 0.4) 0px 3px 10px;"></circle><circle cx="42.913947947087415" cy="60.35087141119509" r="1" opacity="1" fill="rgb(252, 152, 98)" style="box-shadow: rgba(0, 0, 0, 0.4) 0px 3px 10px;"></circle><circle cx="42.98168015453777" cy="60.67360854301382" r="1" opacity="1" fill="rgb(252, 150, 96)" style="box-shadow: rgba(0, 0, 0, 0.4) 0px 3px 10px;"></circle><circle cx="43.04828917056149" cy="60.991587887973715" r="1" opacity="1" fill="rgb(252, 149, 95)" style="box-shadow: rgba(0, 0, 0, 0.4) 0px 3px 10px;"></circle><circle cx="43.113810255840534" cy="61.30488715541368" r="1" opacity="1" fill="rgb(252, 147, 94)" style="box-shadow: rgba(0, 0, 0, 0.4) 0px 3px 10px;"></circle><circle cx="43.178275557816036" cy="61.61358175842682" r="1" opacity="1" fill="rgb(252, 146, 93)" style="box-shadow: rgba(0, 0, 0, 0.4) 0px 3px 10px;"></circle><circle cx="43.241714513379584" cy="61.91774500747113" r="1" opacity="1" fill="rgb(252, 144, 91)" style="box-shadow: rgba(0, 0, 0, 0.4) 0px 3px 10px;"></circle><circle cx="43.30415419658184" cy="62.217448279143866" r="1" opacity="1" fill="rgb(252, 143, 90)" style="box-shadow: rgba(0, 0, 0, 0.4) 0px 3px 10px;"></circle><circle cx="43.36561961891059" cy="62.51276116350739" r="1" opacity="1" fill="rgb(252, 141, 89)" style="box-shadow: rgba(0, 0, 0, 0.4) 0px 3px 10px;"></circle><circle cx="43.42613398865221" cy="62.803751592889384" r="1" opacity="1" fill="rgb(252, 141, 89)" style="box-shadow: rgba(0, 0, 0, 0.4) 0px 3px 10px;"></circle><circle cx="43.48571893495528" cy="63.090485954678286" r="1" opacity="1" fill="rgb(252, 140, 88)" style="box-shadow: rgba(0, 0, 0, 0.4) 0px 3px 10px;"></circle><circle cx="43.544394701442975" cy="63.3730291902895" r="1" opacity="1" fill="rgb(251, 140, 88)" style="box-shadow: rgba(0, 0, 0, 0.4) 0px 3px 10px;"></circle><circle cx="43.60218031355464" cy="63.65144488217845" r="1" opacity="1" fill="rgb(251, 139, 88)" style="box-shadow: rgba(0, 0, 0, 0.4) 0px 3px 10px;"></circle><circle cx="43.65909372322243" cy="63.925795330519705" r="1" opacity="1" fill="rgb(251, 139, 88)" style="box-shadow: rgba(0, 0, 0, 0.4) 0px 3px 10px;"></circle><circle cx="43.71515193399363" cy="64.19614162094874" r="1" opacity="1" fill="rgb(251, 138, 87)" style="box-shadow: rgba(0, 0, 0, 0.4) 0px 3px 10px;"></circle><circle cx="43.77037110928114" cy="64.46254368457151" r="1" opacity="1" fill="rgb(251, 138, 87)" style="box-shadow: rgba(0, 0, 0, 0.4) 0px 3px 10px;"></circle><circle cx="43.82476666605698" cy="64.72506035128173" r="1" opacity="1" fill="rgb(251, 137, 87)" style="box-shadow: rgba(0, 0, 0, 0.4) 0px 3px 10px;"></circle><circle cx="43.87835335598432" cy="64.98374939728285" r="1" opacity="1" fill="rgb(250, 137, 86)" style="box-shadow: rgba(0, 0, 0, 0.4) 0px 3px 10px;"></circle><circle cx="43.93114533571059" cy="65.23866758758923" r="1" opacity="1" fill="rgb(250, 136, 86)" style="box-shadow: rgba(0, 0, 0, 0.4) 0px 3px 10px;"></circle><circle cx="43.9831562278065" cy="65.48987071417449" r="1" opacity="1" fill="rgb(250, 136, 86)" style="box-shadow: rgba(0, 0, 0, 0.4) 0px 3px 10px;"></circle><circle cx="44.034399173632416" cy="65.7374136303436" r="1" opacity="1" fill="rgb(250, 135, 86)" style="box-shadow: rgba(0, 0, 0, 0.4) 0px 3px 10px;"></circle><circle cx="44.08488687923717" cy="65.98135028182665" r="1" opacity="1" fill="rgb(250, 135, 85)" style="box-shadow: rgba(0, 0, 0, 0.4) 0px 3px 10px;"></circle><circle cx="44.13463165524274" cy="66.2217337350236" r="1" opacity="1" fill="rgb(249, 134, 85)" style="box-shadow: rgba(0, 0, 0, 0.4) 0px 3px 10px;"></circle><circle cx="44.18364545153699" cy="66.45861620277097" r="1" opacity="1" fill="rgb(249, 134, 85)" style="box-shadow: rgba(0, 0, 0, 0.4) 0px 3px 10px;"></circle><circle cx="44.231939887484025" cy="66.69204906795068" r="1" opacity="1" fill="rgb(249, 134, 84)" style="box-shadow: rgba(0, 0, 0, 0.4) 0px 3px 10px;"></circle><circle cx="44.27952627826404" cy="66.92208290521752" r="1" opacity="1" fill="rgb(249, 133, 84)" style="box-shadow: rgba(0, 0, 0, 0.4) 0px 3px 10px;"></circle><circle cx="44.32641565787053" cy="67.14876750108392" r="1" opacity="1" fill="rgb(249, 133, 84)" style="box-shadow: rgba(0, 0, 0, 0.4) 0px 3px 10px;"></circle><circle cx="44.3726187992203" cy="67.37215187256818" r="1" opacity="1" fill="rgb(248, 132, 83)" style="box-shadow: rgba(0, 0, 0, 0.4) 0px 3px 10px;"></circle><circle cx="44.418146231769164" cy="67.59228428458468" r="1" opacity="1" fill="rgb(248, 132, 83)" style="box-shadow: rgba(0, 0, 0, 0.4) 0px 3px 10px;"></circle><circle cx="44.46300825697216" cy="67.80921226622951" r="1" opacity="1" fill="rgb(248, 131, 83)" style="box-shadow: rgba(0, 0, 0, 0.4) 0px 3px 10px;"></circle><circle cx="44.50721496188076" cy="68.02298262609517" r="1" opacity="1" fill="rgb(248, 131, 83)" style="box-shadow: rgba(0, 0, 0, 0.4) 0px 3px 10px;"></circle><circle cx="44.55077623112931" cy="68.2336414667288" r="1" opacity="1" fill="rgb(248, 130, 82)" style="box-shadow: rgba(0, 0, 0, 0.4) 0px 3px 10px;"></circle><circle cx="44.59370175752832" cy="68.44123419833392" r="1" opacity="1" fill="rgb(248, 130, 82)" style="box-shadow: rgba(0, 0, 0, 0.4) 0px 3px 10px;"></circle><circle cx="44.636001051452425" cy="68.6458055518016" r="1" opacity="1" fill="rgb(247, 129, 82)" style="box-shadow: rgba(0, 0, 0, 0.4) 0px 3px 10px;"></circle><circle cx="44.677683449185004" cy="68.84739959114553" r="1" opacity="1" fill="rgb(247, 129, 81)" style="box-shadow: rgba(0, 0, 0, 0.4) 0px 3px 10px;"></circle><circle cx="44.718758120359325" cy="69.04605972540558" r="1" opacity="1" fill="rgb(247, 128, 81)" style="box-shadow: rgba(0, 0, 0, 0.4) 0px 3px 10px;"></circle><circle cx="44.759234074616785" cy="69.2418287200758" r="1" opacity="1" fill="rgb(247, 128, 81)" style="box-shadow: rgba(0, 0, 0, 0.4) 0px 3px 10px;"></circle><circle cx="44.79912016758639" cy="69.43474870810536" r="1" opacity="1" fill="rgb(247, 128, 81)" style="box-shadow: rgba(0, 0, 0, 0.4) 0px 3px 10px;"></circle><circle cx="44.83842510627538" cy="69.62486120051426" r="1" opacity="1" fill="rgb(246, 127, 80)" style="box-shadow: rgba(0, 0, 0, 0.4) 0px 3px 10px;"></circle><circle cx="44.87715745394847" cy="69.81220709666079" r="1" opacity="1" fill="rgb(246, 127, 80)" style="box-shadow: rgba(0, 0, 0, 0.4) 0px 3px 10px;"></circle><circle cx="44.9153256345627" cy="69.99682669419202" r="1" opacity="1" fill="rgb(246, 126, 80)" style="box-shadow: rgba(0, 0, 0, 0.4) 0px 3px 10px;"></circle><circle cx="44.95293793681567" cy="70.17875969870519" r="1" opacity="1" fill="rgb(246, 126, 79)" style="box-shadow: rgba(0, 0, 0, 0.4) 0px 3px 10px;"></circle><circle cx="44.99000251785707" cy="70.35804523314397" r="1" opacity="1" fill="rgb(246, 125, 79)" style="box-shadow: rgba(0, 0, 0, 0.4) 0px 3px 10px;"></circle><circle cx="45.02652740670654" cy="70.53472184695065" r="1" opacity="1" fill="rgb(246, 125, 79)" style="box-shadow: rgba(0, 0, 0, 0.4) 0px 3px 10px;"></circle><circle cx="45.06252050741518" cy="70.70882752499242" r="1" opacity="1" fill="rgb(245, 124, 79)" style="box-shadow: rgba(0, 0, 0, 0.4) 0px 3px 10px;"></circle><circle cx="45.097989602002684" cy="70.88039969627795" r="1" opacity="1" fill="rgb(245, 124, 78)" style="box-shadow: rgba(0, 0, 0, 0.4) 0px 3px 10px;"></circle><circle cx="45.13294235319807" cy="71.04947524247808" r="1" opacity="1" fill="rgb(245, 123, 78)" style="box-shadow: rgba(0, 0, 0, 0.4) 0px 3px 10px;"></circle><circle cx="45.167386307007746" cy="71.21609050626324" r="1" opacity="1" fill="rgb(245, 123, 78)" style="box-shadow: rgba(0, 0, 0, 0.4) 0px 3px 10px;"></circle><circle cx="45.20132889513195" cy="71.38028129946811" r="1" opacity="1" fill="rgb(245, 122, 77)" style="box-shadow: rgba(0, 0, 0, 0.4) 0px 3px 10px;"></circle><circle cx="45.23477743724727" cy="71.5420829110933" r="1" opacity="1" fill="rgb(244, 122, 77)" style="box-shadow: rgba(0, 0, 0, 0.4) 0px 3px 10px;"></circle><circle cx="45.26773914317079" cy="71.70153011515254" r="1" opacity="1" fill="rgb(244, 121, 77)" style="box-shadow: rgba(0, 0, 0, 0.4) 0px 3px 10px;"></circle><circle cx="45.300221114919445" cy="71.85865717837257" r="1" opacity="1" fill="rgb(244, 121, 77)" style="box-shadow: rgba(0, 0, 0, 0.4) 0px 3px 10px;"></circle><circle cx="45.33223034867596" cy="72.01349786775285" r="1" opacity="1" fill="rgb(244, 121, 76)" style="box-shadow: rgba(0, 0, 0, 0.4) 0px 3px 10px;"></circle><circle cx="45.36377373667165" cy="72.16608545799059" r="1" opacity="1" fill="rgb(244, 120, 76)" style="box-shadow: rgba(0, 0, 0, 0.4) 0px 3px 10px;"></circle><circle cx="45.39485806899464" cy="72.31645273877669" r="1" opacity="1" fill="rgb(243, 120, 76)" style="box-shadow: rgba(0, 0, 0, 0.4) 0px 3px 10px;"></circle><circle cx="45.425490035331194" cy="72.46463202196733" r="1" opacity="1" fill="rgb(243, 119, 75)" style="box-shadow: rgba(0, 0, 0, 0.4) 0px 3px 10px;"></circle><circle cx="45.455676226646595" cy="72.61065514863543" r="1" opacity="1" fill="rgb(243, 119, 75)" style="box-shadow: rgba(0, 0, 0, 0.4) 0px 3px 10px;"></circle><circle cx="45.4854231368114" cy="72.75455349600604" r="1" opacity="1" fill="rgb(243, 118, 75)" style="box-shadow: rgba(0, 0, 0, 0.4) 0px 3px 10px;"></circle><circle cx="45.51473716417785" cy="72.89635798427905" r="1" opacity="1" fill="rgb(243, 118, 75)" style="box-shadow: rgba(0, 0, 0, 0.4) 0px 3px 10px;"></circle><circle cx="45.543624613110985" cy="73.03609908334255" r="1" opacity="1" fill="rgb(243, 117, 74)" style="box-shadow: rgba(0, 0, 0, 0.4) 0px 3px 10px;"></circle><circle cx="45.57209169547793" cy="73.17380681937985" r="1" opacity="1" fill="rgb(242, 117, 74)" style="box-shadow: rgba(0, 0, 0, 0.4) 0px 3px 10px;"></circle><circle cx="45.60014453209888" cy="73.30951078137278" r="1" opacity="1" fill="rgb(242, 116, 74)" style="box-shadow: rgba(0, 0, 0, 0.4) 0px 3px 10px;"></circle><circle cx="45.627789154162485" cy="73.44324012750403" r="1" opacity="1" fill="rgb(242, 116, 73)" style="box-shadow: rgba(0, 0, 0, 0.4) 0px 3px 10px;"></circle><circle cx="45.65503150460823" cy="73.57502359146059" r="1" opacity="1" fill="rgb(242, 115, 73)" style="box-shadow: rgba(0, 0, 0, 0.4) 0px 3px 10px;"></circle><circle cx="45.68187743947788" cy="73.70488948864073" r="1" opacity="1" fill="rgb(242, 115, 73)" style="box-shadow: rgba(0, 0, 0, 0.4) 0px 3px 10px;"></circle><circle cx="45.70833272923815" cy="73.83286572226658" r="1" opacity="1" fill="rgb(241, 114, 72)" style="box-shadow: rgba(0, 0, 0, 0.4) 0px 3px 10px;"></circle><circle cx="45.734403060075884" cy="73.95897978940403" r="1" opacity="1" fill="rgb(241, 114, 72)" style="box-shadow: rgba(0, 0, 0, 0.4) 0px 3px 10px;"></circle><circle cx="45.76009403516782" cy="74.08325878689203" r="1" opacity="1" fill="rgb(241, 114, 72)" style="box-shadow: rgba(0, 0, 0, 0.4) 0px 3px 10px;"></circle><circle cx="45.785411175925624" cy="74.20572941718305" r="1" opacity="1" fill="rgb(241, 113, 72)" style="box-shadow: rgba(0, 0, 0, 0.4) 0px 3px 10px;"></circle><circle cx="45.81035992321791" cy="74.32641799409606" r="1" opacity="1" fill="rgb(241, 113, 71)" style="box-shadow: rgba(0, 0, 0, 0.4) 0px 3px 10px;"></circle><circle cx="45.83494563856991" cy="74.44535044848394" r="1" opacity="1" fill="rgb(241, 112, 71)" style="box-shadow: rgba(0, 0, 0, 0.4) 0px 3px 10px;"></circle><circle cx="45.85917360534197" cy="74.56255233381664" r="1" opacity="1" fill="rgb(240, 112, 71)" style="box-shadow: rgba(0, 0, 0, 0.4) 0px 3px 10px;"></circle><circle cx="45.883049029887545" cy="74.67804883168182" r="1" opacity="1" fill="rgb(240, 111, 70)" style="box-shadow: rgba(0, 0, 0, 0.4) 0px 3px 10px;"></circle><circle cx="45.906577042691495" cy="74.79186475720385" r="1" opacity="1" fill="rgb(240, 111, 70)" style="box-shadow: rgba(0, 0, 0, 0.4) 0px 3px 10px;"></circle><circle cx="45.92976269948949" cy="74.90402456438318" r="1" opacity="1" fill="rgb(240, 110, 70)" style="box-shadow: rgba(0, 0, 0, 0.4) 0px 3px 10px;"></circle><circle cx="45.952610982368796" cy="75.01455235135683" r="1" opacity="1" fill="rgb(240, 110, 70)" style="box-shadow: rgba(0, 0, 0, 0.4) 0px 3px 10px;"></circle><circle cx="45.97512680085147" cy="75.12347186558173" r="1" opacity="1" fill="rgb(239, 109, 69)" style="box-shadow: rgba(0, 0, 0, 0.4) 0px 3px 10px;"></circle><circle cx="45.997314992960035" cy="75.23080650894173" r="1" opacity="1" fill="rgb(239, 109, 69)" style="box-shadow: rgba(0, 0, 0, 0.4) 0px 3px 10px;"></circle><circle cx="46.0191803262664" cy="75.33657934277984" r="1" opacity="1" fill="rgb(239, 108, 69)" style="box-shadow: rgba(0, 0, 0, 0.4) 0px 3px 10px;"></circle><circle cx="46.04072749892427" cy="75.44081309285667" r="1" opacity="1" fill="rgb(239, 108, 68)" style="box-shadow: rgba(0, 0, 0, 0.4) 0px 3px 10px;"></circle><circle cx="46.061961140685625" cy="75.54353015423628" r="1" opacity="1" fill="rgb(239, 108, 68)" style="box-shadow: rgba(0, 0, 0, 0.4) 0px 3px 10px;"></circle><circle cx="46.08288581390139" cy="75.64475259610046" r="1" opacity="1" fill="rgb(238, 107, 68)" style="box-shadow: rgba(0, 0, 0, 0.4) 0px 3px 10px;"></circle><circle cx="46.10350601450699" cy="75.74450216649282" r="1" opacity="1" fill="rgb(238, 107, 68)" style="box-shadow: rgba(0, 0, 0, 0.4) 0px 3px 10px;"></circle><circle cx="46.12382617299274" cy="75.84280029699335" r="1" opacity="1" fill="rgb(238, 106, 67)" style="box-shadow: rgba(0, 0, 0, 0.4) 0px 3px 10px;"></circle><circle cx="46.14385065535964" cy="75.93966810732479" r="1" opacity="1" fill="rgb(238, 106, 67)" style="box-shadow: rgba(0, 0, 0, 0.4) 0px 3px 10px;"></circle><circle cx="46.163583764060796" cy="76.03512640989189" r="1" opacity="1" fill="rgb(238, 105, 67)" style="box-shadow: rgba(0, 0, 0, 0.4) 0px 3px 10px;"></circle><circle cx="46.183029738928646" cy="76.12919571425411" r="1" opacity="1" fill="rgb(238, 105, 66)" style="box-shadow: rgba(0, 0, 0, 0.4) 0px 3px 10px;"></circle><circle cx="46.202192758088465" cy="76.22189623153352" r="1" opacity="1" fill="rgb(237, 104, 66)" style="box-shadow: rgba(0, 0, 0, 0.4) 0px 3px 10px;"></circle><circle cx="46.22107693885813" cy="76.31324787875793" r="1" opacity="1" fill="rgb(237, 104, 66)" style="box-shadow: rgba(0, 0, 0, 0.4) 0px 3px 10px;"></circle><circle cx="46.239686338634634" cy="76.40327028314118" r="1" opacity="1" fill="rgb(237, 103, 66)" style="box-shadow: rgba(0, 0, 0, 0.4) 0px 3px 10px;"></circle><circle cx="46.25802495576739" cy="76.49198278630064" r="1" opacity="1" fill="rgb(237, 103, 65)" style="box-shadow: rgba(0, 0, 0, 0.4) 0px 3px 10px;"></circle><circle cx="46.2760967304187" cy="76.5794044484136" r="1" opacity="1" fill="rgb(237, 102, 65)" style="box-shadow: rgba(0, 0, 0, 0.4) 0px 3px 10px;"></circle><circle cx="46.29390554541148" cy="76.66555405231279" r="1" opacity="1" fill="rgb(236, 102, 65)" style="box-shadow: rgba(0, 0, 0, 0.4) 0px 3px 10px;"></circle><circle cx="46.31145522706451" cy="76.75045010752245" r="1" opacity="1" fill="rgb(236, 101, 64)" style="box-shadow: rgba(0, 0, 0, 0.4) 0px 3px 10px;"></circle><circle cx="46.328749546015466" cy="76.83411085423563" r="1" opacity="1" fill="rgb(236, 101, 64)" style="box-shadow: rgba(0, 0, 0, 0.4) 0px 3px 10px;"></circle><circle cx="46.34579221803174" cy="76.91655426723338" r="1" opacity="1" fill="rgb(236, 101, 64)" style="box-shadow: rgba(0, 0, 0, 0.4) 0px 3px 10px;"></circle><circle cx="46.36258690480952" cy="76.99779805974697" r="1" opacity="1" fill="rgb(236, 100, 63)" style="box-shadow: rgba(0, 0, 0, 0.4) 0px 3px 10px;"></circle><circle cx="46.37913721476101" cy="77.07785968726404" r="1" opacity="1" fill="rgb(236, 100, 63)" style="box-shadow: rgba(0, 0, 0, 0.4) 0px 3px 10px;"></circle><circle cx="46.39544670379024" cy="77.15675635127903" r="1" opacity="1" fill="rgb(235, 99, 63)" style="box-shadow: rgba(0, 0, 0, 0.4) 0px 3px 10px;"></circle><circle cx="46.41151887605752" cy="77.23450500298921" r="1" opacity="1" fill="rgb(235, 99, 63)" style="box-shadow: rgba(0, 0, 0, 0.4) 0px 3px 10px;"></circle><circle cx="46.42735718473259" cy="77.31112234693688" r="1" opacity="1" fill="rgb(235, 98, 62)" style="box-shadow: rgba(0, 0, 0, 0.4) 0px 3px 10px;"></circle><circle cx="46.442965032736936" cy="77.38662484459851" r="1" opacity="1" fill="rgb(235, 98, 62)" style="box-shadow: rgba(0, 0, 0, 0.4) 0px 3px 10px;"></circle><circle cx="46.45834577347516" cy="77.46102871792172" r="1" opacity="1" fill="rgb(235, 97, 62)" style="box-shadow: rgba(0, 0, 0, 0.4) 0px 3px 10px;"></circle><circle cx="46.47350271155568" cy="77.5343499528106" r="1" opacity="1" fill="rgb(234, 97, 61)" style="box-shadow: rgba(0, 0, 0, 0.4) 0px 3px 10px;"></circle><circle cx="46.48843910350103" cy="77.60660430256053" r="1" opacity="1" fill="rgb(234, 96, 61)" style="box-shadow: rgba(0, 0, 0, 0.4) 0px 3px 10px;"></circle><circle cx="46.50315815844757" cy="77.67780729124286" r="1" opacity="1" fill="rgb(234, 96, 61)" style="box-shadow: rgba(0, 0, 0, 0.4) 0px 3px 10px;"></circle><circle cx="46.51766303883524" cy="77.74797421704034" r="1" opacity="1" fill="rgb(234, 95, 61)" style="box-shadow: rgba(0, 0, 0, 0.4) 0px 3px 10px;"></circle><circle cx="46.53195686108708" cy="77.81712015553411" r="1" opacity="1" fill="rgb(234, 95, 60)" style="box-shadow: rgba(0, 0, 0, 0.4) 0px 3px 10px;"></circle><circle cx="46.546042696278974" cy="77.88525996294275" r="1" opacity="1" fill="rgb(234, 95, 60)" style="box-shadow: rgba(0, 0, 0, 0.4) 0px 3px 10px;"></circle><circle cx="46.55992357079952" cy="77.95240827931423" r="1" opacity="1" fill="rgb(233, 94, 60)" style="box-shadow: rgba(0, 0, 0, 0.4) 0px 3px 10px;"></circle><circle cx="46.57360246700039" cy="78.01857953167134" r="1" opacity="1" fill="rgb(233, 94, 59)" style="box-shadow: rgba(0, 0, 0, 0.4) 0px 3px 10px;"></circle><circle cx="46.58708232383713" cy="78.08378793711154" r="1" opacity="1" fill="rgb(233, 93, 59)" style="box-shadow: rgba(0, 0, 0, 0.4) 0px 3px 10px;"></circle><circle cx="46.600366037500685" cy="78.14804750586148" r="1" opacity="1" fill="rgb(233, 93, 59)" style="box-shadow: rgba(0, 0, 0, 0.4) 0px 3px 10px;"></circle><circle cx="46.6134564620397" cy="78.21137204428723" r="1" opacity="1" fill="rgb(233, 92, 59)" style="box-shadow: rgba(0, 0, 0, 0.4) 0px 3px 10px;"></circle><circle cx="46.62635640997379" cy="78.27377515786053" r="1" opacity="1" fill="rgb(232, 92, 58)" style="box-shadow: rgba(0, 0, 0, 0.4) 0px 3px 10px;"></circle><circle cx="46.63906865289781" cy="78.3352702540821" r="1" opacity="1" fill="rgb(232, 91, 58)" style="box-shadow: rgba(0, 0, 0, 0.4) 0px 3px 10px;"></circle><circle cx="46.65159592207744" cy="78.3958705453623" r="1" opacity="1" fill="rgb(232, 91, 58)" style="box-shadow: rgba(0, 0, 0, 0.4) 0px 3px 10px;"></circle><circle cx="46.66394090903597" cy="78.45558905185973" r="1" opacity="1" fill="rgb(232, 90, 57)" style="box-shadow: rgba(0, 0, 0, 0.4) 0px 3px 10px;"></circle><circle cx="46.67610626613265" cy="78.51443860427882" r="1" opacity="1" fill="rgb(232, 90, 57)" style="box-shadow: rgba(0, 0, 0, 0.4) 0px 3px 10px;"></circle><circle cx="46.68809460713256" cy="78.5724318466265" r="1" opacity="1" fill="rgb(231, 89, 57)" style="box-shadow: rgba(0, 0, 0, 0.4) 0px 3px 10px;"></circle><circle cx="46.69990850776822" cy="78.62958123892876" r="1" opacity="1" fill="rgb(231, 89, 57)" style="box-shadow: rgba(0, 0, 0, 0.4) 0px 3px 10px;"></circle><circle cx="46.71155050629299" cy="78.68589905990784" r="1" opacity="1" fill="rgb(231, 88, 56)" style="box-shadow: rgba(0, 0, 0, 0.4) 0px 3px 10px;"></circle><circle cx="46.72302310402645" cy="78.74139740962023" r="1" opacity="1" fill="rgb(231, 88, 56)" style="box-shadow: rgba(0, 0, 0, 0.4) 0px 3px 10px;"></circle><circle cx="46.73432876589186" cy="78.79608821205653" r="1" opacity="1" fill="rgb(231, 88, 56)" style="box-shadow: rgba(0, 0, 0, 0.4) 0px 3px 10px;"></circle><circle cx="46.745469920945666" cy="78.84998321770327" r="1" opacity="1" fill="rgb(231, 87, 55)" style="box-shadow: rgba(0, 0, 0, 0.4) 0px 3px 10px;"></circle><circle cx="46.756448962899505" cy="78.90309400606759" r="1" opacity="1" fill="rgb(230, 87, 55)" style="box-shadow: rgba(0, 0, 0, 0.4) 0px 3px 10px;"></circle><circle cx="46.767268250634466" cy="78.95543198816512" r="1" opacity="1" fill="rgb(230, 86, 55)" style="box-shadow: rgba(0, 0, 0, 0.4) 0px 3px 10px;"></circle><circle cx="46.77793010870792" cy="79.0070084089717" r="1" opacity="1" fill="rgb(230, 86, 54)" style="box-shadow: rgba(0, 0, 0, 0.4) 0px 3px 10px;"></circle><circle cx="46.78843682785294" cy="79.05783434983934" r="1" opacity="1" fill="rgb(230, 85, 54)" style="box-shadow: rgba(0, 0, 0, 0.4) 0px 3px 10px;"></circle><circle cx="46.7987906654705" cy="79.10792073087717" r="1" opacity="1" fill="rgb(230, 85, 54)" style="box-shadow: rgba(0, 0, 0, 0.4) 0px 3px 10px;"></circle><circle cx="46.80899384611449" cy="79.15727831329757" r="1" opacity="1" fill="rgb(229, 84, 54)" style="box-shadow: rgba(0, 0, 0, 0.4) 0px 3px 10px;"></circle><circle cx="46.819048561969645" cy="79.20591770172831" r="1" opacity="1" fill="rgb(229, 84, 53)" style="box-shadow: rgba(0, 0, 0, 0.4) 0px 3px 10px;"></circle><circle cx="46.8289569733226" cy="79.25384934649097" r="1" opacity="1" fill="rgb(229, 83, 53)" style="box-shadow: rgba(0, 0, 0, 0.4) 0px 3px 10px;"></circle><circle cx="46.83872120902595" cy="79.30108354584627" r="1" opacity="1" fill="rgb(229, 83, 53)" style="box-shadow: rgba(0, 0, 0, 0.4) 0px 3px 10px;"></circle><circle cx="46.84834336695575" cy="79.34763044820657" r="1" opacity="1" fill="rgb(229, 82, 52)" style="box-shadow: rgba(0, 0, 0, 0.4) 0px 3px 10px;"></circle><circle cx="46.85782551446218" cy="79.3935000543164" r="1" opacity="1" fill="rgb(229, 82, 52)" style="box-shadow: rgba(0, 0, 0, 0.4) 0px 3px 10px;"></circle><circle cx="46.8671696888137" cy="79.43870221940115" r="1" opacity="1" fill="rgb(228, 81, 52)" style="box-shadow: rgba(0, 0, 0, 0.4) 0px 3px 10px;"></circle><circle cx="46.87637789763489" cy="79.48324665528438" r="1" opacity="1" fill="rgb(228, 81, 52)" style="box-shadow: rgba(0, 0, 0, 0.4) 0px 3px 10px;"></circle><circle cx="46.885452119337614" cy="79.52714293247453" r="1" opacity="1" fill="rgb(228, 81, 51)" style="box-shadow: rgba(0, 0, 0, 0.4) 0px 3px 10px;"></circle><circle cx="46.894394303546264" cy="79.57040048222123" r="1" opacity="1" fill="rgb(228, 80, 51)" style="box-shadow: rgba(0, 0, 0, 0.4) 0px 3px 10px;"></circle><circle cx="46.90320637151651" cy="79.61302859854149" r="1" opacity="1" fill="rgb(228, 80, 51)" style="box-shadow: rgba(0, 0, 0, 0.4) 0px 3px 10px;"></circle><circle cx="46.9118902165482" cy="79.6550364402166" r="1" opacity="1" fill="rgb(227, 79, 50)" style="box-shadow: rgba(0, 0, 0, 0.4) 0px 3px 10px;"></circle><circle cx="46.92044770439203" cy="79.69643303276004" r="1" opacity="1" fill="rgb(227, 79, 50)" style="box-shadow: rgba(0, 0, 0, 0.4) 0px 3px 10px;"></circle><circle cx="46.92888067365051" cy="79.73722727035643" r="1" opacity="1" fill="rgb(227, 78, 50)" style="box-shadow: rgba(0, 0, 0, 0.4) 0px 3px 10px;"></circle><circle cx="46.93719093617292" cy="79.77742791777266" r="1" opacity="1" fill="rgb(227, 78, 50)" style="box-shadow: rgba(0, 0, 0, 0.4) 0px 3px 10px;"></circle><circle cx="46.945380277444606" cy="79.8170436122409" r="1" opacity="1" fill="rgb(227, 77, 49)" style="box-shadow: rgba(0, 0, 0, 0.4) 0px 3px 10px;"></circle><circle cx="46.953450456970664" cy="79.85608286531442" r="1" opacity="1" fill="rgb(226, 77, 49)" style="box-shadow: rgba(0, 0, 0, 0.4) 0px 3px 10px;"></circle><circle cx="46.96140320865387" cy="79.89455406469628" r="1" opacity="1" fill="rgb(226, 76, 49)" style="box-shadow: rgba(0, 0, 0, 0.4) 0px 3px 10px;"></circle><circle cx="46.969240241167284" cy="79.93246547604147" r="1" opacity="1" fill="rgb(226, 76, 48)" style="box-shadow: rgba(0, 0, 0, 0.4) 0px 3px 10px;"></circle><circle cx="46.97696323832135" cy="79.96982524473282" r="1" opacity="1" fill="rgb(226, 75, 48)" style="box-shadow: rgba(0, 0, 0, 0.4) 0px 3px 10px;"></circle><circle cx="46.984573859425666" cy="80.00664139763097" r="1" opacity="1" fill="rgb(226, 75, 48)" style="box-shadow: rgba(0, 0, 0, 0.4) 0px 3px 10px;"></circle><circle cx="46.992073739645484" cy="80.04292184479917" r="1" opacity="1" fill="rgb(226, 75, 48)" style="box-shadow: rgba(0, 0, 0, 0.4) 0px 3px 10px;"></circle><circle cx="46.99946449035304" cy="80.07867438120252" r="1" opacity="1" fill="rgb(225, 74, 47)" style="box-shadow: rgba(0, 0, 0, 0.4) 0px 3px 10px;"></circle><circle cx="47.006747699473756" cy="80.11390668838297" r="1" opacity="1" fill="rgb(225, 74, 47)" style="box-shadow: rgba(0, 0, 0, 0.4) 0px 3px 10px;"></circle><circle cx="47.01392493182741" cy="80.14862633610957" r="1" opacity="1" fill="rgb(225, 73, 47)" style="box-shadow: rgba(0, 0, 0, 0.4) 0px 3px 10px;"></circle><circle cx="47.020997729464376" cy="80.18284078400498" r="1" opacity="1" fill="rgb(225, 73, 46)" style="box-shadow: rgba(0, 0, 0, 0.4) 0px 3px 10px;"></circle><circle cx="47.02796761199685" cy="80.21655738314806" r="1" opacity="1" fill="rgb(225, 72, 46)" style="box-shadow: rgba(0, 0, 0, 0.4) 0px 3px 10px;"></circle><circle cx="47.03483607692547" cy="80.24978337765339" r="1" opacity="1" fill="rgb(224, 72, 46)" style="box-shadow: rgba(0, 0, 0, 0.4) 0px 3px 10px;"></circle><circle cx="47.04160459996095" cy="80.28252590622759" r="1" opacity="1" fill="rgb(224, 71, 46)" style="box-shadow: rgba(0, 0, 0, 0.4) 0px 3px 10px;"></circle><circle cx="47.04827463534117" cy="80.31479200370322" r="1" opacity="1" fill="rgb(224, 71, 45)" style="box-shadow: rgba(0, 0, 0, 0.4) 0px 3px 10px;"></circle><circle cx="47.05484761614369" cy="80.3465886025501" r="1" opacity="1" fill="rgb(224, 70, 45)" style="box-shadow: rgba(0, 0, 0, 0.4) 0px 3px 10px;"></circle><circle cx="47.06132495459354" cy="80.37792253436486" r="1" opacity="1" fill="rgb(224, 70, 45)" style="box-shadow: rgba(0, 0, 0, 0.4) 0px 3px 10px;"></circle><circle cx="47.067708042366725" cy="80.40880053133866" r="1" opacity="1" fill="rgb(224, 69, 44)" style="box-shadow: rgba(0, 0, 0, 0.4) 0px 3px 10px;"></circle><circle cx="47.0739982508892" cy="80.43922922770372" r="1" opacity="1" fill="rgb(223, 69, 44)" style="box-shadow: rgba(0, 0, 0, 0.4) 0px 3px 10px;"></circle><circle cx="47.08019693163152" cy="80.46921516115862" r="1" opacity="1" fill="rgb(223, 68, 44)" style="box-shadow: rgba(0, 0, 0, 0.4) 0px 3px 10px;"></circle><circle cx="47.086305416399235" cy="80.49876477427296" r="1" opacity="1" fill="rgb(223, 68, 43)" style="box-shadow: rgba(0, 0, 0, 0.4) 0px 3px 10px;"></circle><circle cx="47.092325017619" cy="80.5278844158716" r="1" opacity="1" fill="rgb(223, 68, 43)" style="box-shadow: rgba(0, 0, 0, 0.4) 0px 3px 10px;"></circle><circle cx="47.09825702862055" cy="80.55658034239869" r="1" opacity="1" fill="rgb(223, 67, 43)" style="box-shadow: rgba(0, 0, 0, 0.4) 0px 3px 10px;"></circle><circle cx="47.104102723914636" cy="80.58485871926194" r="1" opacity="1" fill="rgb(222, 67, 43)" style="box-shadow: rgba(0, 0, 0, 0.4) 0px 3px 10px;"></circle><circle cx="47.10986335946677" cy="80.61272562215717" r="1" opacity="1" fill="rgb(222, 66, 42)" style="box-shadow: rgba(0, 0, 0, 0.4) 0px 3px 10px;"></circle><circle cx="47.11554017296716" cy="80.6401870383738" r="1" opacity="1" fill="rgb(222, 66, 42)" style="box-shadow: rgba(0, 0, 0, 0.4) 0px 3px 10px;"></circle><circle cx="47.12113438409655" cy="80.66724886808119" r="1" opacity="1" fill="rgb(222, 65, 42)" style="box-shadow: rgba(0, 0, 0, 0.4) 0px 3px 10px;"></circle><circle cx="47.12664719478834" cy="80.69391692559631" r="1" opacity="1" fill="rgb(222, 65, 41)" style="box-shadow: rgba(0, 0, 0, 0.4) 0px 3px 10px;"></circle><circle cx="47.13207978948678" cy="80.72019694063297" r="1" opacity="1" fill="rgb(221, 64, 41)" style="box-shadow: rgba(0, 0, 0, 0.4) 0px 3px 10px;"></circle><circle cx="47.13743333540149" cy="80.74609455953285" r="1" opacity="1" fill="rgb(221, 64, 41)" style="box-shadow: rgba(0, 0, 0, 0.4) 0px 3px 10px;"></circle><circle cx="47.142708982758194" cy="80.77161534647871" r="1" opacity="1" fill="rgb(221, 63, 41)" style="box-shadow: rgba(0, 0, 0, 0.4) 0px 3px 10px;"></circle><circle cx="47.147907865045866" cy="80.79676478468971" r="1" opacity="1" fill="rgb(221, 63, 40)" style="box-shadow: rgba(0, 0, 0, 0.4) 0px 3px 10px;"></circle><circle cx="47.153031099260296" cy="80.82154827759969" r="1" opacity="1" fill="rgb(221, 62, 40)" style="box-shadow: rgba(0, 0, 0, 0.4) 0px 3px 10px;"></circle><circle cx="47.15807978614404" cy="80.84597115001797" r="1" opacity="1" fill="rgb(221, 62, 40)" style="box-shadow: rgba(0, 0, 0, 0.4) 0px 3px 10px;"></circle><circle cx="47.16305501042294" cy="80.87003864927348" r="1" opacity="1" fill="rgb(220, 61, 39)" style="box-shadow: rgba(0, 0, 0, 0.4) 0px 3px 10px;"></circle><circle cx="47.16795784103916" cy="80.89375594634211" r="1" opacity="1" fill="rgb(220, 61, 39)" style="box-shadow: rgba(0, 0, 0, 0.4) 0px 3px 10px;"></circle><circle cx="47.17278933138086" cy="80.91712813695776" r="1" opacity="1" fill="rgb(220, 61, 39)" style="box-shadow: rgba(0, 0, 0, 0.4) 0px 3px 10px;"></circle><circle cx="47.17755051950855" cy="80.94016024270715" r="1" opacity="1" fill="rgb(220, 60, 39)" style="box-shadow: rgba(0, 0, 0, 0.4) 0px 3px 10px;"></circle><circle cx="47.18224242837806" cy="80.96285721210873" r="1" opacity="1" fill="rgb(220, 60, 38)" style="box-shadow: rgba(0, 0, 0, 0.4) 0px 3px 10px;"></circle><circle cx="47.186866066060404" cy="80.98522392167584" r="1" opacity="1" fill="rgb(219, 59, 38)" style="box-shadow: rgba(0, 0, 0, 0.4) 0px 3px 10px;"></circle><circle cx="47.191422425958265" cy="81.00726517696452" r="1" opacity="1" fill="rgb(219, 59, 38)" style="box-shadow: rgba(0, 0, 0, 0.4) 0px 3px 10px;"></circle><circle cx="47.195912487019534" cy="81.02898571360599" r="1" opacity="1" fill="rgb(219, 58, 37)" style="box-shadow: rgba(0, 0, 0, 0.4) 0px 3px 10px;"></circle><circle cx="47.20033721394758" cy="81.05039019832402" r="1" opacity="1" fill="rgb(219, 58, 37)" style="box-shadow: rgba(0, 0, 0, 0.4) 0px 3px 10px;"></circle><circle cx="47.2046975574085" cy="81.0714832299377" r="1" opacity="1" fill="rgb(219, 57, 37)" style="box-shadow: rgba(0, 0, 0, 0.4) 0px 3px 10px;"></circle><circle cx="47.20899445423549" cy="81.09226934034945" r="1" opacity="1" fill="rgb(219, 57, 37)" style="box-shadow: rgba(0, 0, 0, 0.4) 0px 3px 10px;"></circle><circle cx="47.21322882762995" cy="81.11275299551875" r="1" opacity="1" fill="rgb(218, 56, 36)" style="box-shadow: rgba(0, 0, 0, 0.4) 0px 3px 10px;"></circle><circle cx="47.21740158735997" cy="81.1329385964216" r="1" opacity="1" fill="rgb(218, 56, 36)" style="box-shadow: rgba(0, 0, 0, 0.4) 0px 3px 10px;"></circle><circle cx="47.22151362995579" cy="81.15283047999618" r="1" opacity="1" fill="rgb(218, 55, 36)" style="box-shadow: rgba(0, 0, 0, 0.4) 0px 3px 10px;"></circle><circle cx="47.22556583890231" cy="81.17243292007458" r="1" opacity="1" fill="rgb(218, 55, 35)" style="box-shadow: rgba(0, 0, 0, 0.4) 0px 3px 10px;"></circle><circle cx="47.22955908482905" cy="81.1917501283011" r="1" opacity="1" fill="rgb(218, 55, 35)" style="box-shadow: rgba(0, 0, 0, 0.4) 0px 3px 10px;"></circle><circle cx="47.23349422569713" cy="81.21078625503701" r="1" opacity="1" fill="rgb(217, 54, 35)" style="box-shadow: rgba(0, 0, 0, 0.4) 0px 3px 10px;"></circle><circle cx="47.23737210698359" cy="81.22954539025247" r="1" opacity="1" fill="rgb(217, 54, 34)" style="box-shadow: rgba(0, 0, 0, 0.4) 0px 3px 10px;"></circle><circle cx="47.24119356186312" cy="81.2480315644051" r="1" opacity="1" fill="rgb(217, 53, 34)" style="box-shadow: rgba(0, 0, 0, 0.4) 0px 3px 10px;"></circle><circle cx="47.244959411387" cy="81.26624874930602" r="1" opacity="1" fill="rgb(217, 53, 34)" style="box-shadow: rgba(0, 0, 0, 0.4) 0px 3px 10px;"></circle><circle cx="47.24867046465952" cy="81.28420085897321" r="1" opacity="1" fill="rgb(217, 52, 34)" style="box-shadow: rgba(0, 0, 0, 0.4) 0px 3px 10px;"></circle><circle cx="47.252327519011835" cy="81.30189175047235" r="1" opacity="1" fill="rgb(216, 52, 33)" style="box-shadow: rgba(0, 0, 0, 0.4) 0px 3px 10px;"></circle><circle cx="47.25593136017329" cy="81.3193252247457" r="1" opacity="1" fill="rgb(216, 51, 33)" style="box-shadow: rgba(0, 0, 0, 0.4) 0px 3px 10px;"></circle><circle cx="47.25948276244017" cy="81.33650502742854" r="1" opacity="1" fill="rgb(216, 51, 33)" style="box-shadow: rgba(0, 0, 0, 0.4) 0px 3px 10px;"></circle><circle cx="47.262982488842155" cy="81.35343484965409" r="1" opacity="1" fill="rgb(216, 50, 32)" style="box-shadow: rgba(0, 0, 0, 0.4) 0px 3px 10px;"></circle><circle cx="47.266431291306134" cy="81.37011832884652" r="1" opacity="1" fill="rgb(216, 50, 32)" style="box-shadow: rgba(0, 0, 0, 0.4) 0px 3px 10px;"></circle><circle cx="47.269829910817926" cy="81.38655904950238" r="1" opacity="1" fill="rgb(216, 49, 32)" style="box-shadow: rgba(0, 0, 0, 0.4) 0px 3px 10px;"></circle><circle cx="47.273179077581304" cy="81.40276054396085" r="1" opacity="1" fill="rgb(215, 49, 32)" style="box-shadow: rgba(0, 0, 0, 0.4) 0px 3px 10px;"></circle><circle cx="47.27647951117501" cy="81.41872629316265" r="1" opacity="1" fill="rgb(215, 48, 31)" style="box-shadow: rgba(0, 0, 0, 0.4) 0px 3px 10px;"></circle><circle cx="47.27973192070732" cy="81.43445972739784" r="1" opacity="1" fill="rgb(215, 48, 31)" style="box-shadow: rgba(0, 0, 0, 0.4) 0px 3px 10px;"></circle></g></svg>