<svg xmlns="http://www.w3.org/2000/svg" xmlns:xlink="http://www.w3.org/1999/xlink" width="110" height="110" style="padding: 6px;"><svg width="110" height="110"><path d="M13.75,-3.73291015625L13.79583333333333,-3.4723097364176425L13.841666666666665,-3.2125775014322926L13.887499999999998,-2.953711520922866L13.933333333333328,-2.6957098666666752L13.97916666666667,-2.4385706125895155L14.025000000000004,-2.182291834765607L14.070833333333335,-1.9268716114176243L14.116666666666665,-1.672308022916667L14.1625,-1.4185991517822316L14.208333333333332,-1.1657430826823116L14.254166666666663,-0.913737902433283L14.299999999999997,-0.6625817000000183L14.345833333333339,-0.4122725664957727L14.39166666666667,-0.16280859518226976L14.4375,0.08581211853028492L14.483333333333334,0.33359147708334547L14.529166666666667,0.5805313807698553L14.574999999999998,0.8266337277343752L14.620833333333332,1.071900413972969L14.666666666666664,1.3163333333333185L14.712500000000004,1.5599343775146792L14.758333333333335,1.8027054360677255L14.804166666666669,2.0446483963948623L14.850000000000001,2.2857651437500124L14.895833333333332,2.526057561238602L14.941666666666666,2.765527529817703L14.987499999999997,3.004176928295877L15.03333333333333,3.2420076333333157L15.079166666666664,3.479021519441716L15.125000000000004,3.7152204589843905L15.170833333333336,3.950606322176128L15.216666666666667,4.185180977083348L15.262500000000001,4.4189462896240315L15.308333333333334,4.651904123567718L15.354166666666664,4.884056340535466L15.399999999999999,5.115404799999979L15.44583333333333,5.345951359285465L15.49166666666667,5.575697873567734L15.537500000000001,5.804646195874028L15.583333333333336,6.032798177083336L15.629166666666666,6.260155665926106L15.674999999999999,6.4867205089843765L15.720833333333333,6.71249455069173L15.766666666666664,6.937479633333325L15.812499999999996,7.161677597045895L15.858333333333336,7.385090279817732L15.90416666666667,7.607719517488633L15.950000000000003,7.829567143749998L15.995833333333334,8.050634990144857L16.041666666666668,8.270924886067704L16.0875,8.490438658764646L16.13333333333333,8.709178133333324L16.179166666666664,8.92714513272297L16.224999999999994,9.144341477734358L16.270833333333336,9.360768987019867L16.316666666666666,9.576429477083352L16.3625,9.791324762280283L16.408333333333335,10.00545665481772L16.454166666666666,10.218826964754214L16.5,10.431437499999987L16.54583333333333,10.643290066316709L16.59166666666666,10.854386467317696L16.637500000000003,11.06472850446778L16.683333333333337,11.274317977083342L16.729166666666668,11.483156682332364L16.775,11.691246415234389L16.820833333333333,11.89858896866049L16.866666666666667,12.10518613333332L16.912499999999998,12.311039697827141L16.958333333333332,12.516151448567697L17.00416666666667,12.720523169832376L17.050000000000004,12.92415664375001L17.095833333333335,13.127053650301121L17.14166666666667,13.329215967317708L17.1875,13.530645370483398L17.23333333333333,13.73134363333331L17.279166666666665,13.93131252725422L17.324999999999996,14.13055382148437L17.37083333333333,14.329069283113597L17.416666666666668,14.526860677083349L17.462500000000002,14.72392976618653L17.508333333333333,14.920278311067719L17.554166666666667,15.115908070222986L17.6,15.310820800000016L17.645833333333332,15.505018254597971L17.691666666666663,15.6985021860677L17.737499999999997,15.891274344311512L17.78333333333334,16.083336477083336L17.82916666666667,16.274690329988616L17.875,16.46533764648437L17.920833333333334,16.65528016787924L17.966666666666665,16.844519633333334L18.0125,17.033057779858396L18.058333333333334,17.2208963423177L18.104166666666664,17.408037053426085L18.150000000000006,17.59448164375003L18.195833333333336,17.780231841707376L18.24166666666667,17.965289373567714L18.2875,18.14965596345216L18.333333333333332,18.33333333333333L18.379166666666666,18.51632320303547L18.424999999999997,18.69862729023437L18.470833333333335,18.88024731045735L18.516666666666666,19.06118497708333L18.562499999999996,19.24144200134276L18.608333333333334,19.42102009231769L18.65416666666667,19.59992095694173L18.700000000000003,19.778146300000003L18.745833333333334,19.95569782412923L18.791666666666664,20.1325772298177L18.837500000000002,20.308786215405277L18.883333333333333,20.484326477083343L18.929166666666667,20.65919970889486L18.974999999999998,20.83340760273437L19.020833333333336,21.006951848347995L19.066666666666666,21.17983413333333L19.112499999999997,21.352056143139663L19.15833333333333,21.523619561067704L19.204166666666666,21.69452606826985L19.250000000000004,21.864777343750006L19.295833333333334,22.034375064363616L19.341666666666665,22.2033209048177L19.387500000000003,22.371616537670903L19.433333333333334,22.539263633333334L19.479166666666668,22.706263860066727L19.525,22.87261888398436L19.57083333333333,23.038330369051096L19.616666666666667,23.203399977083336L19.662499999999998,23.36782936774904L19.708333333333332,23.531620198567694L19.754166666666666,23.69477412491048L19.8,23.85729280000001L19.845833333333335,24.019177874910483L19.891666666666666,24.180430998567715L19.9375,24.341053817749028L19.983333333333334,24.50104797708333L20.02916666666667,24.66041511905111L20.075,24.819156883984377L20.12083333333333,24.977274910066726L20.166666666666668,25.134770833333334L20.2125,25.2916462876709L20.258333333333333,25.447902904817695L20.304166666666667,25.603542314363594L20.35,25.758566143750002L20.395833333333336,25.91297601826986L20.441666666666666,26.066773561067706L20.4875,26.219960393139644L20.533333333333335,26.372538133333336L20.57916666666667,26.52450839834799L20.625,26.675872802734375L20.67083333333333,26.826632958894848L20.716666666666665,26.976790477083327L20.7625,27.12634696540529L20.808333333333334,27.275304029817704L20.854166666666664,27.423663274129225L20.9,27.571426299999985L20.945833333333333,27.718594706941744L20.991666666666667,27.865170092317697L21.0375,28.01115405134277L21.083333333333332,28.156548177083323L21.12916666666667,28.30135406045737L21.175,28.44557329023438L21.22083333333333,28.589207453035485L21.266666666666666,28.732258133333318L21.3125,28.87472691345215L21.358333333333334,29.016615373567703L21.404166666666665,29.15792509170737L21.45,29.298657643750005L21.495833333333334,29.43881460342611L21.541666666666668,29.578397542317703L21.587500000000002,29.71740802985839L21.633333333333333,29.855847633333326L21.67916666666667,29.993717917879238L21.725,30.13102044648437L21.770833333333332,30.267756779988602L21.816666666666666,30.40392847708334L21.862499999999997,30.539537094311513L21.908333333333335,30.674584186067705L21.954166666666666,30.80907130459798L21.999999999999996,30.942999999999998L22.045833333333334,31.076371820222988L22.09166666666667,31.209188311067706L22.137500000000003,31.34145101618651L22.183333333333334,31.473161477083323L22.229166666666664,31.604321233113595L22.275000000000002,31.73493182148438L22.320833333333333,31.864994777254225L22.366666666666667,31.99451163333333L22.412499999999998,32.123483920483395L22.458333333333336,32.251913167317724L22.504166666666666,32.37980090030112L22.549999999999997,32.507148643749986L22.59583333333333,32.63395791983237L22.641666666666666,32.76023024856771L22.687500000000004,32.885967147827145L22.733333333333334,33.01117013333334L22.779166666666665,33.13584071866049L22.825000000000003,33.25998041523438L22.870833333333334,33.383590732332365L22.916666666666668,33.50667317708333L22.9625,33.629229254467774L23.00833333333333,33.75126046731769L23.054166666666667,33.87276831631672L23.099999999999998,33.993754300000006L23.145833333333332,34.11421991475423L23.191666666666666,34.2341666548177L23.2375,34.35359601228028L23.283333333333335,34.472509477083335L23.329166666666666,34.59090853701986L23.375,34.708794677734375L23.420833333333334,34.82616938272298L23.46666666666667,34.94303413333334L23.5125,35.059390408764656L23.55833333333333,35.1752396860677L23.604166666666668,35.29058344014486L23.65,35.40542314375L23.695833333333333,35.51976026748861L23.741666666666667,35.633596279817695L23.7875,35.74693264704591L23.833333333333336,35.85977083333333L23.879166666666666,35.97211230069172L23.925,36.08395850898438L23.970833333333335,36.195310915926115L24.01666666666667,36.30617097708334L24.0625,36.41654014587402L24.10833333333333,36.526419873567704L24.154166666666665,36.63581160928548L24.2,36.744716800000006L24.245833333333334,36.85313689053548L24.291666666666664,36.9610733235677L24.3375,37.06852753962403L24.383333333333333,37.175500977083345L24.429166666666667,37.2819950721761L24.475,37.38801125898438L24.520833333333332,37.49355096944173L24.56666666666667,37.59861563333334L24.6125,37.7032066782959L24.65833333333333,37.8073255298177L24.704166666666666,37.9109736112386L24.75,38.01415234375L24.795833333333334,38.11686314639485L24.841666666666665,38.2191074360677L24.8875,38.32088662751465L24.933333333333334,38.42220213333334L24.979166666666668,38.523055363972986L25.025000000000002,38.62344772773437L25.070833333333333,38.72338063076985L25.11666666666667,38.82285547708334L25.1625,38.92187366853028L25.208333333333332,39.020436604817704L25.254166666666666,39.11854568350424L25.299999999999997,39.21620229999999L25.345833333333335,39.31340784756674L25.391666666666666,39.4101637173177L25.437499999999996,39.506471298217775L25.483333333333334,39.602331977083324L25.52916666666667,39.69774713858236L25.575000000000003,39.792718165234376L25.620833333333334,39.88724643741048L25.666666666666664,39.981333333333325L25.712500000000002,40.07498022907714L25.758333333333333,40.1681884985677L25.804166666666667,40.260959513582364L25.849999999999998,40.35329464374999L25.895833333333336,40.4451952565511L25.941666666666666,40.53666271731771L25.987499999999997,40.6276983892334L26.03333333333333,40.718303633333335L26.079166666666666,40.80847980850423L26.125000000000004,40.89822827148437L26.170833333333334,40.98755037686361L26.216666666666665,41.07644747708332L26.262500000000003,41.164920922436536L26.308333333333334,41.25297206106771L26.354166666666668,41.34060223897298L26.4,41.4278128L26.44583333333333,41.514605085847975L26.491666666666667,41.6009804360677L26.537499999999998,41.68694018806153L26.583333333333332,41.77248567708334L26.629166666666666,41.85761823623861L26.675,41.94233919648437L26.720833333333335,42.02664988662923L26.766666666666666,42.11055163333333L26.8125,42.1940457611084L26.858333333333334,42.27713359231771L26.90416666666667,42.359816447176115L26.95,42.44209564375001L26.99583333333333,42.523972497957345L27.041666666666668,42.6054483235677L27.0875,42.68652443220215L27.133333333333333,42.76720213333333L27.179166666666667,42.84748273428548L27.225,42.927367540234386L27.270833333333336,43.006857854207354L27.316666666666666,43.08595497708333L27.3625,43.164660207592775L27.408333333333335,43.24297484231771L27.45416666666667,43.32090017569175L27.5,43.3984375L27.545833333333334,43.47558810537922L27.59166666666666,43.55235327981771L27.637500000000003,43.62873430915528L27.68333333333333,43.70473247708334L27.729166666666664,43.78034906514486L27.775,43.855585352734366L27.820833333333333,43.93044261709798L27.86666666666667,44.00492213333334L27.912499999999998,44.07902517438964L27.958333333333332,44.1527530110677L28.004166666666666,44.22610691201986L28.05,44.29908814375L28.095833333333335,44.37169797061361L28.141666666666662,44.4439376548177L28.187500000000004,44.5158084564209L28.23333333333333,44.58731163333334L28.279166666666665,44.658448441316736L28.325,44.72922013398437L28.370833333333334,44.79962796280111L28.416666666666668,44.86967317708334L28.4625,44.93935702399902L28.508333333333333,45.00868074856771L28.554166666666667,45.07764559366049L28.6,45.1462528L28.645833333333336,45.21450360616048L28.691666666666663,45.2823992485677L28.737499999999997,45.34994096149903L28.78333333333333,45.417129977083334L28.829166666666666,45.48396752530111L28.875,45.550454833984375L28.92083333333333,45.61659312881673L28.96666666666667,45.68238363333333L29.0125,45.7478275689209L29.058333333333334,45.8129261548177L29.104166666666668,45.87768060811361L29.150000000000002,45.94209214375L29.195833333333336,46.006161974519856L29.241666666666664,46.06989131106771L29.287499999999998,46.13328136188965L29.333333333333332,46.196333333333335L29.379166666666666,46.25904842959799L29.425,46.32142785273438L29.47083333333333,46.38347280264485L29.51666666666667,46.44518447708334L29.5625,46.50656407165527L29.608333333333334,46.567612779817715L29.65416666666667,46.62833179287923L29.700000000000003,46.6887223L29.745833333333337,46.748785488191736L29.791666666666664,46.808522542317704L29.8375,46.867934645092774L29.883333333333333,46.927022977083325L29.929166666666667,46.985788716707354L29.975,47.04423304023437L30.020833333333332,47.10235712178548L30.066666666666666,47.16016213333333L30.1125,47.21764924470215L30.158333333333335,47.274819623567716L30.20416666666667,47.33167443545735L30.249999999999996,47.38821484374999L30.295833333333338,47.4444420096761L30.341666666666665,47.5003570923177L30.3875,47.555961248608405L30.433333333333334,47.61125563333333L30.479166666666668,47.66624139912924L30.525000000000002,47.72091969648437L30.57083333333333,47.77529167373861L30.616666666666667,47.829358477083325L30.6625,47.88312125056152L30.708333333333336,47.93658113606771L30.75416666666667,47.98973927334798L30.799999999999997,48.0425968L30.84583333333334,48.09515485147299L30.891666666666666,48.14741456106772L30.9375,48.19937705993652L30.983333333333334,48.25104347708333L31.02916666666666,48.3024149393636L31.075000000000003,48.353492571484374L31.12083333333333,48.40427749600423L31.166666666666664,48.45477083333333L31.2125,48.50497370173339L31.258333333333333,48.55488721731771L31.30416666666667,48.60451249405111L31.349999999999998,48.65385064374999L31.395833333333332,48.702902776082354L31.441666666666666,48.75166999856772L31.4875,48.800153416577146L31.533333333333335,48.84835413333334L31.579166666666662,48.896273249910486L31.625000000000004,48.94391186523438L31.67083333333333,48.991271076082356L31.716666666666665,49.03835197708332L31.7625,49.085155660717774L31.808333333333334,49.1316832173177L31.854166666666668,49.17793573506674L31.9,49.22391429999999L31.945833333333333,49.26961999600423L31.991666666666667,49.31505390481771L32.0375,49.36021710603027L32.083333333333336,49.40511067708333L32.12916666666666,49.44973569326986L32.175,49.494093227734375L32.22083333333333,49.53818435147298L32.266666666666666,49.582010133333334L32.3125,49.62557164001465L32.35833333333333,49.6688699360677L32.40416666666667,49.71190608389486L32.449999999999996,49.754681143750005L32.49583333333333,49.797196173738605L32.541666666666664,49.8394522298177L32.5875,49.88145036579591L32.63333333333333,49.92319163333334L32.67916666666667,49.96467708194172L32.725,50.00590775898438L32.770833333333336,50.04688470967611L32.81666666666667,50.08760897708333L32.862500000000004,50.12808160212403L32.90833333333333,50.1683036235677L32.95416666666667,50.20827607803548L33,50.248L33.045833333333334,50.28747642178548L33.09166666666667,50.326706373567696L33.1375,50.365690883374015L33.18333333333334,50.40443097708334L33.229166666666664,50.4429276784261L33.275,50.481182008984376L33.32083333333333,50.51919498819173L33.36666666666667,50.55696763333333L33.4125,50.5945009595459L33.45833333333333,50.63179597981771L33.50416666666666,50.66885370498861L33.55,50.70567514375001L33.59583333333333,50.742261302644856L33.641666666666666,50.77861318606771L33.68749999999999,50.81473179626464L33.733333333333334,50.850618133333334L33.77916666666667,50.886273195222984L33.825,50.921697977734375L33.87083333333334,50.956893474519866L33.91666666666667,50.99186067708333L33.962500000000006,51.026600574780275L34.00833333333333,51.06111415481771L34.05416666666667,51.09540240225423L34.1,51.129466300000004L34.145833333333336,51.16330682881674L34.19166666666667,51.1969249673177L34.2375,51.23032169196777L34.28333333333334,51.26349797708333L34.329166666666666,51.29645479483236L34.375,51.329193115234375L34.420833333333334,51.36171390616048L34.46666666666666,51.39401813333334L34.5125,51.426106760327144L34.55833333333333,51.45798074856771L34.604166666666664,51.489641057332356L34.65,51.52108864375L34.69583333333333,51.5523244628011L34.74166666666667,51.58334946731771L34.787499999999994,51.614164607983405L34.83333333333333,51.644770833333325L34.87916666666666,51.67516908975423L34.925,51.705360321484385L34.97083333333333,51.73534547061361L35.016666666666666,51.76512547708334L35.06250000000001,51.794701278686524L35.108333333333334,51.82407381106771L35.15416666666667,51.853244007722985L35.2,51.88221279999999L35.24583333333334,51.91098111709798L35.29166666666667,51.93954988606771L35.3375,51.96792003181152L35.38333333333333,51.99609247708333L35.42916666666667,52.0240681424886L35.475,52.051847946484386L35.520833333333336,52.07943280537923L35.56666666666666,52.106823633333335L35.6125,52.1340213423584L35.65833333333333,52.16102684231772L35.704166666666666,52.187841040926116L35.75,52.21446484375L35.79583333333333,52.240899154207355L35.84166666666667,52.26714487356771L35.887499999999996,52.29320290095215L35.93333333333333,52.31907413333333L35.979166666666664,52.34475946553548L36.025,52.37025979023437L36.07083333333333,52.39557599795735L36.11666666666667,52.420708977083336L36.1625,52.44565961384278L36.208333333333336,52.47042879231771L36.25416666666667,52.49501739444174L36.300000000000004,52.5194263L36.34583333333333,52.54365638662924L36.39166666666667,52.567708529817715L36.4375,52.59158360290528L36.483333333333334,52.61528247708334L36.52916666666667,52.638806021394856L36.575,52.66215510273437L36.62083333333334,52.685330585847986L36.666666666666664,52.70833333333333L36.7125,52.731164205639644L36.75833333333333,52.75382406106771L36.80416666666666,52.776313755769856L36.849999999999994,52.79863414375L36.895833333333336,52.820786076863605L36.94166666666667,52.842770404817706L36.9875,52.8645879751709L37.03333333333333,52.886239633333325L37.079166666666666,52.90772622256674L37.12499999999999,52.929048583984375L37.170833333333334,52.950207556551106L37.21666666666667,52.971203977083334L37.262499999999996,52.992038680249024L37.30833333333334,53.012712498567716L37.35416666666667,53.03322626241048L37.400000000000006,53.05358079999999L37.44583333333333,53.073776937410486L37.49166666666667,53.09381549856771L37.5375,53.113697305249026L37.58333333333333,53.13342317708334L37.62916666666667,53.152993931551116L37.675000000000004,53.17241038398437L37.72083333333334,53.19167334756673L37.766666666666666,53.21078363333333L37.8125,53.2297420501709L37.858333333333334,53.24854940481771L37.90416666666666,53.267206501863605L37.949999999999996,53.28571414375L37.99583333333333,53.30407313076986L38.04166666666667,53.32228426106771L38.0875,53.34034833063965L38.13333333333333,53.35826613333333L38.17916666666667,53.37603846084798L38.224999999999994,53.39366610273438L38.27083333333333,53.41114984639486L38.31666666666666,53.428490477083336L38.362500000000004,53.445688777905275L38.40833333333333,53.46274552981771L38.454166666666666,53.47966151162923L38.50000000000001,53.4964375L38.545833333333334,53.51307426944173L38.59166666666667,53.52957259231771L38.6375,53.54593323884278L38.68333333333333,53.56215697708333L38.729166666666664,53.57824457295735L38.775000000000006,53.59419679023438L38.82083333333334,53.610014390535476L38.86666666666667,53.62569813333334L38.9125,53.64124877595215L38.958333333333336,53.656667073567704L39.00416666666666,53.67195377920735L39.05,53.687109643750006L39.09583333333333,53.70213541592611L39.14166666666666,53.71703184231771L39.1875,53.731799667358395L39.233333333333334,53.74643963333333L39.27916666666667,53.76095248037923L39.324999999999996,53.77533894648438L39.37083333333333,53.78959976748861L39.416666666666664,53.80373567708334L39.4625,53.81774740681153L39.50833333333333,53.83163568606771L39.55416666666667,53.84540124209798L39.6,53.8590448L39.645833333333336,53.87256708272298L39.69166666666667,53.885968811067706L39.737500000000004,53.89925070368652L39.78333333333333,53.912413477083334L39.829166666666666,53.9254578456136L39.875,53.93838452148438L39.92083333333334,53.95119421475424L39.96666666666667,53.96388763333333L40.0125,53.9764654829834L40.05833333333334,53.988928467317706L40.104166666666664,54.0012772878011L40.15,54.013512643750005L40.19583333333333,54.02563523233236L40.24166666666666,54.0376457485677L40.287499999999994,54.049544885327144L40.333333333333336,54.06133333333333L40.37916666666667,54.07301178116048L40.425,54.084580915234376L40.47083333333333,54.09604141983235L40.516666666666666,54.10739397708333L40.56249999999999,54.11863926696777L40.608333333333334,54.12977796731771L40.65416666666667,54.14081075381673L40.699999999999996,54.151738300000005L40.74583333333334,54.16256127725423L40.79166666666667,54.173280354817706L40.837500000000006,54.18389619978027L40.88333333333333,54.19440947708333L40.92916666666667,54.20482084951986L40.975,54.21513097773438L41.02083333333333,54.22534052022299L41.06666666666667,54.23545013333333L41.112500000000004,54.24546047126465L41.15833333333334,54.2553721860677L41.204166666666666,54.26518592764486L41.25,54.27490234375L41.295833333333334,54.2845220799886L41.34166666666666,54.294045779817715L41.387499999999996,54.30347408454589L41.43333333333333,54.312807633333335L41.47916666666667,54.32204706319173L41.525,54.33119300898438L41.57083333333333,54.34024610342611L41.61666666666667,54.349206977083334L41.662499999999994,54.35807625837402L41.70833333333333,54.36685457356771L41.75416666666666,54.375542546785475L41.800000000000004,54.384140800000004L41.84583333333333,54.39264995303548L41.891666666666666,54.40107062356772L41.93750000000001,54.409403427124026L41.983333333333334,54.41764897708333L42.02916666666667,54.42580788467611L42.075,54.43388075898437L42.12083333333333,54.441868206941734L42.166666666666664,54.44977083333334L42.212500000000006,54.457589240795905L42.25833333333334,54.46532402981771L42.30416666666667,54.4729757987386L42.35,54.48054514375L42.395833333333336,54.48803265889485L42.44166666666666,54.49543893606771L42.4875,54.50276456501465L42.53333333333333,54.510010133333324L42.57916666666666,54.51717622647298L42.625,54.524263427734375L42.670833333333334,54.531272318269856L42.71666666666667,54.53820347708333L42.762499999999996,54.54505748103028L42.80833333333333,54.55183490481771L42.854166666666664,54.55853632100423L42.9,54.5651623L42.94583333333333,54.57171341006673L42.99166666666667,54.57819021731771L43.0375,54.58459328571778L43.083333333333336,54.59092317708333L43.12916666666667,54.59718045108236L43.175000000000004,54.60336566523438L43.22083333333333,54.60947937491048L43.266666666666666,54.615522133333336L43.3125,54.62149449157715L43.35833333333334,54.62739699856771L43.40416666666667,54.633230201082355L43.45,54.63899464375L43.49583333333334,54.6446908690511L43.541666666666664,54.650319417317704L43.5875,54.6558808267334L43.63333333333333,54.661375633333336L43.67916666666666,54.66680437100423L43.724999999999994,54.67216757148437L43.770833333333336,54.6774657643636L43.81666666666667,54.68269947708333L43.8625,54.68786923493652L43.90833333333333,54.69297556106771L43.954166666666666,54.69801897647298L43.99999999999999,54.702999999999996L44.045833333333334,54.70791914834798L44.09166666666667,54.71277693606771L44.137499999999996,54.71757387556153L44.18333333333334,54.72231047708333L44.22916666666667,54.72698724873861L44.275000000000006,54.731604696484375L44.32083333333333,54.73616332412924L44.36666666666667,54.740663633333334L44.4125,54.745106123608394L44.45833333333333,54.749491292317714L44.50416666666667,54.753819634676105L44.550000000000004,54.75809164375L44.59583333333334,54.76230781045736L44.641666666666666,54.76646862356771L44.6875,54.77057456970215L44.733333333333334,54.77462613333334L44.77916666666666,54.77862379678548L44.824999999999996,54.78256804023437L44.87083333333333,54.786459341707356L44.91666666666667,54.790298177083336L44.9625,54.79408502009277L45.00833333333333,54.79782034231771L45.05416666666667,54.80150461319173L45.099999999999994,54.8051383L45.14583333333333,54.808721867879235L45.19166666666666,54.812255779817704L45.237500000000004,54.815740496655266L45.28333333333333,54.81917647708333L45.329166666666666,54.82256417764486L45.37500000000001,54.82590405273437L45.420833333333334,54.82919655459798L45.46666666666667,54.83244213333333L45.5125,54.83564123688965L45.55833333333333,54.838794311067716L45.604166666666664,54.84190179951986L45.650000000000006,54.844964143750005L45.69583333333334,54.8479817831136L45.74166666666667,54.85095515481771L45.7875,54.853884693920904L45.833333333333336,54.85677083333333L45.87916666666666,54.85961400381673L45.925,54.86241463398438L45.97083333333333,54.8651731503011L46.01666666666666,54.86788997708333L46.0625,54.87056553649903L46.108333333333334,54.873200248567706L46.15416666666667,54.87579453116048L46.199999999999996,54.878348800000005L46.24583333333333,54.880863468660486L46.291666666666664,54.88333894856771L46.3375,54.88577564899902L46.38333333333333,54.88817397708334L46.42916666666667,54.89053433780111L46.475,54.89285713398438L46.520833333333336,54.89514276631674L46.56666666666667,54.897391633333335L46.612500000000004,54.899604131420894L46.65833333333333,54.90178065481771L46.704166666666666,54.9039215956136L46.75,54.906027343750004L46.79583333333334,54.908098287019854L46.84166666666667,54.910134811067714L46.8875,54.91213729938965L46.93333333333334,54.914106133333334L46.979166666666664,54.91604169209798L47.025,54.91794435273438L47.07083333333333,54.91981449014486L47.11666666666666,54.921652477083335L47.162499999999994,54.92345868415528L47.208333333333336,54.925233479817706L47.25416666666667,54.92697723037924L47.3,54.9286903L47.34583333333333,54.930373050691735L47.391666666666666,54.93202584231771L47.43749999999999,54.93364903259278L47.483333333333334,54.935242977083334L47.52916666666667,54.93680802920736L47.574999999999996,54.93834454023437L47.62083333333334,54.93985285928549L47.66666666666667,54.941333333333326L47.712500000000006,54.94278630720214L47.75833333333333,54.94421212356771L47.80416666666667,54.94561112295736L47.85,54.946983643749995L47.89583333333333,54.9483300221761L47.94166666666667,54.94965059231771L47.987500000000004,54.95094568610839L48.03333333333334,54.95221563333333L48.079166666666666,54.95346076162924L48.125,54.954681396484375L48.170833333333334,54.955877861238605L48.21666666666666,54.95705047708334L48.262499999999996,54.95819956306152L48.30833333333333,54.95932543606771L48.35416666666667,54.96042841084799L48.4,54.9615088L48.44583333333333,54.96256691397298L48.49166666666667,54.96360306106771L48.537499999999994,54.964617547436525L48.58333333333333,54.96561067708334L48.62916666666666,54.96658275186361L48.675000000000004,54.96753407148437L48.72083333333333,54.96846493350423L48.766666666666666,54.969375633333335L48.81250000000001,54.97026646423339L48.858333333333334,54.97113771731771L48.90416666666667,54.9719896815511L48.95,54.97282264375L48.99583333333333,54.973636888582355L49.041666666666664,54.9744326985677L49.087500000000006,54.97521035407715L49.13333333333334,54.97597013333333L49.17916666666667,54.976712312410484L49.225,54.97743716523438L49.270833333333336,54.97814496358235L49.31666666666666,54.978835977083335L49.3625,54.97951047321777L49.40833333333333,54.9801687173177L49.45416666666666,54.98081097256672L49.5,54.981437500000006L49.545833333333334,54.98204855850423L49.59166666666667,54.982644404817705L49.637499999999996,54.98322529353027L49.68333333333333,54.98379147708333L49.729166666666664,54.98434320576986L49.775,54.98488072773437L49.82083333333333,54.98540428897298L49.86666666666667,54.98591413333333L49.9125,54.98641050251465L49.958333333333336,54.986893636067705L50.00416666666667,54.987363771394854L50.050000000000004,54.987821143750004L50.09583333333333,54.98826598623861L50.141666666666666,54.988698529817704L50.1875,54.9891190032959L50.23333333333334,54.98952763333333L50.27916666666667,54.989924644441736L50.325,54.990310258984366L50.37083333333334,54.99068469717611L50.416666666666664,54.99104817708333L50.4625,54.99140091462402L50.50833333333333,54.99174312356771L50.55416666666666,54.99207501553549L50.599999999999994,54.992396799999995L50.645833333333336,54.99270868428548L50.69166666666667,54.99301087356771L50.7375,54.993303570874026L50.78333333333333,54.99358697708334L50.829166666666666,54.9938612909261L50.87499999999999,54.994126708984375L50.920833333333334,54.99438342569173L50.96666666666667,54.994631633333334L51.0125,54.9948715220459L51.05833333333334,54.99510327981771L51.10416666666667,54.9953270924886L51.150000000000006,54.99554314374999L51.19583333333333,54.99575161514486L51.24166666666667,54.9959526860677L51.2875,54.99614653376465L51.33333333333333,54.99633333333333L51.37916666666667,54.99651325772298L51.425000000000004,54.99668647773437L51.47083333333334,54.99685316201986L51.516666666666666,54.997013477083335L51.5625,54.99716758728027L51.608333333333334,54.997315654817704L51.65416666666666,54.99745783975423L51.699999999999996,54.9975943L51.74583333333333,54.99772519131674L51.79166666666667,54.997850667317714L51.8375,54.99797087946778L51.88333333333333,54.99808597708333L51.92916666666667,54.998196107332355L51.974999999999994,54.99830141523438L52.02083333333333,54.99840204366048L52.06666666666666,54.99849813333333L52.1125,54.99858982282715L52.15833333333333,54.998677248567716L52.204166666666666,54.99876054483236L52.25000000000001,54.99883984375L52.295833333333334,54.9989152753011L52.34166666666667,54.998986967317705L52.3875,54.9990550454834L52.43333333333333,54.999119633333336L52.479166666666664,54.99918085225423L52.525000000000006,54.999238821484376L52.57083333333334,54.99929365811361L52.61666666666667,54.99934547708334L52.6625,54.99939439118653L52.708333333333336,54.999440511067704L52.75416666666666,54.99948394522298L52.8,54.999524799999996L52.84583333333333,54.99956317959799L52.89166666666666,54.999599186067705L52.9375,54.99963291931153L52.983333333333334,54.99966447708333L53.02916666666667,54.9996939549886L53.074999999999996,54.99972144648437L53.12083333333333,54.99974704287923L53.166666666666664,54.999770833333336L53.2125,54.999792904858396L53.25833333333333,54.9998133423177L53.30416666666667,54.99983222842611L53.35,54.999849643750004L53.395833333333336,54.99986566670736L53.44166666666667,54.999880373567706L53.487500000000004,54.999893838452145L53.53333333333333,54.99990613333333L53.579166666666666,54.99991732803548L53.625,54.99992749023438L53.67083333333334,54.999936685457364L53.71666666666667,54.99994497708334L53.7625,54.999952426342766L53.80833333333334,54.99995909231771L53.854166666666664,54.99996503194173L53.9,54.999970299999994L53.94583333333333,54.99997494912923L53.99166666666666,54.99997902981771L54.037499999999994,54.999982590405274L54.083333333333336,54.99998567708333L54.12916666666667,54.99998833389486L54.175,54.999990602734385L54.22083333333333,54.99999252334798L54.266666666666666,54.99999413333334L54.31249999999999,54.99999546813964L54.358333333333334,54.99999656106771L54.40416666666667,54.999997443269855L54.45,54.999998143750005L54.49583333333334,54.99999868936361L54.54166666666667,54.99999910481771L54.587500000000006,54.999999412670896L54.63333333333333,54.99999963333334L54.67916666666667,54.999999785066734L54.725,54.999999883984366L54.77083333333333,54.9999999440511L54.81666666666667,54.999999977083334L54.862500000000004,54.999999992749025L54.90833333333334,54.99999999856771L54.954166666666666,54.999999999910486L55,55L55.04583333333333,54.999999999910486L55.09166666666667,54.99999999856771L55.137499999999996,54.999999992749025L55.18333333333332,54.999999977083334L55.229166666666664,54.9999999440511L55.275000000000006,54.999999883984366L55.32083333333333,54.999999785066734L55.36666666666666,54.99999963333334L55.4125,54.999999412670896L55.45833333333333,54.99999910481771L55.50416666666666,54.99999868936361L55.55,54.999998143750005L55.59583333333334,54.999997443269855L55.641666666666666,54.99999656106771L55.6875,54.99999546813964L55.73333333333334,54.99999413333334L55.77916666666667,54.99999252334798L55.824999999999996,54.999990602734385L55.87083333333334,54.99998833389486L55.916666666666664,54.99998567708333L55.962500000000006,54.999982590405274L56.00833333333333,54.99997902981771L56.054166666666674,54.99997494912923L56.1,54.999970299999994L56.14583333333333,54.99996503194173L56.19166666666667,54.99995909231771L56.2375,54.999952426342766L56.283333333333324,54.99994497708334L56.329166666666666,54.999936685457364L56.37500000000001,54.99992749023438L56.420833333333334,54.99991732803548L56.46666666666666,54.99990613333333L56.5125,54.999893838452145L56.55833333333333,54.999880373567706L56.604166666666664,54.99986566670736L56.65,54.999849643750004L56.69583333333333,54.99983222842611L56.74166666666667,54.9998133423177L56.7875,54.999792904858396L56.833333333333336,54.999770833333336L56.87916666666667,54.99974704287923L56.925,54.99972144648437L56.97083333333334,54.9996939549886L57.016666666666666,54.99966447708333L57.06249999999999,54.99963291931153L57.108333333333334,54.999599186067705L57.154166666666676,54.99956317959799L57.2,54.999524799999996L57.24583333333333,54.99948394522298L57.29166666666667,54.999440511067704L57.3375,54.99939439118653L57.383333333333326,54.99934547708334L57.42916666666667,54.99929365811361L57.474999999999994,54.999238821484376L57.520833333333336,54.99918085225423L57.56666666666666,54.999119633333336L57.612500000000004,54.9990550454834L57.65833333333333,54.998986967317705L57.70416666666666,54.9989152753011L57.75,54.99883984375L57.795833333333334,54.99876054483236L57.84166666666666,54.998677248567716L57.8875,54.99858982282715L57.93333333333334,54.99849813333333L57.97916666666667,54.99840204366048L58.025,54.99830141523438L58.07083333333334,54.998196107332355L58.11666666666667,54.99808597708333L58.162499999999994,54.99797087946778L58.208333333333336,54.997850667317714L58.25416666666668,54.99772519131674L58.300000000000004,54.9975943L58.34583333333333,54.99745783975423L58.39166666666667,54.997315654817704L58.4375,54.99716758728027L58.48333333333333,54.997013477083335L58.52916666666667,54.99685316201986L58.574999999999996,54.99668647773437L58.62083333333332,54.99651325772298L58.666666666666664,54.99633333333333L58.712500000000006,54.99614653376465L58.75833333333333,54.9959526860677L58.80416666666666,54.99575161514486L58.85,54.99554314374999L58.89583333333333,54.9953270924886L58.94166666666666,54.99510327981771L58.9875,54.9948715220459L59.03333333333334,54.994631633333334L59.079166666666666,54.99438342569173L59.125,54.994126708984375L59.17083333333334,54.9938612909261L59.21666666666667,54.99358697708334L59.262499999999996,54.993303570874026L59.30833333333334,54.99301087356771L59.354166666666664,54.99270868428548L59.400000000000006,54.992396799999995L59.44583333333333,54.99207501553549L59.491666666666674,54.99174312356771L59.5375,54.99140091462402L59.58333333333333,54.99104817708333L59.62916666666667,54.99068469717611L59.675,54.990310258984366L59.720833333333324,54.989924644441736L59.766666666666666,54.98952763333333L59.81250000000001,54.9891190032959L59.858333333333334,54.988698529817704L59.90416666666666,54.98826598623861L59.95,54.987821143750004L59.99583333333333,54.987363771394854L60.041666666666664,54.986893636067705L60.0875,54.98641050251465L60.13333333333334,54.98591413333333L60.17916666666666,54.98540428897298L60.225,54.98488072773437L60.270833333333336,54.98434320576986L60.31666666666667,54.98379147708333L60.3625,54.98322529353027L60.40833333333334,54.982644404817705L60.454166666666666,54.98204855850423L60.49999999999999,54.981437500000006L60.545833333333334,54.98081097256672L60.591666666666676,54.9801687173177L60.6375,54.97951047321777L60.68333333333333,54.978835977083335L60.72916666666667,54.97814496358235L60.775,54.97743716523438L60.820833333333326,54.976712312410484L60.86666666666667,54.97597013333333L60.912499999999994,54.97521035407715L60.958333333333336,54.9744326985677L61.00416666666666,54.973636888582355L61.050000000000004,54.97282264375L61.09583333333333,54.9719896815511L61.14166666666666,54.97113771731771L61.1875,54.97026646423339L61.233333333333334,54.969375633333335L61.27916666666667,54.96846493350423L61.325,54.96753407148437L61.37083333333334,54.96658275186361L61.41666666666667,54.96561067708334L61.4625,54.964617547436525L61.50833333333334,54.96360306106771L61.55416666666667,54.96256691397298L61.599999999999994,54.9615088L61.645833333333336,54.96042841084799L61.69166666666668,54.95932543606771L61.737500000000004,54.95819956306152L61.78333333333333,54.95705047708334L61.82916666666667,54.955877861238605L61.875,54.954681396484375L61.92083333333333,54.95346076162924L61.96666666666667,54.95221563333333L62.012499999999996,54.95094568610839L62.05833333333332,54.94965059231771L62.104166666666664,54.9483300221761L62.150000000000006,54.946983643749995L62.19583333333333,54.94561112295736L62.24166666666666,54.94421212356771L62.2875,54.94278630720214L62.33333333333333,54.941333333333326L62.37916666666666,54.93985285928549L62.425,54.93834454023437L62.47083333333333,54.93680802920736L62.516666666666666,54.935242977083334L62.5625,54.93364903259278L62.60833333333334,54.93202584231771L62.65416666666667,54.930373050691735L62.699999999999996,54.9286903L62.74583333333334,54.92697723037924L62.791666666666664,54.925233479817706L62.837500000000006,54.92345868415528L62.88333333333333,54.921652477083335L62.929166666666674,54.91981449014486L62.975,54.91794435273438L63.02083333333333,54.91604169209798L63.06666666666667,54.914106133333334L63.1125,54.91213729938965L63.158333333333324,54.910134811067714L63.204166666666666,54.908098287019854L63.25000000000001,54.906027343750004L63.295833333333334,54.9039215956136L63.34166666666666,54.90178065481771L63.3875,54.899604131420894L63.43333333333333,54.897391633333335L63.479166666666664,54.89514276631674L63.525,54.89285713398438L63.57083333333334,54.89053433780111L63.61666666666666,54.88817397708334L63.6625,54.88577564899902L63.708333333333336,54.88333894856771L63.75416666666667,54.880863468660486L63.8,54.878348800000005L63.84583333333334,54.87579453116048L63.891666666666666,54.873200248567706L63.93749999999999,54.87056553649903L63.983333333333334,54.86788997708333L64.02916666666667,54.8651731503011L64.075,54.86241463398438L64.12083333333334,54.85961400381673L64.16666666666667,54.85677083333333L64.2125,54.853884693920904L64.25833333333333,54.85095515481771L64.30416666666667,54.8479817831136L64.35,54.844964143750005L64.39583333333334,54.84190179951986L64.44166666666666,54.838794311067716L64.48750000000001,54.83564123688965L64.53333333333333,54.83244213333333L64.57916666666667,54.82919655459798L64.625,54.82590405273437L64.67083333333333,54.82256417764486L64.71666666666667,54.81917647708333L64.7625,54.815740496655266L64.80833333333334,54.812255779817704L64.85416666666667,54.808721867879235L64.89999999999999,54.8051383L64.94583333333334,54.80150461319173L64.99166666666666,54.79782034231771L65.0375,54.79408502009277L65.08333333333333,54.790298177083336L65.12916666666668,54.786459341707356L65.175,54.78256804023437L65.22083333333333,54.77862379678548L65.26666666666667,54.77462613333334L65.3125,54.77057456970215L65.35833333333333,54.76646862356771L65.40416666666667,54.76230781045736L65.45,54.75809164375L65.49583333333332,54.753819634676105L65.54166666666667,54.749491292317714L65.5875,54.745106123608394L65.63333333333334,54.740663633333334L65.67916666666666,54.73616332412924L65.72500000000001,54.731604696484375L65.77083333333333,54.72698724873861L65.81666666666666,54.72231047708333L65.8625,54.71757387556153L65.90833333333333,54.71277693606771L65.95416666666667,54.70791914834798L66,54.702999999999996L66.04583333333333,54.69801897647298L66.09166666666667,54.69297556106771L66.13749999999999,54.68786923493652L66.18333333333334,54.68269947708333L66.22916666666666,54.6774657643636L66.275,54.67216757148437L66.32083333333333,54.66680437100423L66.36666666666667,54.661375633333336L66.4125,54.6558808267334L66.45833333333333,54.650319417317704L66.50416666666666,54.6446908690511L66.55,54.63899464375L66.59583333333333,54.633230201082355L66.64166666666667,54.62739699856771L66.68750000000001,54.62149449157715L66.73333333333333,54.615522133333336L66.77916666666667,54.60947937491048L66.825,54.60336566523438L66.87083333333334,54.59718045108236L66.91666666666666,54.59092317708333L66.9625,54.58459328571778L67.00833333333334,54.57819021731771L67.05416666666666,54.57171341006673L67.1,54.5651623L67.14583333333334,54.55853632100423L67.19166666666666,54.55183490481771L67.2375,54.54505748103028L67.28333333333333,54.53820347708333L67.32916666666667,54.531272318269856L67.37499999999999,54.524263427734375L67.42083333333333,54.51717622647298L67.46666666666667,54.510010133333324L67.5125,54.50276456501465L67.55833333333334,54.49543893606771L67.60416666666667,54.48803265889485L67.65,54.48054514375L67.69583333333333,54.4729757987386L67.74166666666667,54.46532402981771L67.7875,54.457589240795905L67.83333333333334,54.44977083333334L67.87916666666666,54.441868206941734L67.92500000000001,54.43388075898437L67.97083333333333,54.42580788467611L68.01666666666667,54.41764897708333L68.0625,54.409403427124026L68.10833333333333,54.40107062356772L68.15416666666667,54.39264995303548L68.2,54.384140800000004L68.24583333333334,54.375542546785475L68.29166666666667,54.36685457356771L68.33749999999999,54.35807625837402L68.38333333333334,54.349206977083334L68.42916666666666,54.34024610342611L68.475,54.33119300898438L68.52083333333333,54.32204706319173L68.56666666666668,54.312807633333335L68.6125,54.30347408454589L68.65833333333333,54.294045779817715L68.70416666666667,54.2845220799886L68.75,54.27490234375L68.79583333333333,54.26518592764486L68.84166666666667,54.2553721860677L68.8875,54.24546047126465L68.93333333333332,54.23545013333333L68.97916666666667,54.22534052022299L69.025,54.21513097773438L69.07083333333334,54.20482084951986L69.11666666666666,54.19440947708333L69.16250000000001,54.18389619978027L69.20833333333333,54.173280354817706L69.25416666666666,54.16256127725423L69.3,54.151738300000005L69.34583333333333,54.14081075381673L69.39166666666667,54.12977796731771L69.4375,54.11863926696777L69.48333333333333,54.10739397708333L69.52916666666667,54.09604141983235L69.57499999999999,54.084580915234376L69.62083333333334,54.07301178116048L69.66666666666666,54.06133333333333L69.7125,54.049544885327144L69.75833333333333,54.0376457485677L69.80416666666667,54.02563523233236L69.85,54.013512643750005L69.89583333333333,54.0012772878011L69.94166666666666,53.988928467317706L69.9875,53.9764654829834L70.03333333333333,53.96388763333333L70.07916666666667,53.95119421475424L70.12500000000001,53.93838452148438L70.17083333333333,53.9254578456136L70.21666666666667,53.912413477083334L70.2625,53.89925070368652L70.30833333333334,53.885968811067706L70.35416666666666,53.87256708272298L70.4,53.8590448L70.44583333333334,53.84540124209798L70.49166666666666,53.83163568606771L70.5375,53.81774740681153L70.58333333333334,53.80373567708334L70.62916666666666,53.78959976748861L70.675,53.77533894648438L70.72083333333333,53.76095248037923L70.76666666666667,53.74643963333333L70.81249999999999,53.731799667358395L70.85833333333333,53.71703184231771L70.90416666666667,53.70213541592611L70.95,53.687109643750006L70.99583333333334,53.67195377920735L71.04166666666667,53.656667073567704L71.0875,53.64124877595215L71.13333333333333,53.62569813333334L71.17916666666667,53.610014390535476L71.225,53.59419679023438L71.27083333333334,53.57824457295735L71.31666666666666,53.56215697708333L71.36250000000001,53.54593323884278L71.40833333333333,53.52957259231771L71.45416666666667,53.51307426944173L71.5,53.4964375L71.54583333333333,53.47966151162923L71.59166666666667,53.46274552981771L71.6375,53.445688777905275L71.68333333333334,53.428490477083336L71.72916666666667,53.41114984639486L71.77499999999999,53.39366610273438L71.82083333333334,53.37603846084798L71.86666666666666,53.35826613333333L71.9125,53.34034833063965L71.95833333333333,53.32228426106771L72.00416666666668,53.30407313076986L72.05,53.28571414375L72.09583333333333,53.267206501863605L72.14166666666667,53.24854940481771L72.1875,53.2297420501709L72.23333333333333,53.21078363333333L72.27916666666667,53.19167334756673L72.325,53.17241038398437L72.37083333333332,53.152993931551116L72.41666666666667,53.13342317708334L72.4625,53.113697305249026L72.50833333333334,53.09381549856771L72.55416666666666,53.073776937410486L72.60000000000001,53.05358079999999L72.64583333333333,53.03322626241048L72.69166666666666,53.012712498567716L72.7375,52.992038680249024L72.78333333333333,52.971203977083334L72.82916666666667,52.950207556551106L72.875,52.929048583984375L72.92083333333333,52.90772622256674L72.96666666666667,52.886239633333325L73.01249999999999,52.8645879751709L73.05833333333334,52.842770404817706L73.10416666666666,52.820786076863605L73.15,52.79863414375L73.19583333333333,52.776313755769856L73.24166666666667,52.75382406106771L73.2875,52.731164205639644L73.33333333333333,52.70833333333333L73.37916666666666,52.685330585847986L73.425,52.66215510273437L73.47083333333333,52.638806021394856L73.51666666666667,52.61528247708334L73.56250000000001,52.59158360290528L73.60833333333332,52.567708529817715L73.65416666666667,52.54365638662924L73.69999999999999,52.5194263L73.74583333333334,52.49501739444174L73.79166666666667,52.47042879231771L73.8375,52.44565961384278L73.88333333333334,52.420708977083336L73.92916666666666,52.39557599795735L73.975,52.37025979023437L74.02083333333333,52.34475946553548L74.06666666666666,52.31907413333333L74.11250000000001,52.29320290095215L74.15833333333333,52.26714487356771L74.20416666666668,52.240899154207355L74.24999999999999,52.21446484375L74.29583333333333,52.187841040926116L74.34166666666667,52.16102684231772L74.3875,52.1340213423584L74.43333333333334,52.106823633333335L74.47916666666667,52.07943280537923L74.52499999999999,52.051847946484386L74.57083333333333,52.0240681424886L74.61666666666667,51.99609247708333L74.6625,51.96792003181152L74.70833333333334,51.93954988606771L74.75416666666666,51.91098111709798L74.80000000000001,51.88221279999999L74.84583333333332,51.853244007722985L74.89166666666667,51.82407381106771L74.9375,51.794701278686524L74.98333333333333,51.76512547708334L75.02916666666667,51.73534547061361L75.075,51.705360321484385L75.12083333333334,51.67516908975423L75.16666666666666,51.644770833333325L75.21249999999999,51.614164607983405L75.25833333333334,51.58334946731771L75.30416666666666,51.5523244628011L75.35000000000001,51.52108864375L75.39583333333333,51.489641057332356L75.44166666666668,51.45798074856771L75.4875,51.426106760327144L75.53333333333333,51.39401813333334L75.57916666666667,51.36171390616048L75.625,51.329193115234375L75.67083333333333,51.29645479483236L75.71666666666667,51.26349797708333L75.7625,51.23032169196777L75.80833333333332,51.1969249673177L75.85416666666667,51.16330682881674L75.89999999999999,51.129466300000004L75.94583333333334,51.09540240225423L75.99166666666666,51.06111415481771L76.03750000000001,51.026600574780275L76.08333333333334,50.99186067708333L76.12916666666666,50.956893474519866L76.175,50.921697977734375L76.22083333333333,50.886273195222984L76.26666666666667,50.850618133333334L76.3125,50.81473179626464L76.35833333333333,50.77861318606771L76.40416666666668,50.742261302644856L76.44999999999999,50.70567514375001L76.49583333333334,50.66885370498861L76.54166666666666,50.63179597981771L76.5875,50.5945009595459L76.63333333333333,50.55696763333333L76.67916666666667,50.51919498819173L76.72500000000001,50.481182008984376L76.77083333333333,50.4429276784261L76.81666666666666,50.40443097708334L76.8625,50.365690883374015L76.90833333333333,50.326706373567696L76.95416666666667,50.28747642178548L77.00000000000001,50.248L77.04583333333332,50.20827607803548L77.09166666666667,50.1683036235677L77.13749999999999,50.12808160212403L77.18333333333334,50.08760897708333L77.22916666666667,50.04688470967611L77.275,50.00590775898438L77.32083333333334,49.96467708194172L77.36666666666666,49.92319163333334L77.4125,49.88145036579591L77.45833333333333,49.8394522298177L77.50416666666666,49.797196173738605L77.55000000000001,49.754681143750005L77.59583333333333,49.71190608389486L77.64166666666668,49.6688699360677L77.68749999999999,49.62557164001465L77.73333333333333,49.582010133333334L77.77916666666667,49.53818435147298L77.825,49.494093227734375L77.87083333333334,49.44973569326986L77.91666666666667,49.40511067708333L77.96249999999999,49.36021710603027L78.00833333333333,49.31505390481771L78.05416666666667,49.26961999600423L78.1,49.22391429999999L78.14583333333334,49.17793573506674L78.19166666666666,49.1316832173177L78.23750000000001,49.085155660717774L78.28333333333332,49.03835197708332L78.32916666666667,48.991271076082356L78.375,48.94391186523438L78.42083333333333,48.896273249910486L78.46666666666667,48.84835413333334L78.5125,48.800153416577146L78.55833333333334,48.75166999856772L78.60416666666666,48.702902776082354L78.64999999999999,48.65385064374999L78.69583333333334,48.60451249405111L78.74166666666666,48.55488721731771L78.78750000000001,48.50497370173339L78.83333333333333,48.45477083333333L78.87916666666668,48.40427749600423L78.925,48.353492571484374L78.97083333333333,48.3024149393636L79.01666666666667,48.25104347708333L79.0625,48.19937705993652L79.10833333333333,48.14741456106772L79.15416666666667,48.09515485147299L79.2,48.0425968L79.24583333333332,47.98973927334798L79.29166666666667,47.93658113606771L79.33749999999999,47.88312125056152L79.38333333333334,47.829358477083325L79.42916666666666,47.77529167373861L79.47500000000001,47.72091969648437L79.52083333333334,47.66624139912924L79.56666666666666,47.61125563333333L79.6125,47.555961248608405L79.65833333333333,47.5003570923177L79.70416666666667,47.4444420096761L79.75,47.38821484374999L79.79583333333333,47.33167443545735L79.84166666666668,47.274819623567716L79.88749999999999,47.21764924470215L79.93333333333334,47.16016213333333L79.97916666666666,47.10235712178548L80.025,47.04423304023437L80.07083333333333,46.985788716707354L80.11666666666667,46.927022977083325L80.16250000000001,46.867934645092774L80.20833333333333,46.808522542317704L80.25416666666666,46.748785488191736L80.3,46.6887223L80.34583333333333,46.62833179287923L80.39166666666667,46.567612779817715L80.43750000000001,46.50656407165527L80.48333333333332,46.44518447708334L80.52916666666667,46.38347280264485L80.57499999999999,46.32142785273438L80.62083333333334,46.25904842959799L80.66666666666667,46.196333333333335L80.7125,46.13328136188965L80.75833333333334,46.06989131106771L80.80416666666666,46.006161974519856L80.85,45.94209214375L80.89583333333333,45.87768060811361L80.94166666666666,45.8129261548177L80.98750000000001,45.7478275689209L81.03333333333333,45.68238363333333L81.07916666666668,45.61659312881673L81.12499999999999,45.550454833984375L81.17083333333333,45.48396752530111L81.21666666666667,45.417129977083334L81.2625,45.34994096149903L81.30833333333334,45.2823992485677L81.35416666666667,45.21450360616048L81.39999999999999,45.1462528L81.44583333333333,45.07764559366049L81.49166666666667,45.00868074856771L81.5375,44.93935702399902L81.58333333333334,44.86967317708334L81.62916666666666,44.79962796280111L81.67500000000001,44.72922013398437L81.72083333333332,44.658448441316736L81.76666666666667,44.58731163333334L81.8125,44.5158084564209L81.85833333333333,44.4439376548177L81.90416666666667,44.37169797061361L81.95,44.29908814375L81.99583333333334,44.22610691201986L82.04166666666666,44.1527530110677L82.08749999999999,44.07902517438964L82.13333333333334,44.00492213333334L82.17916666666666,43.93044261709798L82.22500000000001,43.855585352734366L82.27083333333333,43.78034906514486L82.31666666666668,43.70473247708334L82.3625,43.62873430915528L82.40833333333333,43.55235327981771L82.45416666666667,43.47558810537922L82.5,43.3984375L82.54583333333333,43.32090017569175L82.59166666666667,43.24297484231771L82.6375,43.164660207592775L82.68333333333332,43.08595497708333L82.72916666666667,43.006857854207354L82.77499999999999,42.927367540234386L82.82083333333334,42.84748273428548L82.86666666666666,42.76720213333333L82.91250000000001,42.68652443220215L82.95833333333334,42.6054483235677L83.00416666666666,42.523972497957345L83.05,42.44209564375001L83.09583333333333,42.359816447176115L83.14166666666667,42.27713359231771L83.1875,42.1940457611084L83.23333333333333,42.11055163333333L83.27916666666668,42.02664988662923L83.32499999999999,41.94233919648437L83.37083333333334,41.85761823623861L83.41666666666666,41.77248567708334L83.4625,41.68694018806153L83.50833333333333,41.6009804360677L83.55416666666667,41.514605085847975L83.60000000000001,41.4278128L83.64583333333333,41.34060223897298L83.69166666666666,41.25297206106771L83.7375,41.164920922436536L83.78333333333333,41.07644747708332L83.82916666666667,40.98755037686361L83.87500000000001,40.89822827148437L83.92083333333332,40.80847980850423L83.96666666666667,40.718303633333335L84.01249999999999,40.6276983892334L84.05833333333334,40.53666271731771L84.10416666666667,40.4451952565511L84.15,40.35329464374999L84.19583333333334,40.260959513582364L84.24166666666666,40.1681884985677L84.2875,40.07498022907714L84.33333333333333,39.981333333333325L84.37916666666666,39.88724643741048L84.42500000000001,39.792718165234376L84.47083333333333,39.69774713858236L84.51666666666668,39.602331977083324L84.56249999999999,39.506471298217775L84.60833333333333,39.4101637173177L84.65416666666667,39.31340784756674L84.7,39.21620229999999L84.74583333333334,39.11854568350424L84.79166666666667,39.020436604817704L84.83749999999999,38.92187366853028L84.88333333333333,38.82285547708334L84.92916666666667,38.72338063076985L84.975,38.62344772773437L85.02083333333334,38.523055363972986L85.06666666666666,38.42220213333334L85.11250000000001,38.32088662751465L85.15833333333332,38.2191074360677L85.20416666666667,38.11686314639485L85.25,38.01415234375L85.29583333333333,37.9109736112386L85.34166666666667,37.8073255298177L85.3875,37.7032066782959L85.43333333333334,37.59861563333334L85.47916666666666,37.49355096944173L85.52499999999999,37.38801125898438L85.57083333333334,37.2819950721761L85.61666666666666,37.175500977083345L85.66250000000001,37.06852753962403L85.70833333333333,36.9610733235677L85.75416666666668,36.85313689053548L85.8,36.744716800000006L85.84583333333333,36.63581160928548L85.89166666666667,36.526419873567704L85.9375,36.41654014587402L85.98333333333333,36.30617097708334L86.02916666666667,36.195310915926115L86.075,36.08395850898438L86.12083333333332,35.97211230069172L86.16666666666667,35.85977083333333L86.21249999999999,35.74693264704591L86.25833333333334,35.633596279817695L86.30416666666666,35.51976026748861L86.35000000000001,35.40542314375L86.39583333333334,35.29058344014486L86.44166666666666,35.1752396860677L86.4875,35.059390408764656L86.53333333333333,34.94303413333334L86.57916666666667,34.82616938272298L86.625,34.708794677734375L86.67083333333333,34.59090853701986L86.71666666666668,34.472509477083335L86.76249999999999,34.35359601228028L86.80833333333334,34.2341666548177L86.85416666666666,34.11421991475423L86.9,33.993754300000006L86.94583333333333,33.87276831631672L86.99166666666667,33.75126046731769L87.03750000000001,33.629229254467774L87.08333333333333,33.50667317708333L87.12916666666666,33.383590732332365L87.175,33.25998041523438L87.22083333333333,33.13584071866049L87.26666666666667,33.01117013333334L87.31250000000001,32.885967147827145L87.35833333333332,32.76023024856771L87.40416666666667,32.63395791983237L87.44999999999999,32.507148643749986L87.49583333333334,32.37980090030112L87.54166666666667,32.251913167317724L87.5875,32.123483920483395L87.63333333333334,31.99451163333333L87.67916666666666,31.864994777254225L87.725,31.73493182148438L87.77083333333333,31.604321233113595L87.81666666666666,31.473161477083323L87.86250000000001,31.34145101618651L87.90833333333333,31.209188311067706L87.95416666666668,31.076371820222988L87.99999999999999,30.942999999999998L88.04583333333333,30.80907130459798L88.09166666666667,30.674584186067705L88.1375,30.539537094311513L88.18333333333334,30.40392847708334L88.22916666666667,30.267756779988602L88.27499999999999,30.13102044648437L88.32083333333333,29.993717917879238L88.36666666666667,29.855847633333326L88.4125,29.71740802985839L88.45833333333334,29.578397542317703L88.50416666666666,29.43881460342611L88.55000000000001,29.298657643750005L88.59583333333332,29.15792509170737L88.64166666666667,29.016615373567703L88.6875,28.87472691345215L88.73333333333333,28.732258133333318L88.77916666666667,28.589207453035485L88.825,28.44557329023438L88.87083333333334,28.30135406045737L88.91666666666666,28.156548177083323L88.96249999999999,28.01115405134277L89.00833333333334,27.865170092317697L89.05416666666666,27.718594706941744L89.10000000000001,27.571426299999985L89.14583333333333,27.423663274129225L89.19166666666668,27.275304029817704L89.2375,27.12634696540529L89.28333333333333,26.976790477083327L89.32916666666667,26.826632958894848L89.375,26.675872802734375L89.42083333333333,26.52450839834799L89.46666666666667,26.372538133333336L89.5125,26.219960393139644L89.55833333333332,26.066773561067706L89.60416666666667,25.91297601826986L89.64999999999999,25.758566143750002L89.69583333333334,25.603542314363594L89.74166666666666,25.447902904817695L89.78750000000001,25.2916462876709L89.83333333333334,25.134770833333334L89.87916666666666,24.977274910066726L89.925,24.819156883984377L89.97083333333333,24.66041511905111L90.01666666666667,24.50104797708333L90.0625,24.341053817749028L90.10833333333333,24.180430998567715L90.15416666666668,24.019177874910483L90.19999999999999,23.85729280000001L90.24583333333334,23.69477412491048L90.29166666666666,23.531620198567694L90.3375,23.36782936774904L90.38333333333333,23.203399977083336L90.42916666666667,23.038330369051096L90.47500000000001,22.87261888398436L90.52083333333333,22.706263860066727L90.56666666666666,22.539263633333334L90.6125,22.371616537670903L90.65833333333333,22.2033209048177L90.70416666666667,22.034375064363616L90.75000000000001,21.864777343750006L90.79583333333332,21.69452606826985L90.84166666666667,21.523619561067704L90.88749999999999,21.352056143139663L90.93333333333334,21.17983413333333L90.97916666666667,21.006951848347995L91.025,20.83340760273437L91.07083333333334,20.65919970889486L91.11666666666666,20.484326477083343L91.1625,20.308786215405277L91.20833333333333,20.1325772298177L91.25416666666666,19.95569782412923L91.30000000000001,19.778146300000003L91.34583333333333,19.59992095694173L91.39166666666668,19.42102009231769L91.43749999999999,19.24144200134276L91.48333333333333,19.06118497708333L91.52916666666667,18.88024731045735L91.575,18.69862729023437L91.62083333333334,18.51632320303547L91.66666666666667,18.33333333333333L91.71249999999999,18.14965596345216L91.75833333333333,17.965289373567714L91.80416666666667,17.780231841707376L91.85,17.59448164375003L91.89583333333334,17.408037053426085L91.94166666666668,17.2208963423177L91.98750000000001,17.033057779858396L92.03333333333332,16.844519633333334L92.07916666666667,16.65528016787924L92.125,16.46533764648437L92.17083333333333,16.274690329988616L92.21666666666665,16.083336477083336L92.26250000000002,15.891274344311512L92.30833333333334,15.6985021860677L92.35416666666666,15.505018254597971L92.39999999999999,15.310820800000016L92.44583333333334,15.115908070222986L92.49166666666666,14.920278311067719L92.5375,14.72392976618653L92.58333333333333,14.526860677083349L92.62916666666668,14.329069283113597L92.675,14.13055382148437L92.72083333333333,13.93131252725422L92.76666666666667,13.73134363333331L92.8125,13.530645370483398L92.85833333333333,13.329215967317708L92.90416666666667,13.127053650301121L92.95,12.92415664375001L92.99583333333332,12.720523169832376L93.04166666666667,12.516151448567697L93.0875,12.311039697827141L93.13333333333334,12.10518613333332L93.17916666666666,11.89858896866049L93.22500000000001,11.691246415234389L93.27083333333334,11.483156682332364L93.31666666666666,11.274317977083342L93.36249999999998,11.06472850446778L93.40833333333335,10.854386467317696L93.45416666666667,10.643290066316709L93.5,10.431437499999987L93.54583333333333,10.218826964754214L93.59166666666668,10.00545665481772L93.63749999999999,9.791324762280283L93.68333333333332,9.576429477083352L93.72916666666666,9.360768987019867L93.775,9.144341477734358L93.82083333333333,8.92714513272297L93.86666666666667,8.709178133333324L93.91250000000001,8.490438658764646L93.95833333333333,8.270924886067704L94.00416666666666,8.050634990144857L94.05,7.829567143749998L94.09583333333333,7.607719517488633L94.14166666666667,7.385090279817732L94.18750000000001,7.161677597045895L94.23333333333335,6.937479633333325L94.27916666666667,6.71249455069173L94.32499999999999,6.4867205089843765L94.37083333333334,6.260155665926106L94.41666666666667,6.032798177083336L94.4625,5.804646195874028L94.50833333333331,5.575697873567734L94.55416666666669,5.345951359285465L94.6,5.115404799999979L94.64583333333333,4.884056340535466L94.69166666666666,4.651904123567718L94.73750000000001,4.4189462896240315L94.78333333333333,4.185180977083348L94.82916666666665,3.950606322176128L94.87499999999999,3.7152204589843905L94.92083333333333,3.479021519441716L94.96666666666667,3.2420076333333157L95.0125,3.004176928295877L95.05833333333334,2.765527529817703L95.10416666666667,2.526057561238602L95.14999999999999,2.2857651437500124L95.19583333333333,2.0446483963948623L95.24166666666667,1.8027054360677255L95.2875,1.5599343775146792L95.33333333333334,1.3163333333333185L95.37916666666668,1.071900413972969L95.42500000000001,0.8266337277343752L95.47083333333332,0.5805313807698553L95.51666666666667,0.33359147708334547L95.5625,0.08581211853028492L95.60833333333333,-0.16280859518226976L95.65416666666665,-0.4122725664957727L95.70000000000002,-0.6625817000000183L95.74583333333334,-0.913737902433283L95.79166666666666,-1.1657430826823116L95.83749999999999,-1.4185991517822316L95.88333333333334,-1.672308022916667L95.92916666666666,-1.9268716114176243L95.975,-2.182291834765607L96.02083333333333,-2.4385706125895155L96.06666666666668,-2.6957098666666752L96.1125,-2.953711520922866L96.15833333333333,-3.2125775014322926L96.20416666666667,-3.4723097364176425" style="stroke-width: 2px; stroke: rgb(255, 102, 0); fill: none; opacity: 1;"></path><g class="grid" transform="translate(0,55)" fill="none" font-size="10" font-family="sans-serif" text-anchor="middle"><path class="domain" stroke="#000" d="M0.5,2V0.5H110.5V2"></path><g class="tick" opacity="1" transform="translate(55.5,0)"><line stroke="#000" y2="2"></line><text fill="#000" y="5" dy="0.71em">0</text></g></g></svg><g><circle cx="33" cy="50.248" r="2" style="stroke-width: 1px; stroke: rgb(255, 102, 0); fill: white;"></circle><circle cx="34.83333333333333" cy="51.644770833333325" r="2" style="stroke-width: 1px; stroke: rgb(255, 102, 0); fill: white;"></circle><circle cx="36.666666666666664" cy="52.70833333333333" r="2" style="stroke-width: 1px; stroke: rgb(255, 102, 0); fill: white;"></circle><circle cx="38.50000000000001" cy="53.4964375" r="2" style="stroke-width: 1px; stroke: rgb(255, 102, 0); fill: white;"></circle><circle cx="40.333333333333336" cy="54.06133333333333" r="2" style="stroke-width: 1px; stroke: rgb(255, 102, 0); fill: white;"></circle><circle cx="69.66666666666666" cy="54.06133333333333" r="2" style="stroke-width: 1px; stroke: rgb(255, 102, 0); fill: white;"></circle><circle cx="71.5" cy="53.4964375" r="2" style="stroke-width: 1px; stroke: rgb(255, 102, 0); fill: white;"></circle><circle cx="73.33333333333333" cy="52.70833333333333" r="2" style="stroke-width: 1px; stroke: rgb(255, 102, 0); fill: white;"></circle><circle cx="75.16666666666666" cy="51.644770833333325" r="2" style="stroke-width: 1px; stroke: rgb(255, 102, 0); fill: white;"></circle><circle cx="77.00000000000001" cy="50.248" r="2" style="stroke-width: 1px; stroke: rgb(255, 102, 0); fill: white;"></circle></g></svg>